%TF.GenerationSoftware,KiCad,Pcbnew,(5.1.10)-1*%
%TF.CreationDate,2021-10-26T10:29:25+05:30*%
%TF.ProjectId,RP2040+BMI,52503230-3430-42b4-924d-492e6b696361,rev?*%
%TF.SameCoordinates,Original*%
%TF.FileFunction,Legend,Top*%
%TF.FilePolarity,Positive*%
%FSLAX46Y46*%
G04 Gerber Fmt 4.6, Leading zero omitted, Abs format (unit mm)*
G04 Created by KiCad (PCBNEW (5.1.10)-1) date 2021-10-26 10:29:25*
%MOMM*%
%LPD*%
G01*
G04 APERTURE LIST*
%ADD10C,0.375000*%
%ADD11C,0.225000*%
%ADD12C,0.312500*%
%ADD13C,0.127000*%
%ADD14C,0.120000*%
%ADD15C,0.200000*%
G04 APERTURE END LIST*
D10*
X192214285Y-113628571D02*
X193142857Y-113628571D01*
X192642857Y-114200000D01*
X192857142Y-114200000D01*
X193000000Y-114271428D01*
X193071428Y-114342857D01*
X193142857Y-114485714D01*
X193142857Y-114842857D01*
X193071428Y-114985714D01*
X193000000Y-115057142D01*
X192857142Y-115128571D01*
X192428571Y-115128571D01*
X192285714Y-115057142D01*
X192214285Y-114985714D01*
X193785714Y-114985714D02*
X193857142Y-115057142D01*
X193785714Y-115128571D01*
X193714285Y-115057142D01*
X193785714Y-114985714D01*
X193785714Y-115128571D01*
X195285714Y-115128571D02*
X194428571Y-115128571D01*
X194857142Y-115128571D02*
X194857142Y-113628571D01*
X194714285Y-113842857D01*
X194571428Y-113985714D01*
X194428571Y-114057142D01*
X196571428Y-114128571D02*
X196571428Y-115128571D01*
X196214285Y-113557142D02*
X195857142Y-114628571D01*
X196785714Y-114628571D01*
D11*
X172880000Y-93827142D02*
X172580000Y-93398571D01*
X172365714Y-93827142D02*
X172365714Y-92927142D01*
X172708571Y-92927142D01*
X172794285Y-92970000D01*
X172837142Y-93012857D01*
X172880000Y-93098571D01*
X172880000Y-93227142D01*
X172837142Y-93312857D01*
X172794285Y-93355714D01*
X172708571Y-93398571D01*
X172365714Y-93398571D01*
X173651428Y-93827142D02*
X173651428Y-93355714D01*
X173608571Y-93270000D01*
X173522857Y-93227142D01*
X173351428Y-93227142D01*
X173265714Y-93270000D01*
X173651428Y-93784285D02*
X173565714Y-93827142D01*
X173351428Y-93827142D01*
X173265714Y-93784285D01*
X173222857Y-93698571D01*
X173222857Y-93612857D01*
X173265714Y-93527142D01*
X173351428Y-93484285D01*
X173565714Y-93484285D01*
X173651428Y-93441428D01*
X174037142Y-93784285D02*
X174122857Y-93827142D01*
X174294285Y-93827142D01*
X174380000Y-93784285D01*
X174422857Y-93698571D01*
X174422857Y-93655714D01*
X174380000Y-93570000D01*
X174294285Y-93527142D01*
X174165714Y-93527142D01*
X174080000Y-93484285D01*
X174037142Y-93398571D01*
X174037142Y-93355714D01*
X174080000Y-93270000D01*
X174165714Y-93227142D01*
X174294285Y-93227142D01*
X174380000Y-93270000D01*
X174808571Y-93227142D02*
X174808571Y-94127142D01*
X174808571Y-93270000D02*
X174894285Y-93227142D01*
X175065714Y-93227142D01*
X175151428Y-93270000D01*
X175194285Y-93312857D01*
X175237142Y-93398571D01*
X175237142Y-93655714D01*
X175194285Y-93741428D01*
X175151428Y-93784285D01*
X175065714Y-93827142D01*
X174894285Y-93827142D01*
X174808571Y-93784285D01*
X175622857Y-93827142D02*
X175622857Y-92927142D01*
X175622857Y-93270000D02*
X175708571Y-93227142D01*
X175880000Y-93227142D01*
X175965714Y-93270000D01*
X176008571Y-93312857D01*
X176051428Y-93398571D01*
X176051428Y-93655714D01*
X176008571Y-93741428D01*
X175965714Y-93784285D01*
X175880000Y-93827142D01*
X175708571Y-93827142D01*
X175622857Y-93784285D01*
X176780000Y-93784285D02*
X176694285Y-93827142D01*
X176522857Y-93827142D01*
X176437142Y-93784285D01*
X176394285Y-93698571D01*
X176394285Y-93355714D01*
X176437142Y-93270000D01*
X176522857Y-93227142D01*
X176694285Y-93227142D01*
X176780000Y-93270000D01*
X176822857Y-93355714D01*
X176822857Y-93441428D01*
X176394285Y-93527142D01*
X177208571Y-93827142D02*
X177208571Y-93227142D01*
X177208571Y-93398571D02*
X177251428Y-93312857D01*
X177294285Y-93270000D01*
X177380000Y-93227142D01*
X177465714Y-93227142D01*
X177765714Y-93827142D02*
X177765714Y-93227142D01*
X177765714Y-93398571D02*
X177808571Y-93312857D01*
X177851428Y-93270000D01*
X177937142Y-93227142D01*
X178022857Y-93227142D01*
X178237142Y-93227142D02*
X178451428Y-93827142D01*
X178665714Y-93227142D02*
X178451428Y-93827142D01*
X178365714Y-94041428D01*
X178322857Y-94084285D01*
X178237142Y-94127142D01*
X179694285Y-93827142D02*
X179694285Y-92927142D01*
X180037142Y-92927142D01*
X180122857Y-92970000D01*
X180165714Y-93012857D01*
X180208571Y-93098571D01*
X180208571Y-93227142D01*
X180165714Y-93312857D01*
X180122857Y-93355714D01*
X180037142Y-93398571D01*
X179694285Y-93398571D01*
X180594285Y-93827142D02*
X180594285Y-93227142D01*
X180594285Y-92927142D02*
X180551428Y-92970000D01*
X180594285Y-93012857D01*
X180637142Y-92970000D01*
X180594285Y-92927142D01*
X180594285Y-93012857D01*
D12*
X191220952Y-92181726D02*
X190804285Y-91586488D01*
X190506666Y-92181726D02*
X190506666Y-90931726D01*
X190982857Y-90931726D01*
X191101904Y-90991250D01*
X191161428Y-91050773D01*
X191220952Y-91169821D01*
X191220952Y-91348392D01*
X191161428Y-91467440D01*
X191101904Y-91526964D01*
X190982857Y-91586488D01*
X190506666Y-91586488D01*
X191756666Y-92181726D02*
X191756666Y-90931726D01*
X192232857Y-90931726D01*
X192351904Y-90991250D01*
X192411428Y-91050773D01*
X192470952Y-91169821D01*
X192470952Y-91348392D01*
X192411428Y-91467440D01*
X192351904Y-91526964D01*
X192232857Y-91586488D01*
X191756666Y-91586488D01*
X192947142Y-91050773D02*
X193006666Y-90991250D01*
X193125714Y-90931726D01*
X193423333Y-90931726D01*
X193542380Y-90991250D01*
X193601904Y-91050773D01*
X193661428Y-91169821D01*
X193661428Y-91288869D01*
X193601904Y-91467440D01*
X192887619Y-92181726D01*
X193661428Y-92181726D01*
X194435238Y-90931726D02*
X194554285Y-90931726D01*
X194673333Y-90991250D01*
X194732857Y-91050773D01*
X194792380Y-91169821D01*
X194851904Y-91407916D01*
X194851904Y-91705535D01*
X194792380Y-91943630D01*
X194732857Y-92062678D01*
X194673333Y-92122202D01*
X194554285Y-92181726D01*
X194435238Y-92181726D01*
X194316190Y-92122202D01*
X194256666Y-92062678D01*
X194197142Y-91943630D01*
X194137619Y-91705535D01*
X194137619Y-91407916D01*
X194197142Y-91169821D01*
X194256666Y-91050773D01*
X194316190Y-90991250D01*
X194435238Y-90931726D01*
X195923333Y-91348392D02*
X195923333Y-92181726D01*
X195625714Y-90872202D02*
X195328095Y-91765059D01*
X196101904Y-91765059D01*
X196816190Y-90931726D02*
X196935238Y-90931726D01*
X197054285Y-90991250D01*
X197113809Y-91050773D01*
X197173333Y-91169821D01*
X197232857Y-91407916D01*
X197232857Y-91705535D01*
X197173333Y-91943630D01*
X197113809Y-92062678D01*
X197054285Y-92122202D01*
X196935238Y-92181726D01*
X196816190Y-92181726D01*
X196697142Y-92122202D01*
X196637619Y-92062678D01*
X196578095Y-91943630D01*
X196518571Y-91705535D01*
X196518571Y-91407916D01*
X196578095Y-91169821D01*
X196637619Y-91050773D01*
X196697142Y-90991250D01*
X196816190Y-90931726D01*
X191131666Y-93714464D02*
X191310238Y-93773988D01*
X191369761Y-93833511D01*
X191429285Y-93952559D01*
X191429285Y-94131130D01*
X191369761Y-94250178D01*
X191310238Y-94309702D01*
X191191190Y-94369226D01*
X190715000Y-94369226D01*
X190715000Y-93119226D01*
X191131666Y-93119226D01*
X191250714Y-93178750D01*
X191310238Y-93238273D01*
X191369761Y-93357321D01*
X191369761Y-93476369D01*
X191310238Y-93595416D01*
X191250714Y-93654940D01*
X191131666Y-93714464D01*
X190715000Y-93714464D01*
X191965000Y-94369226D02*
X191965000Y-93119226D01*
X192381666Y-94012083D01*
X192798333Y-93119226D01*
X192798333Y-94369226D01*
X193393571Y-94369226D02*
X193393571Y-93119226D01*
X194226904Y-93119226D02*
X194345952Y-93119226D01*
X194465000Y-93178750D01*
X194524523Y-93238273D01*
X194584047Y-93357321D01*
X194643571Y-93595416D01*
X194643571Y-93893035D01*
X194584047Y-94131130D01*
X194524523Y-94250178D01*
X194465000Y-94309702D01*
X194345952Y-94369226D01*
X194226904Y-94369226D01*
X194107857Y-94309702D01*
X194048333Y-94250178D01*
X193988809Y-94131130D01*
X193929285Y-93893035D01*
X193929285Y-93595416D01*
X193988809Y-93357321D01*
X194048333Y-93238273D01*
X194107857Y-93178750D01*
X194226904Y-93119226D01*
X195357857Y-93654940D02*
X195238809Y-93595416D01*
X195179285Y-93535892D01*
X195119761Y-93416845D01*
X195119761Y-93357321D01*
X195179285Y-93238273D01*
X195238809Y-93178750D01*
X195357857Y-93119226D01*
X195595952Y-93119226D01*
X195715000Y-93178750D01*
X195774523Y-93238273D01*
X195834047Y-93357321D01*
X195834047Y-93416845D01*
X195774523Y-93535892D01*
X195715000Y-93595416D01*
X195595952Y-93654940D01*
X195357857Y-93654940D01*
X195238809Y-93714464D01*
X195179285Y-93773988D01*
X195119761Y-93893035D01*
X195119761Y-94131130D01*
X195179285Y-94250178D01*
X195238809Y-94309702D01*
X195357857Y-94369226D01*
X195595952Y-94369226D01*
X195715000Y-94309702D01*
X195774523Y-94250178D01*
X195834047Y-94131130D01*
X195834047Y-93893035D01*
X195774523Y-93773988D01*
X195715000Y-93714464D01*
X195595952Y-93654940D01*
X196548333Y-93654940D02*
X196429285Y-93595416D01*
X196369761Y-93535892D01*
X196310238Y-93416845D01*
X196310238Y-93357321D01*
X196369761Y-93238273D01*
X196429285Y-93178750D01*
X196548333Y-93119226D01*
X196786428Y-93119226D01*
X196905476Y-93178750D01*
X196965000Y-93238273D01*
X197024523Y-93357321D01*
X197024523Y-93416845D01*
X196965000Y-93535892D01*
X196905476Y-93595416D01*
X196786428Y-93654940D01*
X196548333Y-93654940D01*
X196429285Y-93714464D01*
X196369761Y-93773988D01*
X196310238Y-93893035D01*
X196310238Y-94131130D01*
X196369761Y-94250178D01*
X196429285Y-94309702D01*
X196548333Y-94369226D01*
X196786428Y-94369226D01*
X196905476Y-94309702D01*
X196965000Y-94250178D01*
X197024523Y-94131130D01*
X197024523Y-93893035D01*
X196965000Y-93773988D01*
X196905476Y-93714464D01*
X196786428Y-93654940D01*
D13*
%TO.C,U5*%
X182186022Y-110720000D02*
G75*
G03*
X182186022Y-110720000I-86022J0D01*
G01*
D14*
%TO.C,D1*%
X196510000Y-106840000D02*
X196510000Y-107340000D01*
X196510000Y-107340000D02*
X195810000Y-107340000D01*
D15*
%TO.C,SW1*%
X186580000Y-110040000D02*
G75*
G03*
X186580000Y-110040000I-100000J0D01*
G01*
D13*
X191680000Y-111640000D02*
X191680000Y-110640000D01*
X187480000Y-111640000D02*
X187480000Y-110640000D01*
X191680000Y-112760000D02*
X187480000Y-112760000D01*
X187480000Y-109520000D02*
X191680000Y-109520000D01*
D15*
%TO.C,U2*%
X178580000Y-97710000D02*
G75*
G03*
X178580000Y-97710000I-100000J0D01*
G01*
D13*
X178719000Y-98260000D02*
X178719000Y-101360000D01*
X176241000Y-98260000D02*
X176241000Y-101360000D01*
D14*
%TO.C,U4*%
X174910000Y-115110000D02*
G75*
G03*
X174910000Y-115110000I-50000J0D01*
G01*
X175860000Y-110360000D02*
X174860000Y-110360000D01*
X177860000Y-110360000D02*
X176860000Y-110360000D01*
X175860000Y-114860000D02*
X174860000Y-114860000D01*
X177860000Y-114860000D02*
X176860000Y-114860000D01*
D15*
%TO.C,U3*%
X188500000Y-96450000D02*
G75*
G03*
X188500000Y-96450000I-100000J0D01*
G01*
D13*
X191600000Y-98970000D02*
X190000000Y-98970000D01*
X190000000Y-95830000D02*
X191600000Y-95830000D01*
%TO.C,U1*%
X180500000Y-101500000D02*
X180500000Y-101980000D01*
X180500000Y-108500000D02*
X180500000Y-108020000D01*
X187500000Y-101500000D02*
X187500000Y-101980000D01*
X187500000Y-108500000D02*
X187500000Y-108020000D01*
X180500000Y-101500000D02*
X180980000Y-101500000D01*
X180500000Y-108500000D02*
X180980000Y-108500000D01*
X187500000Y-101500000D02*
X187020000Y-101500000D01*
X187500000Y-108500000D02*
X187020000Y-108500000D01*
D15*
X179625000Y-102400000D02*
G75*
G03*
X179625000Y-102400000I-100000J0D01*
G01*
D14*
%TO.C,R6*%
X180197500Y-112762742D02*
X180197500Y-113237258D01*
X181242500Y-112762742D02*
X181242500Y-113237258D01*
%TO.C,R5*%
X175817258Y-107927500D02*
X175342742Y-107927500D01*
X175817258Y-108972500D02*
X175342742Y-108972500D01*
%TO.C,R4*%
X185507500Y-98312742D02*
X185507500Y-98787258D01*
X186552500Y-98312742D02*
X186552500Y-98787258D01*
%TO.C,R3*%
X184007500Y-98312742D02*
X184007500Y-98787258D01*
X185052500Y-98312742D02*
X185052500Y-98787258D01*
%TO.C,R1*%
X179087500Y-99122742D02*
X179087500Y-99597258D01*
X180132500Y-99122742D02*
X180132500Y-99597258D01*
%TO.C,J2*%
X181290000Y-117700000D02*
X181290000Y-116370000D01*
X181290000Y-116370000D02*
X182620000Y-116370000D01*
X183890000Y-116370000D02*
X191570000Y-116370000D01*
X191570000Y-119030000D02*
X191570000Y-116370000D01*
X183890000Y-119030000D02*
X191570000Y-119030000D01*
X183890000Y-119030000D02*
X183890000Y-116370000D01*
%TO.C,J1*%
X188820000Y-90050000D02*
X188820000Y-90310000D01*
X188820000Y-92590000D02*
X188820000Y-94360000D01*
X188820000Y-94360000D02*
X188440000Y-94360000D01*
X181200000Y-94360000D02*
X181200000Y-92590000D01*
X181200000Y-90310000D02*
X181200000Y-90050000D01*
X181200000Y-94360000D02*
X181580000Y-94360000D01*
%TO.C,C20*%
X178590000Y-103159420D02*
X178590000Y-103440580D01*
X179610000Y-103159420D02*
X179610000Y-103440580D01*
%TO.C,C17*%
X178690000Y-112849420D02*
X178690000Y-113130580D01*
X179710000Y-112849420D02*
X179710000Y-113130580D01*
%TO.C,C16*%
X188390000Y-106849420D02*
X188390000Y-107130580D01*
X189410000Y-106849420D02*
X189410000Y-107130580D01*
%TO.C,C14*%
X174040000Y-112440580D02*
X174040000Y-112159420D01*
X173020000Y-112440580D02*
X173020000Y-112159420D01*
%TO.C,C13*%
X194739420Y-108990000D02*
X195020580Y-108990000D01*
X194739420Y-107970000D02*
X195020580Y-107970000D01*
%TO.C,C12*%
X189979420Y-104890000D02*
X190260580Y-104890000D01*
X189979420Y-103870000D02*
X190260580Y-103870000D01*
%TO.C,C10*%
X189499420Y-102900000D02*
X189780580Y-102900000D01*
X189499420Y-101880000D02*
X189780580Y-101880000D01*
%TO.C,C4*%
X193190000Y-97059420D02*
X193190000Y-97340580D01*
X194210000Y-97059420D02*
X194210000Y-97340580D01*
%TO.C,C1*%
X178590000Y-106659420D02*
X178590000Y-106940580D01*
X179610000Y-106659420D02*
X179610000Y-106940580D01*
%TD*%
M02*
