%TF.GenerationSoftware,KiCad,Pcbnew,(5.1.10)-1*%
%TF.CreationDate,2021-10-26T10:29:25+05:30*%
%TF.ProjectId,RP2040+BMI,52503230-3430-42b4-924d-492e6b696361,rev?*%
%TF.SameCoordinates,Original*%
%TF.FileFunction,Legend,Bot*%
%TF.FilePolarity,Positive*%
%FSLAX46Y46*%
G04 Gerber Fmt 4.6, Leading zero omitted, Abs format (unit mm)*
G04 Created by KiCad (PCBNEW (5.1.10)-1) date 2021-10-26 10:29:25*
%MOMM*%
%LPD*%
G01*
G04 APERTURE LIST*
%ADD10C,0.300000*%
%ADD11C,0.120000*%
G04 APERTURE END LIST*
D10*
X196137142Y-103703571D02*
X195280000Y-103703571D01*
X195708571Y-105203571D02*
X195708571Y-103703571D01*
X194780000Y-105203571D02*
X194780000Y-103703571D01*
X194137142Y-105203571D02*
X194137142Y-104417857D01*
X194208571Y-104275000D01*
X194351428Y-104203571D01*
X194565714Y-104203571D01*
X194708571Y-104275000D01*
X194780000Y-104346428D01*
X193422857Y-105203571D02*
X193422857Y-104203571D01*
X193422857Y-104489285D02*
X193351428Y-104346428D01*
X193280000Y-104275000D01*
X193137142Y-104203571D01*
X192994285Y-104203571D01*
X191922857Y-105132142D02*
X192065714Y-105203571D01*
X192351428Y-105203571D01*
X192494285Y-105132142D01*
X192565714Y-104989285D01*
X192565714Y-104417857D01*
X192494285Y-104275000D01*
X192351428Y-104203571D01*
X192065714Y-104203571D01*
X191922857Y-104275000D01*
X191851428Y-104417857D01*
X191851428Y-104560714D01*
X192565714Y-104703571D01*
X190637142Y-105132142D02*
X190780000Y-105203571D01*
X191065714Y-105203571D01*
X191208571Y-105132142D01*
X191280000Y-104989285D01*
X191280000Y-104417857D01*
X191208571Y-104275000D01*
X191065714Y-104203571D01*
X190780000Y-104203571D01*
X190637142Y-104275000D01*
X190565714Y-104417857D01*
X190565714Y-104560714D01*
X191280000Y-104703571D01*
X195815714Y-107753571D02*
X195815714Y-106253571D01*
X195244285Y-106253571D01*
X195101428Y-106325000D01*
X195030000Y-106396428D01*
X194958571Y-106539285D01*
X194958571Y-106753571D01*
X195030000Y-106896428D01*
X195101428Y-106967857D01*
X195244285Y-107039285D01*
X195815714Y-107039285D01*
X194101428Y-107753571D02*
X194244285Y-107682142D01*
X194315714Y-107610714D01*
X194387142Y-107467857D01*
X194387142Y-107039285D01*
X194315714Y-106896428D01*
X194244285Y-106825000D01*
X194101428Y-106753571D01*
X193887142Y-106753571D01*
X193744285Y-106825000D01*
X193672857Y-106896428D01*
X193601428Y-107039285D01*
X193601428Y-107467857D01*
X193672857Y-107610714D01*
X193744285Y-107682142D01*
X193887142Y-107753571D01*
X194101428Y-107753571D01*
X192958571Y-107753571D02*
X192958571Y-106753571D01*
X192958571Y-106253571D02*
X193030000Y-106325000D01*
X192958571Y-106396428D01*
X192887142Y-106325000D01*
X192958571Y-106253571D01*
X192958571Y-106396428D01*
X192244285Y-106753571D02*
X192244285Y-107753571D01*
X192244285Y-106896428D02*
X192172857Y-106825000D01*
X192030000Y-106753571D01*
X191815714Y-106753571D01*
X191672857Y-106825000D01*
X191601428Y-106967857D01*
X191601428Y-107753571D01*
X191101428Y-106753571D02*
X190530000Y-106753571D01*
X190887142Y-106253571D02*
X190887142Y-107539285D01*
X190815714Y-107682142D01*
X190672857Y-107753571D01*
X190530000Y-107753571D01*
X194744285Y-108803571D02*
X194458571Y-108803571D01*
X194315714Y-108875000D01*
X194172857Y-109017857D01*
X194101428Y-109303571D01*
X194101428Y-109803571D01*
X194172857Y-110089285D01*
X194315714Y-110232142D01*
X194458571Y-110303571D01*
X194744285Y-110303571D01*
X194887142Y-110232142D01*
X195030000Y-110089285D01*
X195101428Y-109803571D01*
X195101428Y-109303571D01*
X195030000Y-109017857D01*
X194887142Y-108875000D01*
X194744285Y-108803571D01*
X193458571Y-109303571D02*
X193458571Y-110303571D01*
X193458571Y-109446428D02*
X193387142Y-109375000D01*
X193244285Y-109303571D01*
X193030000Y-109303571D01*
X192887142Y-109375000D01*
X192815714Y-109517857D01*
X192815714Y-110303571D01*
X191530000Y-110232142D02*
X191672857Y-110303571D01*
X191958571Y-110303571D01*
X192101428Y-110232142D01*
X192172857Y-110089285D01*
X192172857Y-109517857D01*
X192101428Y-109375000D01*
X191958571Y-109303571D01*
X191672857Y-109303571D01*
X191530000Y-109375000D01*
X191458571Y-109517857D01*
X191458571Y-109660714D01*
X192172857Y-109803571D01*
X194887142Y-112067857D02*
X195387142Y-112067857D01*
X195387142Y-112853571D02*
X195387142Y-111353571D01*
X194672857Y-111353571D01*
X193887142Y-112853571D02*
X194030000Y-112782142D01*
X194101428Y-112710714D01*
X194172857Y-112567857D01*
X194172857Y-112139285D01*
X194101428Y-111996428D01*
X194030000Y-111925000D01*
X193887142Y-111853571D01*
X193672857Y-111853571D01*
X193530000Y-111925000D01*
X193458571Y-111996428D01*
X193387142Y-112139285D01*
X193387142Y-112567857D01*
X193458571Y-112710714D01*
X193530000Y-112782142D01*
X193672857Y-112853571D01*
X193887142Y-112853571D01*
X192101428Y-111853571D02*
X192101428Y-112853571D01*
X192744285Y-111853571D02*
X192744285Y-112639285D01*
X192672857Y-112782142D01*
X192530000Y-112853571D01*
X192315714Y-112853571D01*
X192172857Y-112782142D01*
X192101428Y-112710714D01*
X191387142Y-112853571D02*
X191387142Y-111853571D01*
X191387142Y-112139285D02*
X191315714Y-111996428D01*
X191244285Y-111925000D01*
X191101428Y-111853571D01*
X190958571Y-111853571D01*
D11*
%TO.C,R2*%
X184047500Y-110917258D02*
X184047500Y-110442742D01*
X185092500Y-110917258D02*
X185092500Y-110442742D01*
%TO.C,C19*%
X177640580Y-100410000D02*
X177359420Y-100410000D01*
X177640580Y-99390000D02*
X177359420Y-99390000D01*
%TO.C,C18*%
X186349420Y-106590000D02*
X186630580Y-106590000D01*
X186349420Y-107610000D02*
X186630580Y-107610000D01*
%TO.C,C15*%
X183610000Y-103859420D02*
X183610000Y-104140580D01*
X182590000Y-103859420D02*
X182590000Y-104140580D01*
%TO.C,C11*%
X182910580Y-107620000D02*
X182629420Y-107620000D01*
X182910580Y-106600000D02*
X182629420Y-106600000D01*
%TO.C,C9*%
X185490000Y-99240580D02*
X185490000Y-98959420D01*
X186510000Y-99240580D02*
X186510000Y-98959420D01*
%TO.C,C8*%
X186600000Y-103859420D02*
X186600000Y-104140580D01*
X185580000Y-103859420D02*
X185580000Y-104140580D01*
%TO.C,C7*%
X187010000Y-99190580D02*
X187010000Y-98909420D01*
X188030000Y-99190580D02*
X188030000Y-98909420D01*
%TO.C,C6*%
X184180000Y-114690580D02*
X184180000Y-114409420D01*
X185200000Y-114690580D02*
X185200000Y-114409420D01*
%TO.C,C5*%
X183690000Y-114389420D02*
X183690000Y-114670580D01*
X182670000Y-114389420D02*
X182670000Y-114670580D01*
%TO.C,C3*%
X189910000Y-97259420D02*
X189910000Y-97540580D01*
X188890000Y-97259420D02*
X188890000Y-97540580D01*
%TO.C,C2*%
X185110000Y-103859420D02*
X185110000Y-104140580D01*
X184090000Y-103859420D02*
X184090000Y-104140580D01*
%TD*%
M02*
