%TF.GenerationSoftware,KiCad,Pcbnew,(5.1.10)-1*%
%TF.CreationDate,2021-10-26T10:29:25+05:30*%
%TF.ProjectId,RP2040+BMI,52503230-3430-42b4-924d-492e6b696361,rev?*%
%TF.SameCoordinates,Original*%
%TF.FileFunction,Copper,L1,Top*%
%TF.FilePolarity,Positive*%
%FSLAX46Y46*%
G04 Gerber Fmt 4.6, Leading zero omitted, Abs format (unit mm)*
G04 Created by KiCad (PCBNEW (5.1.10)-1) date 2021-10-26 10:29:25*
%MOMM*%
%LPD*%
G01*
G04 APERTURE LIST*
%TA.AperFunction,SMDPad,CuDef*%
%ADD10R,0.980000X1.100000*%
%TD*%
%TA.AperFunction,SMDPad,CuDef*%
%ADD11R,0.700000X0.700000*%
%TD*%
%TA.AperFunction,SMDPad,CuDef*%
%ADD12R,1.050000X0.650000*%
%TD*%
%TA.AperFunction,SMDPad,CuDef*%
%ADD13R,1.600000X0.200000*%
%TD*%
%TA.AperFunction,SMDPad,CuDef*%
%ADD14R,0.350000X0.490000*%
%TD*%
%TA.AperFunction,SMDPad,CuDef*%
%ADD15R,0.250000X0.675000*%
%TD*%
%TA.AperFunction,SMDPad,CuDef*%
%ADD16R,0.675000X0.250000*%
%TD*%
%TA.AperFunction,SMDPad,CuDef*%
%ADD17R,1.350000X0.600000*%
%TD*%
%TA.AperFunction,SMDPad,CuDef*%
%ADD18R,3.100000X3.100000*%
%TD*%
%TA.AperFunction,ComponentPad*%
%ADD19O,1.700000X1.700000*%
%TD*%
%TA.AperFunction,ComponentPad*%
%ADD20R,1.700000X1.700000*%
%TD*%
%TA.AperFunction,SMDPad,CuDef*%
%ADD21R,1.000000X1.900000*%
%TD*%
%TA.AperFunction,SMDPad,CuDef*%
%ADD22R,1.800000X1.900000*%
%TD*%
%TA.AperFunction,SMDPad,CuDef*%
%ADD23R,1.650000X1.300000*%
%TD*%
%TA.AperFunction,SMDPad,CuDef*%
%ADD24R,1.425000X1.550000*%
%TD*%
%TA.AperFunction,SMDPad,CuDef*%
%ADD25R,0.450000X1.380000*%
%TD*%
%TA.AperFunction,ViaPad*%
%ADD26C,0.600000*%
%TD*%
%TA.AperFunction,ViaPad*%
%ADD27C,0.450000*%
%TD*%
%TA.AperFunction,Conductor*%
%ADD28C,0.200000*%
%TD*%
%TA.AperFunction,Conductor*%
%ADD29C,0.300000*%
%TD*%
%TA.AperFunction,Conductor*%
%ADD30C,0.500000*%
%TD*%
%TA.AperFunction,Conductor*%
%ADD31C,0.250000*%
%TD*%
%TA.AperFunction,Conductor*%
%ADD32C,0.254000*%
%TD*%
%TA.AperFunction,Conductor*%
%ADD33C,0.100000*%
%TD*%
G04 APERTURE END LIST*
D10*
%TO.P,U5,1*%
%TO.N,Net-(C5-Pad1)*%
X183000000Y-110870000D03*
%TO.P,U5,2*%
%TO.N,Net-(U5-Pad2)*%
X183000000Y-113070000D03*
%TO.P,U5,3*%
%TO.N,Net-(C6-Pad2)*%
X184700000Y-113070000D03*
%TO.P,U5,4*%
%TO.N,Net-(U5-Pad4)*%
X184700000Y-110870000D03*
%TD*%
D11*
%TO.P,D1,2*%
%TO.N,GND*%
X195925000Y-105490000D03*
%TO.P,D1,4*%
%TO.N,+3V3*%
X194095000Y-106590000D03*
%TO.P,D1,1*%
%TO.N,Net-(D1-Pad1)*%
X195925000Y-106590000D03*
%TO.P,D1,3*%
%TO.N,/LED*%
X194095000Y-105490000D03*
%TD*%
D12*
%TO.P,SW1,1*%
%TO.N,/RST*%
X187505000Y-110065000D03*
%TO.P,SW1,2*%
X191655000Y-110065000D03*
%TO.P,SW1,3*%
%TO.N,GND*%
X187505000Y-112215000D03*
%TO.P,SW1,4*%
X191655000Y-112215000D03*
%TD*%
D13*
%TO.P,U2,EP*%
%TO.N,Net-(U2-PadEP)*%
X177480000Y-99810000D03*
D14*
%TO.P,U2,8*%
%TO.N,+3V3*%
X178230000Y-101030000D03*
%TO.P,U2,7*%
%TO.N,/QSPI_IO3*%
X177730000Y-101030000D03*
%TO.P,U2,6*%
%TO.N,/SCK*%
X177230000Y-101030000D03*
%TO.P,U2,5*%
%TO.N,/QSPI_IO0*%
X176730000Y-101030000D03*
%TO.P,U2,4*%
%TO.N,GND*%
X176730000Y-98590000D03*
%TO.P,U2,3*%
%TO.N,/QSPI_IO2*%
X177230000Y-98590000D03*
%TO.P,U2,2*%
%TO.N,/QSPI_IO1*%
X177730000Y-98590000D03*
%TO.P,U2,1*%
%TO.N,/CS*%
X178230000Y-98590000D03*
%TD*%
D15*
%TO.P,U4,16*%
%TO.N,/Accel_INT*%
X176360000Y-114622500D03*
D16*
%TO.P,U4,4*%
%TO.N,GND*%
X175097500Y-112610000D03*
%TO.P,U4,3*%
%TO.N,+3V3*%
X175097500Y-113110000D03*
%TO.P,U4,2*%
%TO.N,GND*%
X175097500Y-113610000D03*
%TO.P,U4,1*%
%TO.N,Net-(U4-Pad1)*%
X175097500Y-114110000D03*
%TO.P,U4,5*%
%TO.N,Net-(U4-Pad5)*%
X175097500Y-112110000D03*
%TO.P,U4,6*%
%TO.N,GND*%
X175097500Y-111610000D03*
%TO.P,U4,7*%
%TO.N,+3V3*%
X175097500Y-111110000D03*
%TO.P,U4,14*%
X177622500Y-113610000D03*
%TO.P,U4,15*%
%TO.N,GND*%
X177622500Y-114110000D03*
%TO.P,U4,13*%
%TO.N,Net-(U4-Pad1)*%
X177622500Y-113110000D03*
%TO.P,U4,9*%
%TO.N,/SDA*%
X177622500Y-111110000D03*
%TO.P,U4,10*%
%TO.N,GND*%
X177622500Y-111610000D03*
D15*
%TO.P,U4,8*%
%TO.N,/SCL*%
X176360000Y-110597500D03*
D16*
%TO.P,U4,12*%
%TO.N,/Gyro_INT*%
X177622500Y-112610000D03*
%TO.P,U4,11*%
%TO.N,+3V3*%
X177622500Y-112110000D03*
%TD*%
D17*
%TO.P,U3,1*%
%TO.N,+5V*%
X189615000Y-96450000D03*
%TO.P,U3,2*%
%TO.N,GND*%
X189615000Y-97400000D03*
%TO.P,U3,3*%
%TO.N,+5V*%
X189615000Y-98350000D03*
%TO.P,U3,4*%
%TO.N,Net-(U3-Pad4)*%
X191985000Y-98350000D03*
%TO.P,U3,5*%
%TO.N,+3V3*%
X191985000Y-96450000D03*
%TD*%
D18*
%TO.P,U1,57*%
%TO.N,GND*%
X184000000Y-105000000D03*
%TO.P,U1,42*%
%TO.N,+3V3*%
%TA.AperFunction,SMDPad,CuDef*%
G36*
G01*
X187015000Y-102494000D02*
X187015000Y-102306000D01*
G75*
G02*
X187021000Y-102300000I6000J0D01*
G01*
X187849000Y-102300000D01*
G75*
G02*
X187855000Y-102306000I0J-6000D01*
G01*
X187855000Y-102494000D01*
G75*
G02*
X187849000Y-102500000I-6000J0D01*
G01*
X187021000Y-102500000D01*
G75*
G02*
X187015000Y-102494000I0J6000D01*
G01*
G37*
%TD.AperFunction*%
%TO.P,U1,41*%
%TO.N,N/C*%
%TA.AperFunction,SMDPad,CuDef*%
G36*
G01*
X187015000Y-102894000D02*
X187015000Y-102706000D01*
G75*
G02*
X187021000Y-102700000I6000J0D01*
G01*
X187849000Y-102700000D01*
G75*
G02*
X187855000Y-102706000I0J-6000D01*
G01*
X187855000Y-102894000D01*
G75*
G02*
X187849000Y-102900000I-6000J0D01*
G01*
X187021000Y-102900000D01*
G75*
G02*
X187015000Y-102894000I0J6000D01*
G01*
G37*
%TD.AperFunction*%
%TO.P,U1,40*%
%TA.AperFunction,SMDPad,CuDef*%
G36*
G01*
X187015000Y-103294000D02*
X187015000Y-103106000D01*
G75*
G02*
X187021000Y-103100000I6000J0D01*
G01*
X187849000Y-103100000D01*
G75*
G02*
X187855000Y-103106000I0J-6000D01*
G01*
X187855000Y-103294000D01*
G75*
G02*
X187849000Y-103300000I-6000J0D01*
G01*
X187021000Y-103300000D01*
G75*
G02*
X187015000Y-103294000I0J6000D01*
G01*
G37*
%TD.AperFunction*%
%TO.P,U1,39*%
%TA.AperFunction,SMDPad,CuDef*%
G36*
G01*
X187015000Y-103694000D02*
X187015000Y-103506000D01*
G75*
G02*
X187021000Y-103500000I6000J0D01*
G01*
X187849000Y-103500000D01*
G75*
G02*
X187855000Y-103506000I0J-6000D01*
G01*
X187855000Y-103694000D01*
G75*
G02*
X187849000Y-103700000I-6000J0D01*
G01*
X187021000Y-103700000D01*
G75*
G02*
X187015000Y-103694000I0J6000D01*
G01*
G37*
%TD.AperFunction*%
%TO.P,U1,38*%
%TA.AperFunction,SMDPad,CuDef*%
G36*
G01*
X187015000Y-104094000D02*
X187015000Y-103906000D01*
G75*
G02*
X187021000Y-103900000I6000J0D01*
G01*
X187849000Y-103900000D01*
G75*
G02*
X187855000Y-103906000I0J-6000D01*
G01*
X187855000Y-104094000D01*
G75*
G02*
X187849000Y-104100000I-6000J0D01*
G01*
X187021000Y-104100000D01*
G75*
G02*
X187015000Y-104094000I0J6000D01*
G01*
G37*
%TD.AperFunction*%
%TO.P,U1,37*%
%TO.N,Net-(U1-Pad37)*%
%TA.AperFunction,SMDPad,CuDef*%
G36*
G01*
X187015000Y-104494000D02*
X187015000Y-104306000D01*
G75*
G02*
X187021000Y-104300000I6000J0D01*
G01*
X187849000Y-104300000D01*
G75*
G02*
X187855000Y-104306000I0J-6000D01*
G01*
X187855000Y-104494000D01*
G75*
G02*
X187849000Y-104500000I-6000J0D01*
G01*
X187021000Y-104500000D01*
G75*
G02*
X187015000Y-104494000I0J6000D01*
G01*
G37*
%TD.AperFunction*%
%TO.P,U1,36*%
%TO.N,Net-(U1-Pad36)*%
%TA.AperFunction,SMDPad,CuDef*%
G36*
G01*
X187015000Y-104894000D02*
X187015000Y-104706000D01*
G75*
G02*
X187021000Y-104700000I6000J0D01*
G01*
X187849000Y-104700000D01*
G75*
G02*
X187855000Y-104706000I0J-6000D01*
G01*
X187855000Y-104894000D01*
G75*
G02*
X187849000Y-104900000I-6000J0D01*
G01*
X187021000Y-104900000D01*
G75*
G02*
X187015000Y-104894000I0J6000D01*
G01*
G37*
%TD.AperFunction*%
%TO.P,U1,35*%
%TO.N,Net-(U1-Pad35)*%
%TA.AperFunction,SMDPad,CuDef*%
G36*
G01*
X187015000Y-105294000D02*
X187015000Y-105106000D01*
G75*
G02*
X187021000Y-105100000I6000J0D01*
G01*
X187849000Y-105100000D01*
G75*
G02*
X187855000Y-105106000I0J-6000D01*
G01*
X187855000Y-105294000D01*
G75*
G02*
X187849000Y-105300000I-6000J0D01*
G01*
X187021000Y-105300000D01*
G75*
G02*
X187015000Y-105294000I0J6000D01*
G01*
G37*
%TD.AperFunction*%
%TO.P,U1,34*%
%TO.N,/LED*%
%TA.AperFunction,SMDPad,CuDef*%
G36*
G01*
X187015000Y-105694000D02*
X187015000Y-105506000D01*
G75*
G02*
X187021000Y-105500000I6000J0D01*
G01*
X187849000Y-105500000D01*
G75*
G02*
X187855000Y-105506000I0J-6000D01*
G01*
X187855000Y-105694000D01*
G75*
G02*
X187849000Y-105700000I-6000J0D01*
G01*
X187021000Y-105700000D01*
G75*
G02*
X187015000Y-105694000I0J6000D01*
G01*
G37*
%TD.AperFunction*%
%TO.P,U1,33*%
%TO.N,+3V3*%
%TA.AperFunction,SMDPad,CuDef*%
G36*
G01*
X187015000Y-106094000D02*
X187015000Y-105906000D01*
G75*
G02*
X187021000Y-105900000I6000J0D01*
G01*
X187849000Y-105900000D01*
G75*
G02*
X187855000Y-105906000I0J-6000D01*
G01*
X187855000Y-106094000D01*
G75*
G02*
X187849000Y-106100000I-6000J0D01*
G01*
X187021000Y-106100000D01*
G75*
G02*
X187015000Y-106094000I0J6000D01*
G01*
G37*
%TD.AperFunction*%
%TO.P,U1,32*%
%TO.N,Net-(U1-Pad32)*%
%TA.AperFunction,SMDPad,CuDef*%
G36*
G01*
X187015000Y-106494000D02*
X187015000Y-106306000D01*
G75*
G02*
X187021000Y-106300000I6000J0D01*
G01*
X187849000Y-106300000D01*
G75*
G02*
X187855000Y-106306000I0J-6000D01*
G01*
X187855000Y-106494000D01*
G75*
G02*
X187849000Y-106500000I-6000J0D01*
G01*
X187021000Y-106500000D01*
G75*
G02*
X187015000Y-106494000I0J6000D01*
G01*
G37*
%TD.AperFunction*%
%TO.P,U1,31*%
%TO.N,Net-(U1-Pad31)*%
%TA.AperFunction,SMDPad,CuDef*%
G36*
G01*
X187015000Y-106894000D02*
X187015000Y-106706000D01*
G75*
G02*
X187021000Y-106700000I6000J0D01*
G01*
X187849000Y-106700000D01*
G75*
G02*
X187855000Y-106706000I0J-6000D01*
G01*
X187855000Y-106894000D01*
G75*
G02*
X187849000Y-106900000I-6000J0D01*
G01*
X187021000Y-106900000D01*
G75*
G02*
X187015000Y-106894000I0J6000D01*
G01*
G37*
%TD.AperFunction*%
%TO.P,U1,30*%
%TO.N,Net-(U1-Pad30)*%
%TA.AperFunction,SMDPad,CuDef*%
G36*
G01*
X187015000Y-107294000D02*
X187015000Y-107106000D01*
G75*
G02*
X187021000Y-107100000I6000J0D01*
G01*
X187849000Y-107100000D01*
G75*
G02*
X187855000Y-107106000I0J-6000D01*
G01*
X187855000Y-107294000D01*
G75*
G02*
X187849000Y-107300000I-6000J0D01*
G01*
X187021000Y-107300000D01*
G75*
G02*
X187015000Y-107294000I0J6000D01*
G01*
G37*
%TD.AperFunction*%
%TO.P,U1,29*%
%TO.N,Net-(U1-Pad29)*%
%TA.AperFunction,SMDPad,CuDef*%
G36*
G01*
X187015000Y-107694000D02*
X187015000Y-107506000D01*
G75*
G02*
X187021000Y-107500000I6000J0D01*
G01*
X187849000Y-107500000D01*
G75*
G02*
X187855000Y-107506000I0J-6000D01*
G01*
X187855000Y-107694000D01*
G75*
G02*
X187849000Y-107700000I-6000J0D01*
G01*
X187021000Y-107700000D01*
G75*
G02*
X187015000Y-107694000I0J6000D01*
G01*
G37*
%TD.AperFunction*%
%TO.P,U1,14*%
%TO.N,Net-(U1-Pad14)*%
%TA.AperFunction,SMDPad,CuDef*%
G36*
G01*
X180145000Y-107694000D02*
X180145000Y-107506000D01*
G75*
G02*
X180151000Y-107500000I6000J0D01*
G01*
X180979000Y-107500000D01*
G75*
G02*
X180985000Y-107506000I0J-6000D01*
G01*
X180985000Y-107694000D01*
G75*
G02*
X180979000Y-107700000I-6000J0D01*
G01*
X180151000Y-107700000D01*
G75*
G02*
X180145000Y-107694000I0J6000D01*
G01*
G37*
%TD.AperFunction*%
%TO.P,U1,13*%
%TO.N,Net-(U1-Pad13)*%
%TA.AperFunction,SMDPad,CuDef*%
G36*
G01*
X180145000Y-107294000D02*
X180145000Y-107106000D01*
G75*
G02*
X180151000Y-107100000I6000J0D01*
G01*
X180979000Y-107100000D01*
G75*
G02*
X180985000Y-107106000I0J-6000D01*
G01*
X180985000Y-107294000D01*
G75*
G02*
X180979000Y-107300000I-6000J0D01*
G01*
X180151000Y-107300000D01*
G75*
G02*
X180145000Y-107294000I0J6000D01*
G01*
G37*
%TD.AperFunction*%
%TO.P,U1,12*%
%TO.N,Net-(U1-Pad12)*%
%TA.AperFunction,SMDPad,CuDef*%
G36*
G01*
X180145000Y-106894000D02*
X180145000Y-106706000D01*
G75*
G02*
X180151000Y-106700000I6000J0D01*
G01*
X180979000Y-106700000D01*
G75*
G02*
X180985000Y-106706000I0J-6000D01*
G01*
X180985000Y-106894000D01*
G75*
G02*
X180979000Y-106900000I-6000J0D01*
G01*
X180151000Y-106900000D01*
G75*
G02*
X180145000Y-106894000I0J6000D01*
G01*
G37*
%TD.AperFunction*%
%TO.P,U1,11*%
%TO.N,Net-(U1-Pad11)*%
%TA.AperFunction,SMDPad,CuDef*%
G36*
G01*
X180145000Y-106494000D02*
X180145000Y-106306000D01*
G75*
G02*
X180151000Y-106300000I6000J0D01*
G01*
X180979000Y-106300000D01*
G75*
G02*
X180985000Y-106306000I0J-6000D01*
G01*
X180985000Y-106494000D01*
G75*
G02*
X180979000Y-106500000I-6000J0D01*
G01*
X180151000Y-106500000D01*
G75*
G02*
X180145000Y-106494000I0J6000D01*
G01*
G37*
%TD.AperFunction*%
%TO.P,U1,10*%
%TO.N,+3V3*%
%TA.AperFunction,SMDPad,CuDef*%
G36*
G01*
X180145000Y-106094000D02*
X180145000Y-105906000D01*
G75*
G02*
X180151000Y-105900000I6000J0D01*
G01*
X180979000Y-105900000D01*
G75*
G02*
X180985000Y-105906000I0J-6000D01*
G01*
X180985000Y-106094000D01*
G75*
G02*
X180979000Y-106100000I-6000J0D01*
G01*
X180151000Y-106100000D01*
G75*
G02*
X180145000Y-106094000I0J6000D01*
G01*
G37*
%TD.AperFunction*%
%TO.P,U1,9*%
%TO.N,Net-(U1-Pad9)*%
%TA.AperFunction,SMDPad,CuDef*%
G36*
G01*
X180145000Y-105694000D02*
X180145000Y-105506000D01*
G75*
G02*
X180151000Y-105500000I6000J0D01*
G01*
X180979000Y-105500000D01*
G75*
G02*
X180985000Y-105506000I0J-6000D01*
G01*
X180985000Y-105694000D01*
G75*
G02*
X180979000Y-105700000I-6000J0D01*
G01*
X180151000Y-105700000D01*
G75*
G02*
X180145000Y-105694000I0J6000D01*
G01*
G37*
%TD.AperFunction*%
%TO.P,U1,8*%
%TO.N,Net-(U1-Pad8)*%
%TA.AperFunction,SMDPad,CuDef*%
G36*
G01*
X180145000Y-105294000D02*
X180145000Y-105106000D01*
G75*
G02*
X180151000Y-105100000I6000J0D01*
G01*
X180979000Y-105100000D01*
G75*
G02*
X180985000Y-105106000I0J-6000D01*
G01*
X180985000Y-105294000D01*
G75*
G02*
X180979000Y-105300000I-6000J0D01*
G01*
X180151000Y-105300000D01*
G75*
G02*
X180145000Y-105294000I0J6000D01*
G01*
G37*
%TD.AperFunction*%
%TO.P,U1,7*%
%TO.N,Net-(U1-Pad7)*%
%TA.AperFunction,SMDPad,CuDef*%
G36*
G01*
X180145000Y-104894000D02*
X180145000Y-104706000D01*
G75*
G02*
X180151000Y-104700000I6000J0D01*
G01*
X180979000Y-104700000D01*
G75*
G02*
X180985000Y-104706000I0J-6000D01*
G01*
X180985000Y-104894000D01*
G75*
G02*
X180979000Y-104900000I-6000J0D01*
G01*
X180151000Y-104900000D01*
G75*
G02*
X180145000Y-104894000I0J6000D01*
G01*
G37*
%TD.AperFunction*%
%TO.P,U1,6*%
%TO.N,Net-(U1-Pad6)*%
%TA.AperFunction,SMDPad,CuDef*%
G36*
G01*
X180145000Y-104494000D02*
X180145000Y-104306000D01*
G75*
G02*
X180151000Y-104300000I6000J0D01*
G01*
X180979000Y-104300000D01*
G75*
G02*
X180985000Y-104306000I0J-6000D01*
G01*
X180985000Y-104494000D01*
G75*
G02*
X180979000Y-104500000I-6000J0D01*
G01*
X180151000Y-104500000D01*
G75*
G02*
X180145000Y-104494000I0J6000D01*
G01*
G37*
%TD.AperFunction*%
%TO.P,U1,5*%
%TO.N,Net-(U1-Pad5)*%
%TA.AperFunction,SMDPad,CuDef*%
G36*
G01*
X180145000Y-104094000D02*
X180145000Y-103906000D01*
G75*
G02*
X180151000Y-103900000I6000J0D01*
G01*
X180979000Y-103900000D01*
G75*
G02*
X180985000Y-103906000I0J-6000D01*
G01*
X180985000Y-104094000D01*
G75*
G02*
X180979000Y-104100000I-6000J0D01*
G01*
X180151000Y-104100000D01*
G75*
G02*
X180145000Y-104094000I0J6000D01*
G01*
G37*
%TD.AperFunction*%
%TO.P,U1,4*%
%TO.N,Net-(U1-Pad4)*%
%TA.AperFunction,SMDPad,CuDef*%
G36*
G01*
X180145000Y-103694000D02*
X180145000Y-103506000D01*
G75*
G02*
X180151000Y-103500000I6000J0D01*
G01*
X180979000Y-103500000D01*
G75*
G02*
X180985000Y-103506000I0J-6000D01*
G01*
X180985000Y-103694000D01*
G75*
G02*
X180979000Y-103700000I-6000J0D01*
G01*
X180151000Y-103700000D01*
G75*
G02*
X180145000Y-103694000I0J6000D01*
G01*
G37*
%TD.AperFunction*%
%TO.P,U1,3*%
%TO.N,Net-(U1-Pad3)*%
%TA.AperFunction,SMDPad,CuDef*%
G36*
G01*
X180145000Y-103294000D02*
X180145000Y-103106000D01*
G75*
G02*
X180151000Y-103100000I6000J0D01*
G01*
X180979000Y-103100000D01*
G75*
G02*
X180985000Y-103106000I0J-6000D01*
G01*
X180985000Y-103294000D01*
G75*
G02*
X180979000Y-103300000I-6000J0D01*
G01*
X180151000Y-103300000D01*
G75*
G02*
X180145000Y-103294000I0J6000D01*
G01*
G37*
%TD.AperFunction*%
%TO.P,U1,2*%
%TO.N,Net-(U1-Pad2)*%
%TA.AperFunction,SMDPad,CuDef*%
G36*
G01*
X180145000Y-102894000D02*
X180145000Y-102706000D01*
G75*
G02*
X180151000Y-102700000I6000J0D01*
G01*
X180979000Y-102700000D01*
G75*
G02*
X180985000Y-102706000I0J-6000D01*
G01*
X180985000Y-102894000D01*
G75*
G02*
X180979000Y-102900000I-6000J0D01*
G01*
X180151000Y-102900000D01*
G75*
G02*
X180145000Y-102894000I0J6000D01*
G01*
G37*
%TD.AperFunction*%
%TO.P,U1,1*%
%TO.N,+3V3*%
%TA.AperFunction,SMDPad,CuDef*%
G36*
G01*
X180145000Y-102494000D02*
X180145000Y-102306000D01*
G75*
G02*
X180151000Y-102300000I6000J0D01*
G01*
X180979000Y-102300000D01*
G75*
G02*
X180985000Y-102306000I0J-6000D01*
G01*
X180985000Y-102494000D01*
G75*
G02*
X180979000Y-102500000I-6000J0D01*
G01*
X180151000Y-102500000D01*
G75*
G02*
X180145000Y-102494000I0J6000D01*
G01*
G37*
%TD.AperFunction*%
%TO.P,U1,56*%
%TO.N,/CS*%
%TA.AperFunction,SMDPad,CuDef*%
G36*
G01*
X181300000Y-101965000D02*
X181300000Y-101165000D01*
G75*
G02*
X181320000Y-101145000I20000J0D01*
G01*
X181480000Y-101145000D01*
G75*
G02*
X181500000Y-101165000I0J-20000D01*
G01*
X181500000Y-101965000D01*
G75*
G02*
X181480000Y-101985000I-20000J0D01*
G01*
X181320000Y-101985000D01*
G75*
G02*
X181300000Y-101965000I0J20000D01*
G01*
G37*
%TD.AperFunction*%
%TO.P,U1,55*%
%TO.N,/QSPI_IO1*%
%TA.AperFunction,SMDPad,CuDef*%
G36*
G01*
X181700000Y-101965000D02*
X181700000Y-101165000D01*
G75*
G02*
X181720000Y-101145000I20000J0D01*
G01*
X181880000Y-101145000D01*
G75*
G02*
X181900000Y-101165000I0J-20000D01*
G01*
X181900000Y-101965000D01*
G75*
G02*
X181880000Y-101985000I-20000J0D01*
G01*
X181720000Y-101985000D01*
G75*
G02*
X181700000Y-101965000I0J20000D01*
G01*
G37*
%TD.AperFunction*%
%TO.P,U1,54*%
%TO.N,/QSPI_IO2*%
%TA.AperFunction,SMDPad,CuDef*%
G36*
G01*
X182100000Y-101965000D02*
X182100000Y-101165000D01*
G75*
G02*
X182120000Y-101145000I20000J0D01*
G01*
X182280000Y-101145000D01*
G75*
G02*
X182300000Y-101165000I0J-20000D01*
G01*
X182300000Y-101965000D01*
G75*
G02*
X182280000Y-101985000I-20000J0D01*
G01*
X182120000Y-101985000D01*
G75*
G02*
X182100000Y-101965000I0J20000D01*
G01*
G37*
%TD.AperFunction*%
%TO.P,U1,53*%
%TO.N,/QSPI_IO0*%
%TA.AperFunction,SMDPad,CuDef*%
G36*
G01*
X182500000Y-101965000D02*
X182500000Y-101165000D01*
G75*
G02*
X182520000Y-101145000I20000J0D01*
G01*
X182680000Y-101145000D01*
G75*
G02*
X182700000Y-101165000I0J-20000D01*
G01*
X182700000Y-101965000D01*
G75*
G02*
X182680000Y-101985000I-20000J0D01*
G01*
X182520000Y-101985000D01*
G75*
G02*
X182500000Y-101965000I0J20000D01*
G01*
G37*
%TD.AperFunction*%
%TO.P,U1,52*%
%TO.N,/SCK*%
%TA.AperFunction,SMDPad,CuDef*%
G36*
G01*
X182900000Y-101965000D02*
X182900000Y-101165000D01*
G75*
G02*
X182920000Y-101145000I20000J0D01*
G01*
X183080000Y-101145000D01*
G75*
G02*
X183100000Y-101165000I0J-20000D01*
G01*
X183100000Y-101965000D01*
G75*
G02*
X183080000Y-101985000I-20000J0D01*
G01*
X182920000Y-101985000D01*
G75*
G02*
X182900000Y-101965000I0J20000D01*
G01*
G37*
%TD.AperFunction*%
%TO.P,U1,51*%
%TO.N,/QSPI_IO3*%
%TA.AperFunction,SMDPad,CuDef*%
G36*
G01*
X183300000Y-101965000D02*
X183300000Y-101165000D01*
G75*
G02*
X183320000Y-101145000I20000J0D01*
G01*
X183480000Y-101145000D01*
G75*
G02*
X183500000Y-101165000I0J-20000D01*
G01*
X183500000Y-101965000D01*
G75*
G02*
X183480000Y-101985000I-20000J0D01*
G01*
X183320000Y-101985000D01*
G75*
G02*
X183300000Y-101965000I0J20000D01*
G01*
G37*
%TD.AperFunction*%
%TO.P,U1,50*%
%TO.N,+1V1*%
%TA.AperFunction,SMDPad,CuDef*%
G36*
G01*
X183700000Y-101965000D02*
X183700000Y-101165000D01*
G75*
G02*
X183720000Y-101145000I20000J0D01*
G01*
X183880000Y-101145000D01*
G75*
G02*
X183900000Y-101165000I0J-20000D01*
G01*
X183900000Y-101965000D01*
G75*
G02*
X183880000Y-101985000I-20000J0D01*
G01*
X183720000Y-101985000D01*
G75*
G02*
X183700000Y-101965000I0J20000D01*
G01*
G37*
%TD.AperFunction*%
%TO.P,U1,49*%
%TO.N,+3V3*%
%TA.AperFunction,SMDPad,CuDef*%
G36*
G01*
X184100000Y-101965000D02*
X184100000Y-101165000D01*
G75*
G02*
X184120000Y-101145000I20000J0D01*
G01*
X184280000Y-101145000D01*
G75*
G02*
X184300000Y-101165000I0J-20000D01*
G01*
X184300000Y-101965000D01*
G75*
G02*
X184280000Y-101985000I-20000J0D01*
G01*
X184120000Y-101985000D01*
G75*
G02*
X184100000Y-101965000I0J20000D01*
G01*
G37*
%TD.AperFunction*%
%TO.P,U1,48*%
%TA.AperFunction,SMDPad,CuDef*%
G36*
G01*
X184500000Y-101965000D02*
X184500000Y-101165000D01*
G75*
G02*
X184520000Y-101145000I20000J0D01*
G01*
X184680000Y-101145000D01*
G75*
G02*
X184700000Y-101165000I0J-20000D01*
G01*
X184700000Y-101965000D01*
G75*
G02*
X184680000Y-101985000I-20000J0D01*
G01*
X184520000Y-101985000D01*
G75*
G02*
X184500000Y-101965000I0J20000D01*
G01*
G37*
%TD.AperFunction*%
%TO.P,U1,47*%
%TO.N,Net-(R3-Pad2)*%
%TA.AperFunction,SMDPad,CuDef*%
G36*
G01*
X184900000Y-101965000D02*
X184900000Y-101165000D01*
G75*
G02*
X184920000Y-101145000I20000J0D01*
G01*
X185080000Y-101145000D01*
G75*
G02*
X185100000Y-101165000I0J-20000D01*
G01*
X185100000Y-101965000D01*
G75*
G02*
X185080000Y-101985000I-20000J0D01*
G01*
X184920000Y-101985000D01*
G75*
G02*
X184900000Y-101965000I0J20000D01*
G01*
G37*
%TD.AperFunction*%
%TO.P,U1,46*%
%TO.N,Net-(R4-Pad2)*%
%TA.AperFunction,SMDPad,CuDef*%
G36*
G01*
X185300000Y-101965000D02*
X185300000Y-101165000D01*
G75*
G02*
X185320000Y-101145000I20000J0D01*
G01*
X185480000Y-101145000D01*
G75*
G02*
X185500000Y-101165000I0J-20000D01*
G01*
X185500000Y-101965000D01*
G75*
G02*
X185480000Y-101985000I-20000J0D01*
G01*
X185320000Y-101985000D01*
G75*
G02*
X185300000Y-101965000I0J20000D01*
G01*
G37*
%TD.AperFunction*%
%TO.P,U1,45*%
%TO.N,+1V1*%
%TA.AperFunction,SMDPad,CuDef*%
G36*
G01*
X185700000Y-101965000D02*
X185700000Y-101165000D01*
G75*
G02*
X185720000Y-101145000I20000J0D01*
G01*
X185880000Y-101145000D01*
G75*
G02*
X185900000Y-101165000I0J-20000D01*
G01*
X185900000Y-101965000D01*
G75*
G02*
X185880000Y-101985000I-20000J0D01*
G01*
X185720000Y-101985000D01*
G75*
G02*
X185700000Y-101965000I0J20000D01*
G01*
G37*
%TD.AperFunction*%
%TO.P,U1,44*%
%TO.N,+3V3*%
%TA.AperFunction,SMDPad,CuDef*%
G36*
G01*
X186100000Y-101965000D02*
X186100000Y-101165000D01*
G75*
G02*
X186120000Y-101145000I20000J0D01*
G01*
X186280000Y-101145000D01*
G75*
G02*
X186300000Y-101165000I0J-20000D01*
G01*
X186300000Y-101965000D01*
G75*
G02*
X186280000Y-101985000I-20000J0D01*
G01*
X186120000Y-101985000D01*
G75*
G02*
X186100000Y-101965000I0J20000D01*
G01*
G37*
%TD.AperFunction*%
%TO.P,U1,43*%
%TA.AperFunction,SMDPad,CuDef*%
G36*
G01*
X186500000Y-101965000D02*
X186500000Y-101165000D01*
G75*
G02*
X186520000Y-101145000I20000J0D01*
G01*
X186680000Y-101145000D01*
G75*
G02*
X186700000Y-101165000I0J-20000D01*
G01*
X186700000Y-101965000D01*
G75*
G02*
X186680000Y-101985000I-20000J0D01*
G01*
X186520000Y-101985000D01*
G75*
G02*
X186500000Y-101965000I0J20000D01*
G01*
G37*
%TD.AperFunction*%
%TO.P,U1,28*%
%TO.N,Net-(U1-Pad28)*%
%TA.AperFunction,SMDPad,CuDef*%
G36*
G01*
X186500000Y-108835000D02*
X186500000Y-108035000D01*
G75*
G02*
X186520000Y-108015000I20000J0D01*
G01*
X186680000Y-108015000D01*
G75*
G02*
X186700000Y-108035000I0J-20000D01*
G01*
X186700000Y-108835000D01*
G75*
G02*
X186680000Y-108855000I-20000J0D01*
G01*
X186520000Y-108855000D01*
G75*
G02*
X186500000Y-108835000I0J20000D01*
G01*
G37*
%TD.AperFunction*%
%TO.P,U1,27*%
%TO.N,Net-(U1-Pad27)*%
%TA.AperFunction,SMDPad,CuDef*%
G36*
G01*
X186100000Y-108835000D02*
X186100000Y-108035000D01*
G75*
G02*
X186120000Y-108015000I20000J0D01*
G01*
X186280000Y-108015000D01*
G75*
G02*
X186300000Y-108035000I0J-20000D01*
G01*
X186300000Y-108835000D01*
G75*
G02*
X186280000Y-108855000I-20000J0D01*
G01*
X186120000Y-108855000D01*
G75*
G02*
X186100000Y-108835000I0J20000D01*
G01*
G37*
%TD.AperFunction*%
%TO.P,U1,26*%
%TO.N,/RST*%
%TA.AperFunction,SMDPad,CuDef*%
G36*
G01*
X185700000Y-108835000D02*
X185700000Y-108035000D01*
G75*
G02*
X185720000Y-108015000I20000J0D01*
G01*
X185880000Y-108015000D01*
G75*
G02*
X185900000Y-108035000I0J-20000D01*
G01*
X185900000Y-108835000D01*
G75*
G02*
X185880000Y-108855000I-20000J0D01*
G01*
X185720000Y-108855000D01*
G75*
G02*
X185700000Y-108835000I0J20000D01*
G01*
G37*
%TD.AperFunction*%
%TO.P,U1,25*%
%TO.N,/SWD*%
%TA.AperFunction,SMDPad,CuDef*%
G36*
G01*
X185300000Y-108835000D02*
X185300000Y-108035000D01*
G75*
G02*
X185320000Y-108015000I20000J0D01*
G01*
X185480000Y-108015000D01*
G75*
G02*
X185500000Y-108035000I0J-20000D01*
G01*
X185500000Y-108835000D01*
G75*
G02*
X185480000Y-108855000I-20000J0D01*
G01*
X185320000Y-108855000D01*
G75*
G02*
X185300000Y-108835000I0J20000D01*
G01*
G37*
%TD.AperFunction*%
%TO.P,U1,24*%
%TO.N,/SWCLK*%
%TA.AperFunction,SMDPad,CuDef*%
G36*
G01*
X184900000Y-108835000D02*
X184900000Y-108035000D01*
G75*
G02*
X184920000Y-108015000I20000J0D01*
G01*
X185080000Y-108015000D01*
G75*
G02*
X185100000Y-108035000I0J-20000D01*
G01*
X185100000Y-108835000D01*
G75*
G02*
X185080000Y-108855000I-20000J0D01*
G01*
X184920000Y-108855000D01*
G75*
G02*
X184900000Y-108835000I0J20000D01*
G01*
G37*
%TD.AperFunction*%
%TO.P,U1,23*%
%TO.N,+1V1*%
%TA.AperFunction,SMDPad,CuDef*%
G36*
G01*
X184500000Y-108835000D02*
X184500000Y-108035000D01*
G75*
G02*
X184520000Y-108015000I20000J0D01*
G01*
X184680000Y-108015000D01*
G75*
G02*
X184700000Y-108035000I0J-20000D01*
G01*
X184700000Y-108835000D01*
G75*
G02*
X184680000Y-108855000I-20000J0D01*
G01*
X184520000Y-108855000D01*
G75*
G02*
X184500000Y-108835000I0J20000D01*
G01*
G37*
%TD.AperFunction*%
%TO.P,U1,22*%
%TO.N,+3V3*%
%TA.AperFunction,SMDPad,CuDef*%
G36*
G01*
X184100000Y-108835000D02*
X184100000Y-108035000D01*
G75*
G02*
X184120000Y-108015000I20000J0D01*
G01*
X184280000Y-108015000D01*
G75*
G02*
X184300000Y-108035000I0J-20000D01*
G01*
X184300000Y-108835000D01*
G75*
G02*
X184280000Y-108855000I-20000J0D01*
G01*
X184120000Y-108855000D01*
G75*
G02*
X184100000Y-108835000I0J20000D01*
G01*
G37*
%TD.AperFunction*%
%TO.P,U1,21*%
%TO.N,Net-(R2-Pad2)*%
%TA.AperFunction,SMDPad,CuDef*%
G36*
G01*
X183700000Y-108835000D02*
X183700000Y-108035000D01*
G75*
G02*
X183720000Y-108015000I20000J0D01*
G01*
X183880000Y-108015000D01*
G75*
G02*
X183900000Y-108035000I0J-20000D01*
G01*
X183900000Y-108835000D01*
G75*
G02*
X183880000Y-108855000I-20000J0D01*
G01*
X183720000Y-108855000D01*
G75*
G02*
X183700000Y-108835000I0J20000D01*
G01*
G37*
%TD.AperFunction*%
%TO.P,U1,20*%
%TO.N,Net-(C5-Pad1)*%
%TA.AperFunction,SMDPad,CuDef*%
G36*
G01*
X183300000Y-108835000D02*
X183300000Y-108035000D01*
G75*
G02*
X183320000Y-108015000I20000J0D01*
G01*
X183480000Y-108015000D01*
G75*
G02*
X183500000Y-108035000I0J-20000D01*
G01*
X183500000Y-108835000D01*
G75*
G02*
X183480000Y-108855000I-20000J0D01*
G01*
X183320000Y-108855000D01*
G75*
G02*
X183300000Y-108835000I0J20000D01*
G01*
G37*
%TD.AperFunction*%
%TO.P,U1,19*%
%TO.N,GND*%
%TA.AperFunction,SMDPad,CuDef*%
G36*
G01*
X182900000Y-108835000D02*
X182900000Y-108035000D01*
G75*
G02*
X182920000Y-108015000I20000J0D01*
G01*
X183080000Y-108015000D01*
G75*
G02*
X183100000Y-108035000I0J-20000D01*
G01*
X183100000Y-108835000D01*
G75*
G02*
X183080000Y-108855000I-20000J0D01*
G01*
X182920000Y-108855000D01*
G75*
G02*
X182900000Y-108835000I0J20000D01*
G01*
G37*
%TD.AperFunction*%
%TO.P,U1,18*%
%TO.N,Net-(U1-Pad18)*%
%TA.AperFunction,SMDPad,CuDef*%
G36*
G01*
X182500000Y-108835000D02*
X182500000Y-108035000D01*
G75*
G02*
X182520000Y-108015000I20000J0D01*
G01*
X182680000Y-108015000D01*
G75*
G02*
X182700000Y-108035000I0J-20000D01*
G01*
X182700000Y-108835000D01*
G75*
G02*
X182680000Y-108855000I-20000J0D01*
G01*
X182520000Y-108855000D01*
G75*
G02*
X182500000Y-108835000I0J20000D01*
G01*
G37*
%TD.AperFunction*%
%TO.P,U1,17*%
%TO.N,Net-(U1-Pad17)*%
%TA.AperFunction,SMDPad,CuDef*%
G36*
G01*
X182100000Y-108835000D02*
X182100000Y-108035000D01*
G75*
G02*
X182120000Y-108015000I20000J0D01*
G01*
X182280000Y-108015000D01*
G75*
G02*
X182300000Y-108035000I0J-20000D01*
G01*
X182300000Y-108835000D01*
G75*
G02*
X182280000Y-108855000I-20000J0D01*
G01*
X182120000Y-108855000D01*
G75*
G02*
X182100000Y-108835000I0J20000D01*
G01*
G37*
%TD.AperFunction*%
%TO.P,U1,16*%
%TO.N,/SCL*%
%TA.AperFunction,SMDPad,CuDef*%
G36*
G01*
X181700000Y-108835000D02*
X181700000Y-108035000D01*
G75*
G02*
X181720000Y-108015000I20000J0D01*
G01*
X181880000Y-108015000D01*
G75*
G02*
X181900000Y-108035000I0J-20000D01*
G01*
X181900000Y-108835000D01*
G75*
G02*
X181880000Y-108855000I-20000J0D01*
G01*
X181720000Y-108855000D01*
G75*
G02*
X181700000Y-108835000I0J20000D01*
G01*
G37*
%TD.AperFunction*%
%TO.P,U1,15*%
%TO.N,/SDA*%
%TA.AperFunction,SMDPad,CuDef*%
G36*
G01*
X181300000Y-108835000D02*
X181300000Y-108035000D01*
G75*
G02*
X181320000Y-108015000I20000J0D01*
G01*
X181480000Y-108015000D01*
G75*
G02*
X181500000Y-108035000I0J-20000D01*
G01*
X181500000Y-108835000D01*
G75*
G02*
X181480000Y-108855000I-20000J0D01*
G01*
X181320000Y-108855000D01*
G75*
G02*
X181300000Y-108835000I0J20000D01*
G01*
G37*
%TD.AperFunction*%
%TD*%
%TO.P,R6,2*%
%TO.N,+3V3*%
%TA.AperFunction,SMDPad,CuDef*%
G36*
G01*
X180445000Y-113425000D02*
X180995000Y-113425000D01*
G75*
G02*
X181195000Y-113625000I0J-200000D01*
G01*
X181195000Y-114025000D01*
G75*
G02*
X180995000Y-114225000I-200000J0D01*
G01*
X180445000Y-114225000D01*
G75*
G02*
X180245000Y-114025000I0J200000D01*
G01*
X180245000Y-113625000D01*
G75*
G02*
X180445000Y-113425000I200000J0D01*
G01*
G37*
%TD.AperFunction*%
%TO.P,R6,1*%
%TO.N,/SDA*%
%TA.AperFunction,SMDPad,CuDef*%
G36*
G01*
X180445000Y-111775000D02*
X180995000Y-111775000D01*
G75*
G02*
X181195000Y-111975000I0J-200000D01*
G01*
X181195000Y-112375000D01*
G75*
G02*
X180995000Y-112575000I-200000J0D01*
G01*
X180445000Y-112575000D01*
G75*
G02*
X180245000Y-112375000I0J200000D01*
G01*
X180245000Y-111975000D01*
G75*
G02*
X180445000Y-111775000I200000J0D01*
G01*
G37*
%TD.AperFunction*%
%TD*%
%TO.P,R5,2*%
%TO.N,+3V3*%
%TA.AperFunction,SMDPad,CuDef*%
G36*
G01*
X175155000Y-108175000D02*
X175155000Y-108725000D01*
G75*
G02*
X174955000Y-108925000I-200000J0D01*
G01*
X174555000Y-108925000D01*
G75*
G02*
X174355000Y-108725000I0J200000D01*
G01*
X174355000Y-108175000D01*
G75*
G02*
X174555000Y-107975000I200000J0D01*
G01*
X174955000Y-107975000D01*
G75*
G02*
X175155000Y-108175000I0J-200000D01*
G01*
G37*
%TD.AperFunction*%
%TO.P,R5,1*%
%TO.N,/SCL*%
%TA.AperFunction,SMDPad,CuDef*%
G36*
G01*
X176805000Y-108175000D02*
X176805000Y-108725000D01*
G75*
G02*
X176605000Y-108925000I-200000J0D01*
G01*
X176205000Y-108925000D01*
G75*
G02*
X176005000Y-108725000I0J200000D01*
G01*
X176005000Y-108175000D01*
G75*
G02*
X176205000Y-107975000I200000J0D01*
G01*
X176605000Y-107975000D01*
G75*
G02*
X176805000Y-108175000I0J-200000D01*
G01*
G37*
%TD.AperFunction*%
%TD*%
%TO.P,R4,2*%
%TO.N,Net-(R4-Pad2)*%
%TA.AperFunction,SMDPad,CuDef*%
G36*
G01*
X185755000Y-98975000D02*
X186305000Y-98975000D01*
G75*
G02*
X186505000Y-99175000I0J-200000D01*
G01*
X186505000Y-99575000D01*
G75*
G02*
X186305000Y-99775000I-200000J0D01*
G01*
X185755000Y-99775000D01*
G75*
G02*
X185555000Y-99575000I0J200000D01*
G01*
X185555000Y-99175000D01*
G75*
G02*
X185755000Y-98975000I200000J0D01*
G01*
G37*
%TD.AperFunction*%
%TO.P,R4,1*%
%TO.N,/D-*%
%TA.AperFunction,SMDPad,CuDef*%
G36*
G01*
X185755000Y-97325000D02*
X186305000Y-97325000D01*
G75*
G02*
X186505000Y-97525000I0J-200000D01*
G01*
X186505000Y-97925000D01*
G75*
G02*
X186305000Y-98125000I-200000J0D01*
G01*
X185755000Y-98125000D01*
G75*
G02*
X185555000Y-97925000I0J200000D01*
G01*
X185555000Y-97525000D01*
G75*
G02*
X185755000Y-97325000I200000J0D01*
G01*
G37*
%TD.AperFunction*%
%TD*%
%TO.P,R3,2*%
%TO.N,Net-(R3-Pad2)*%
%TA.AperFunction,SMDPad,CuDef*%
G36*
G01*
X184255000Y-98975000D02*
X184805000Y-98975000D01*
G75*
G02*
X185005000Y-99175000I0J-200000D01*
G01*
X185005000Y-99575000D01*
G75*
G02*
X184805000Y-99775000I-200000J0D01*
G01*
X184255000Y-99775000D01*
G75*
G02*
X184055000Y-99575000I0J200000D01*
G01*
X184055000Y-99175000D01*
G75*
G02*
X184255000Y-98975000I200000J0D01*
G01*
G37*
%TD.AperFunction*%
%TO.P,R3,1*%
%TO.N,/D+*%
%TA.AperFunction,SMDPad,CuDef*%
G36*
G01*
X184255000Y-97325000D02*
X184805000Y-97325000D01*
G75*
G02*
X185005000Y-97525000I0J-200000D01*
G01*
X185005000Y-97925000D01*
G75*
G02*
X184805000Y-98125000I-200000J0D01*
G01*
X184255000Y-98125000D01*
G75*
G02*
X184055000Y-97925000I0J200000D01*
G01*
X184055000Y-97525000D01*
G75*
G02*
X184255000Y-97325000I200000J0D01*
G01*
G37*
%TD.AperFunction*%
%TD*%
%TO.P,R1,2*%
%TO.N,+3V3*%
%TA.AperFunction,SMDPad,CuDef*%
G36*
G01*
X179335000Y-99785000D02*
X179885000Y-99785000D01*
G75*
G02*
X180085000Y-99985000I0J-200000D01*
G01*
X180085000Y-100385000D01*
G75*
G02*
X179885000Y-100585000I-200000J0D01*
G01*
X179335000Y-100585000D01*
G75*
G02*
X179135000Y-100385000I0J200000D01*
G01*
X179135000Y-99985000D01*
G75*
G02*
X179335000Y-99785000I200000J0D01*
G01*
G37*
%TD.AperFunction*%
%TO.P,R1,1*%
%TO.N,/CS*%
%TA.AperFunction,SMDPad,CuDef*%
G36*
G01*
X179335000Y-98135000D02*
X179885000Y-98135000D01*
G75*
G02*
X180085000Y-98335000I0J-200000D01*
G01*
X180085000Y-98735000D01*
G75*
G02*
X179885000Y-98935000I-200000J0D01*
G01*
X179335000Y-98935000D01*
G75*
G02*
X179135000Y-98735000I0J200000D01*
G01*
X179135000Y-98335000D01*
G75*
G02*
X179335000Y-98135000I200000J0D01*
G01*
G37*
%TD.AperFunction*%
%TD*%
D19*
%TO.P,J2,4*%
%TO.N,GND*%
X190240000Y-117700000D03*
%TO.P,J2,3*%
%TO.N,/SWD*%
X187700000Y-117700000D03*
%TO.P,J2,2*%
%TO.N,/SWCLK*%
X185160000Y-117700000D03*
D20*
%TO.P,J2,1*%
%TO.N,+3V3*%
X182620000Y-117700000D03*
%TD*%
D21*
%TO.P,J1,*%
%TO.N,*%
X183460000Y-91450000D03*
D22*
X186160000Y-91450000D03*
D23*
X181635000Y-91450000D03*
X188385000Y-91450000D03*
D24*
%TO.P,J1,6*%
%TO.N,Net-(J1-Pad6)*%
X182522500Y-94025000D03*
%TO.P,J1,*%
%TO.N,*%
X187497500Y-94025000D03*
D25*
%TO.P,J1,5*%
%TO.N,GND*%
X183710000Y-94110000D03*
%TO.P,J1,4*%
%TO.N,Net-(J1-Pad4)*%
X184360000Y-94110000D03*
%TO.P,J1,3*%
%TO.N,/D+*%
X185010000Y-94110000D03*
%TO.P,J1,2*%
%TO.N,/D-*%
X185660000Y-94110000D03*
%TO.P,J1,1*%
%TO.N,+5V*%
X186310000Y-94110000D03*
%TD*%
%TO.P,C20,2*%
%TO.N,GND*%
%TA.AperFunction,SMDPad,CuDef*%
G36*
G01*
X178850000Y-103625000D02*
X179350000Y-103625000D01*
G75*
G02*
X179575000Y-103850000I0J-225000D01*
G01*
X179575000Y-104300000D01*
G75*
G02*
X179350000Y-104525000I-225000J0D01*
G01*
X178850000Y-104525000D01*
G75*
G02*
X178625000Y-104300000I0J225000D01*
G01*
X178625000Y-103850000D01*
G75*
G02*
X178850000Y-103625000I225000J0D01*
G01*
G37*
%TD.AperFunction*%
%TO.P,C20,1*%
%TO.N,+3V3*%
%TA.AperFunction,SMDPad,CuDef*%
G36*
G01*
X178850000Y-102075000D02*
X179350000Y-102075000D01*
G75*
G02*
X179575000Y-102300000I0J-225000D01*
G01*
X179575000Y-102750000D01*
G75*
G02*
X179350000Y-102975000I-225000J0D01*
G01*
X178850000Y-102975000D01*
G75*
G02*
X178625000Y-102750000I0J225000D01*
G01*
X178625000Y-102300000D01*
G75*
G02*
X178850000Y-102075000I225000J0D01*
G01*
G37*
%TD.AperFunction*%
%TD*%
%TO.P,C17,2*%
%TO.N,GND*%
%TA.AperFunction,SMDPad,CuDef*%
G36*
G01*
X178950000Y-113315000D02*
X179450000Y-113315000D01*
G75*
G02*
X179675000Y-113540000I0J-225000D01*
G01*
X179675000Y-113990000D01*
G75*
G02*
X179450000Y-114215000I-225000J0D01*
G01*
X178950000Y-114215000D01*
G75*
G02*
X178725000Y-113990000I0J225000D01*
G01*
X178725000Y-113540000D01*
G75*
G02*
X178950000Y-113315000I225000J0D01*
G01*
G37*
%TD.AperFunction*%
%TO.P,C17,1*%
%TO.N,+3V3*%
%TA.AperFunction,SMDPad,CuDef*%
G36*
G01*
X178950000Y-111765000D02*
X179450000Y-111765000D01*
G75*
G02*
X179675000Y-111990000I0J-225000D01*
G01*
X179675000Y-112440000D01*
G75*
G02*
X179450000Y-112665000I-225000J0D01*
G01*
X178950000Y-112665000D01*
G75*
G02*
X178725000Y-112440000I0J225000D01*
G01*
X178725000Y-111990000D01*
G75*
G02*
X178950000Y-111765000I225000J0D01*
G01*
G37*
%TD.AperFunction*%
%TD*%
%TO.P,C16,2*%
%TO.N,GND*%
%TA.AperFunction,SMDPad,CuDef*%
G36*
G01*
X188650000Y-107315000D02*
X189150000Y-107315000D01*
G75*
G02*
X189375000Y-107540000I0J-225000D01*
G01*
X189375000Y-107990000D01*
G75*
G02*
X189150000Y-108215000I-225000J0D01*
G01*
X188650000Y-108215000D01*
G75*
G02*
X188425000Y-107990000I0J225000D01*
G01*
X188425000Y-107540000D01*
G75*
G02*
X188650000Y-107315000I225000J0D01*
G01*
G37*
%TD.AperFunction*%
%TO.P,C16,1*%
%TO.N,+3V3*%
%TA.AperFunction,SMDPad,CuDef*%
G36*
G01*
X188650000Y-105765000D02*
X189150000Y-105765000D01*
G75*
G02*
X189375000Y-105990000I0J-225000D01*
G01*
X189375000Y-106440000D01*
G75*
G02*
X189150000Y-106665000I-225000J0D01*
G01*
X188650000Y-106665000D01*
G75*
G02*
X188425000Y-106440000I0J225000D01*
G01*
X188425000Y-105990000D01*
G75*
G02*
X188650000Y-105765000I225000J0D01*
G01*
G37*
%TD.AperFunction*%
%TD*%
%TO.P,C14,2*%
%TO.N,GND*%
%TA.AperFunction,SMDPad,CuDef*%
G36*
G01*
X173780000Y-111975000D02*
X173280000Y-111975000D01*
G75*
G02*
X173055000Y-111750000I0J225000D01*
G01*
X173055000Y-111300000D01*
G75*
G02*
X173280000Y-111075000I225000J0D01*
G01*
X173780000Y-111075000D01*
G75*
G02*
X174005000Y-111300000I0J-225000D01*
G01*
X174005000Y-111750000D01*
G75*
G02*
X173780000Y-111975000I-225000J0D01*
G01*
G37*
%TD.AperFunction*%
%TO.P,C14,1*%
%TO.N,+3V3*%
%TA.AperFunction,SMDPad,CuDef*%
G36*
G01*
X173780000Y-113525000D02*
X173280000Y-113525000D01*
G75*
G02*
X173055000Y-113300000I0J225000D01*
G01*
X173055000Y-112850000D01*
G75*
G02*
X173280000Y-112625000I225000J0D01*
G01*
X173780000Y-112625000D01*
G75*
G02*
X174005000Y-112850000I0J-225000D01*
G01*
X174005000Y-113300000D01*
G75*
G02*
X173780000Y-113525000I-225000J0D01*
G01*
G37*
%TD.AperFunction*%
%TD*%
%TO.P,C13,2*%
%TO.N,GND*%
%TA.AperFunction,SMDPad,CuDef*%
G36*
G01*
X195205000Y-108730000D02*
X195205000Y-108230000D01*
G75*
G02*
X195430000Y-108005000I225000J0D01*
G01*
X195880000Y-108005000D01*
G75*
G02*
X196105000Y-108230000I0J-225000D01*
G01*
X196105000Y-108730000D01*
G75*
G02*
X195880000Y-108955000I-225000J0D01*
G01*
X195430000Y-108955000D01*
G75*
G02*
X195205000Y-108730000I0J225000D01*
G01*
G37*
%TD.AperFunction*%
%TO.P,C13,1*%
%TO.N,+3V3*%
%TA.AperFunction,SMDPad,CuDef*%
G36*
G01*
X193655000Y-108730000D02*
X193655000Y-108230000D01*
G75*
G02*
X193880000Y-108005000I225000J0D01*
G01*
X194330000Y-108005000D01*
G75*
G02*
X194555000Y-108230000I0J-225000D01*
G01*
X194555000Y-108730000D01*
G75*
G02*
X194330000Y-108955000I-225000J0D01*
G01*
X193880000Y-108955000D01*
G75*
G02*
X193655000Y-108730000I0J225000D01*
G01*
G37*
%TD.AperFunction*%
%TD*%
%TO.P,C12,2*%
%TO.N,GND*%
%TA.AperFunction,SMDPad,CuDef*%
G36*
G01*
X190445000Y-104630000D02*
X190445000Y-104130000D01*
G75*
G02*
X190670000Y-103905000I225000J0D01*
G01*
X191120000Y-103905000D01*
G75*
G02*
X191345000Y-104130000I0J-225000D01*
G01*
X191345000Y-104630000D01*
G75*
G02*
X191120000Y-104855000I-225000J0D01*
G01*
X190670000Y-104855000D01*
G75*
G02*
X190445000Y-104630000I0J225000D01*
G01*
G37*
%TD.AperFunction*%
%TO.P,C12,1*%
%TO.N,+3V3*%
%TA.AperFunction,SMDPad,CuDef*%
G36*
G01*
X188895000Y-104630000D02*
X188895000Y-104130000D01*
G75*
G02*
X189120000Y-103905000I225000J0D01*
G01*
X189570000Y-103905000D01*
G75*
G02*
X189795000Y-104130000I0J-225000D01*
G01*
X189795000Y-104630000D01*
G75*
G02*
X189570000Y-104855000I-225000J0D01*
G01*
X189120000Y-104855000D01*
G75*
G02*
X188895000Y-104630000I0J225000D01*
G01*
G37*
%TD.AperFunction*%
%TD*%
%TO.P,C10,2*%
%TO.N,GND*%
%TA.AperFunction,SMDPad,CuDef*%
G36*
G01*
X189965000Y-102640000D02*
X189965000Y-102140000D01*
G75*
G02*
X190190000Y-101915000I225000J0D01*
G01*
X190640000Y-101915000D01*
G75*
G02*
X190865000Y-102140000I0J-225000D01*
G01*
X190865000Y-102640000D01*
G75*
G02*
X190640000Y-102865000I-225000J0D01*
G01*
X190190000Y-102865000D01*
G75*
G02*
X189965000Y-102640000I0J225000D01*
G01*
G37*
%TD.AperFunction*%
%TO.P,C10,1*%
%TO.N,+3V3*%
%TA.AperFunction,SMDPad,CuDef*%
G36*
G01*
X188415000Y-102640000D02*
X188415000Y-102140000D01*
G75*
G02*
X188640000Y-101915000I225000J0D01*
G01*
X189090000Y-101915000D01*
G75*
G02*
X189315000Y-102140000I0J-225000D01*
G01*
X189315000Y-102640000D01*
G75*
G02*
X189090000Y-102865000I-225000J0D01*
G01*
X188640000Y-102865000D01*
G75*
G02*
X188415000Y-102640000I0J225000D01*
G01*
G37*
%TD.AperFunction*%
%TD*%
%TO.P,C4,2*%
%TO.N,GND*%
%TA.AperFunction,SMDPad,CuDef*%
G36*
G01*
X193450000Y-97525000D02*
X193950000Y-97525000D01*
G75*
G02*
X194175000Y-97750000I0J-225000D01*
G01*
X194175000Y-98200000D01*
G75*
G02*
X193950000Y-98425000I-225000J0D01*
G01*
X193450000Y-98425000D01*
G75*
G02*
X193225000Y-98200000I0J225000D01*
G01*
X193225000Y-97750000D01*
G75*
G02*
X193450000Y-97525000I225000J0D01*
G01*
G37*
%TD.AperFunction*%
%TO.P,C4,1*%
%TO.N,+3V3*%
%TA.AperFunction,SMDPad,CuDef*%
G36*
G01*
X193450000Y-95975000D02*
X193950000Y-95975000D01*
G75*
G02*
X194175000Y-96200000I0J-225000D01*
G01*
X194175000Y-96650000D01*
G75*
G02*
X193950000Y-96875000I-225000J0D01*
G01*
X193450000Y-96875000D01*
G75*
G02*
X193225000Y-96650000I0J225000D01*
G01*
X193225000Y-96200000D01*
G75*
G02*
X193450000Y-95975000I225000J0D01*
G01*
G37*
%TD.AperFunction*%
%TD*%
%TO.P,C1,2*%
%TO.N,GND*%
%TA.AperFunction,SMDPad,CuDef*%
G36*
G01*
X178850000Y-107125000D02*
X179350000Y-107125000D01*
G75*
G02*
X179575000Y-107350000I0J-225000D01*
G01*
X179575000Y-107800000D01*
G75*
G02*
X179350000Y-108025000I-225000J0D01*
G01*
X178850000Y-108025000D01*
G75*
G02*
X178625000Y-107800000I0J225000D01*
G01*
X178625000Y-107350000D01*
G75*
G02*
X178850000Y-107125000I225000J0D01*
G01*
G37*
%TD.AperFunction*%
%TO.P,C1,1*%
%TO.N,+3V3*%
%TA.AperFunction,SMDPad,CuDef*%
G36*
G01*
X178850000Y-105575000D02*
X179350000Y-105575000D01*
G75*
G02*
X179575000Y-105800000I0J-225000D01*
G01*
X179575000Y-106250000D01*
G75*
G02*
X179350000Y-106475000I-225000J0D01*
G01*
X178850000Y-106475000D01*
G75*
G02*
X178625000Y-106250000I0J225000D01*
G01*
X178625000Y-105800000D01*
G75*
G02*
X178850000Y-105575000I225000J0D01*
G01*
G37*
%TD.AperFunction*%
%TD*%
D26*
%TO.N,GND*%
X176100000Y-98570000D03*
X187490000Y-97440000D03*
X183740000Y-95260000D03*
X191430000Y-102410000D03*
X194640000Y-97990000D03*
X189410000Y-99140000D03*
X190810000Y-97370000D03*
X178100000Y-104000000D03*
X178100000Y-107600000D03*
X173530000Y-110650000D03*
X179200000Y-114740000D03*
D27*
X175790000Y-112600000D03*
X176960000Y-111630000D03*
D26*
X181870000Y-104980000D03*
X189830000Y-107800000D03*
X191830000Y-104420000D03*
X192590000Y-112230000D03*
X196650000Y-105460000D03*
X196640000Y-108430000D03*
D27*
X182610000Y-109250000D03*
D26*
%TO.N,+3V3*%
X184600000Y-102500000D03*
X186052646Y-100622646D03*
X186900000Y-100770000D03*
X194670000Y-96450000D03*
X179000000Y-101100000D03*
X178200000Y-102500000D03*
X178100000Y-106000000D03*
X173520000Y-113890000D03*
X175110000Y-110510000D03*
X184370000Y-107200000D03*
D27*
X188580000Y-104350000D03*
X189770000Y-106170000D03*
D26*
%TO.N,+5V*%
X188480000Y-95330000D03*
D27*
%TO.N,Net-(C5-Pad1)*%
X183000000Y-109820000D03*
D26*
%TO.N,+1V1*%
X183200000Y-102500000D03*
X185830000Y-102440000D03*
D27*
X185021902Y-107211436D03*
D26*
%TO.N,Net-(R2-Pad2)*%
X183770000Y-109510000D03*
%TO.N,/SCL*%
X181927000Y-109690000D03*
X176360000Y-109730000D03*
D27*
%TO.N,Net-(C6-Pad2)*%
X185460990Y-113060000D03*
%TD*%
D28*
%TO.N,GND*%
X176120000Y-98590000D02*
X176100000Y-98570000D01*
X176730000Y-98590000D02*
X176120000Y-98590000D01*
X183710000Y-95230000D02*
X183740000Y-95260000D01*
X183710000Y-94110000D02*
X183710000Y-95230000D01*
X191410000Y-102390000D02*
X191430000Y-102410000D01*
X190415000Y-102390000D02*
X191410000Y-102390000D01*
X194625000Y-97975000D02*
X194640000Y-97990000D01*
X193700000Y-97975000D02*
X194625000Y-97975000D01*
D29*
X190780000Y-97400000D02*
X190810000Y-97370000D01*
X189615000Y-97400000D02*
X190780000Y-97400000D01*
D28*
X178175000Y-104075000D02*
X178100000Y-104000000D01*
X179100000Y-104075000D02*
X178175000Y-104075000D01*
X178125000Y-107575000D02*
X178100000Y-107600000D01*
X179100000Y-107575000D02*
X178125000Y-107575000D01*
X173615000Y-111610000D02*
X173530000Y-111525000D01*
X175097500Y-111610000D02*
X173615000Y-111610000D01*
X173530000Y-111525000D02*
X173530000Y-110650000D01*
X179200000Y-113765000D02*
X179200000Y-114740000D01*
X177622500Y-114110000D02*
X178120000Y-114110000D01*
X178465000Y-113765000D02*
X179200000Y-113765000D01*
X178120000Y-114110000D02*
X178465000Y-113765000D01*
X175780000Y-112610000D02*
X175790000Y-112600000D01*
X175097500Y-112610000D02*
X175780000Y-112610000D01*
X176980000Y-111610000D02*
X176960000Y-111630000D01*
X177622500Y-111610000D02*
X176980000Y-111610000D01*
X175097500Y-113610000D02*
X175700000Y-113610000D01*
X175790000Y-113520000D02*
X175790000Y-112600000D01*
X175700000Y-113610000D02*
X175790000Y-113520000D01*
X181890000Y-105000000D02*
X181870000Y-104980000D01*
X184000000Y-105000000D02*
X181890000Y-105000000D01*
X189795000Y-107765000D02*
X189830000Y-107800000D01*
X188900000Y-107765000D02*
X189795000Y-107765000D01*
X191790000Y-104380000D02*
X191830000Y-104420000D01*
X190895000Y-104380000D02*
X191790000Y-104380000D01*
X191655000Y-112215000D02*
X187505000Y-112215000D01*
X192575000Y-112215000D02*
X192590000Y-112230000D01*
X191655000Y-112215000D02*
X192575000Y-112215000D01*
X196620000Y-105490000D02*
X196650000Y-105460000D01*
X195925000Y-105490000D02*
X196620000Y-105490000D01*
X196590000Y-108480000D02*
X196640000Y-108430000D01*
X195655000Y-108480000D02*
X196590000Y-108480000D01*
X182777990Y-109082010D02*
X182610000Y-109250000D01*
X182782316Y-109082010D02*
X182777990Y-109082010D01*
X183000000Y-108864326D02*
X182782316Y-109082010D01*
X183000000Y-108435000D02*
X183000000Y-108864326D01*
%TO.N,+3V3*%
X184600000Y-102500000D02*
X184600000Y-101565000D01*
X184200000Y-101565000D02*
X184600000Y-101565000D01*
X186200000Y-100770000D02*
X186200000Y-101565000D01*
X186052646Y-100622646D02*
X186200000Y-100770000D01*
X186600000Y-101070000D02*
X186900000Y-100770000D01*
X186600000Y-101565000D02*
X186600000Y-101070000D01*
X187445000Y-102390000D02*
X187435000Y-102400000D01*
X188865000Y-102390000D02*
X187445000Y-102390000D01*
D29*
X193675000Y-96450000D02*
X193700000Y-96425000D01*
X191985000Y-96450000D02*
X193675000Y-96450000D01*
X194645000Y-96425000D02*
X194670000Y-96450000D01*
X193700000Y-96425000D02*
X194645000Y-96425000D01*
D28*
X178930000Y-101030000D02*
X179000000Y-101100000D01*
X178230000Y-101030000D02*
X178930000Y-101030000D01*
X179610000Y-100185000D02*
X179610000Y-100890000D01*
X179400000Y-101100000D02*
X179000000Y-101100000D01*
X179610000Y-100890000D02*
X179400000Y-101100000D01*
X179100000Y-102525000D02*
X179875000Y-102525000D01*
X180000000Y-102400000D02*
X180565000Y-102400000D01*
X179875000Y-102525000D02*
X180000000Y-102400000D01*
X178225000Y-102525000D02*
X178200000Y-102500000D01*
X179100000Y-102525000D02*
X178225000Y-102525000D01*
X179125000Y-106000000D02*
X179100000Y-106025000D01*
X180565000Y-106000000D02*
X179125000Y-106000000D01*
X178125000Y-106025000D02*
X178100000Y-106000000D01*
X179100000Y-106025000D02*
X178125000Y-106025000D01*
X173565000Y-113110000D02*
X173530000Y-113075000D01*
X175097500Y-113110000D02*
X173565000Y-113110000D01*
X173530000Y-113880000D02*
X173520000Y-113890000D01*
X173530000Y-113075000D02*
X173530000Y-113880000D01*
X175097500Y-110522500D02*
X175110000Y-110510000D01*
X175097500Y-111110000D02*
X175097500Y-110522500D01*
X179095000Y-112110000D02*
X179200000Y-112215000D01*
X177622500Y-113610000D02*
X178110000Y-113610000D01*
X178360000Y-113360000D02*
X178360000Y-112110000D01*
X178110000Y-113610000D02*
X178360000Y-113360000D01*
X178360000Y-112110000D02*
X179095000Y-112110000D01*
X177622500Y-112110000D02*
X178360000Y-112110000D01*
X187435000Y-106000000D02*
X188100000Y-106000000D01*
X188315000Y-106215000D02*
X188900000Y-106215000D01*
X188100000Y-106000000D02*
X188315000Y-106215000D01*
X184200000Y-107370000D02*
X184370000Y-107200000D01*
X184200000Y-108435000D02*
X184200000Y-107370000D01*
X194105000Y-106600000D02*
X194095000Y-106590000D01*
X194105000Y-108480000D02*
X194105000Y-106600000D01*
X188865000Y-103900000D02*
X189345000Y-104380000D01*
X188865000Y-102390000D02*
X188865000Y-103900000D01*
X184370000Y-107200000D02*
X182440000Y-107200000D01*
X181002528Y-106000000D02*
X180565000Y-106000000D01*
X181092528Y-106090000D02*
X181002528Y-106000000D01*
X181330000Y-106090000D02*
X181092528Y-106090000D01*
X182440000Y-107200000D02*
X181330000Y-106090000D01*
X180720000Y-113825000D02*
X180720000Y-113130000D01*
X180720000Y-113130000D02*
X180550000Y-112960000D01*
X180550000Y-112960000D02*
X179380000Y-112960000D01*
X179200000Y-112780000D02*
X179200000Y-112215000D01*
X179380000Y-112960000D02*
X179200000Y-112780000D01*
X188610000Y-104380000D02*
X188580000Y-104350000D01*
X189345000Y-104380000D02*
X188610000Y-104380000D01*
X188945000Y-106170000D02*
X188900000Y-106215000D01*
X189770000Y-106170000D02*
X188945000Y-106170000D01*
X186200000Y-101565000D02*
X186600000Y-101565000D01*
D30*
%TO.N,+5V*%
X189615000Y-96450000D02*
X189615000Y-95675000D01*
D29*
X186310000Y-94110000D02*
X186310000Y-95180000D01*
X186310000Y-95180000D02*
X186460000Y-95330000D01*
X186460000Y-95330000D02*
X186780000Y-95330000D01*
D30*
X189270000Y-95330000D02*
X189615000Y-95675000D01*
X188480000Y-97918602D02*
X188911398Y-98350000D01*
X188480000Y-95330000D02*
X188480000Y-97918602D01*
X186780000Y-95330000D02*
X188480000Y-95330000D01*
X188911398Y-98350000D02*
X189615000Y-98350000D01*
X188480000Y-95330000D02*
X189270000Y-95330000D01*
D28*
%TO.N,Net-(C5-Pad1)*%
X183000000Y-109528962D02*
X183240000Y-109288962D01*
X183400000Y-108926787D02*
X183400000Y-108435000D01*
X183240000Y-109086787D02*
X183400000Y-108926787D01*
X183240000Y-109288962D02*
X183240000Y-109086787D01*
X183000000Y-109820000D02*
X183000000Y-109528962D01*
X183000000Y-110870000D02*
X183000000Y-109820000D01*
%TO.N,+1V1*%
X183800000Y-101565000D02*
X183800000Y-102200000D01*
X183500000Y-102500000D02*
X183200000Y-102500000D01*
X183800000Y-102200000D02*
X183500000Y-102500000D01*
X185800000Y-102410000D02*
X185830000Y-102440000D01*
X185800000Y-101565000D02*
X185800000Y-102410000D01*
X185021902Y-107328060D02*
X185021902Y-107211436D01*
X184600000Y-107749962D02*
X185021902Y-107328060D01*
X184600000Y-108435000D02*
X184600000Y-107749962D01*
X183200000Y-102500000D02*
X183200000Y-103020000D01*
X183200000Y-103020000D02*
X183300000Y-103120000D01*
X183300000Y-103120000D02*
X185590000Y-103120000D01*
X185830000Y-102880000D02*
X185830000Y-102440000D01*
X185590000Y-103120000D02*
X185830000Y-102880000D01*
X185021902Y-107211436D02*
X185778564Y-107211436D01*
X185830000Y-107160000D02*
X185830000Y-102440000D01*
X185778564Y-107211436D02*
X185830000Y-107160000D01*
%TO.N,/LED*%
X187435000Y-105600000D02*
X188260000Y-105600000D01*
X188370000Y-105490000D02*
X194095000Y-105490000D01*
X188260000Y-105600000D02*
X188370000Y-105490000D01*
%TO.N,/D+*%
X185010000Y-94110000D02*
X185010000Y-96030000D01*
X184530000Y-96510000D02*
X184530000Y-97725000D01*
X185010000Y-96030000D02*
X184530000Y-96510000D01*
D31*
%TO.N,/D-*%
X185660000Y-94240000D02*
X185759999Y-94339999D01*
X185660000Y-94110000D02*
X185660000Y-94240000D01*
D28*
X185660000Y-94110000D02*
X185660000Y-95950000D01*
X186030000Y-96320000D02*
X186030000Y-97725000D01*
X185660000Y-95950000D02*
X186030000Y-96320000D01*
%TO.N,/SWCLK*%
X185160000Y-117700000D02*
X185160000Y-116660000D01*
X185160000Y-117700000D02*
X185160000Y-116360000D01*
X185000000Y-109654921D02*
X185000000Y-108435000D01*
X185912990Y-110567911D02*
X185000000Y-109654921D01*
X185912990Y-115607010D02*
X185912990Y-110567911D01*
X185160000Y-116360000D02*
X185912990Y-115607010D01*
%TO.N,/SWD*%
X185400000Y-109592461D02*
X186240000Y-110432461D01*
X185400000Y-108435000D02*
X185400000Y-109592461D01*
X186240000Y-116240000D02*
X187700000Y-117700000D01*
X186240000Y-110432461D02*
X186240000Y-116240000D01*
%TO.N,/CS*%
X178230000Y-98590000D02*
X178230000Y-97860000D01*
X178230000Y-97860000D02*
X178300000Y-97790000D01*
X181400000Y-101032436D02*
X181400000Y-101565000D01*
X181410000Y-101022436D02*
X181400000Y-101032436D01*
X181410000Y-98030000D02*
X181410000Y-101022436D01*
X181170000Y-97790000D02*
X181410000Y-98030000D01*
X179610000Y-97840000D02*
X179660000Y-97790000D01*
X179610000Y-98535000D02*
X179610000Y-97840000D01*
X179660000Y-97790000D02*
X181170000Y-97790000D01*
X178300000Y-97790000D02*
X179660000Y-97790000D01*
%TO.N,Net-(R2-Pad2)*%
X183770000Y-108465000D02*
X183800000Y-108435000D01*
X183770000Y-109510000D02*
X183770000Y-108465000D01*
%TO.N,Net-(R3-Pad2)*%
X185000000Y-101565000D02*
X185000000Y-100640000D01*
X184530000Y-100170000D02*
X184530000Y-99375000D01*
X185000000Y-100640000D02*
X184530000Y-100170000D01*
%TO.N,Net-(R4-Pad2)*%
X185400000Y-101565000D02*
X185400000Y-100530000D01*
X186030000Y-99900000D02*
X186030000Y-99375000D01*
X185400000Y-100530000D02*
X186030000Y-99900000D01*
%TO.N,/SCL*%
X181800000Y-109563000D02*
X181927000Y-109690000D01*
X181800000Y-108435000D02*
X181800000Y-109563000D01*
X176360000Y-109730000D02*
X176360000Y-110597500D01*
X176405000Y-108450000D02*
X176405000Y-109655000D01*
X176360000Y-109700000D02*
X176360000Y-109730000D01*
X176405000Y-109655000D02*
X176360000Y-109700000D01*
%TO.N,/SDA*%
X177622500Y-111110000D02*
X180520000Y-111110000D01*
X181400000Y-110230000D02*
X181400000Y-108435000D01*
X180520000Y-111110000D02*
X181400000Y-110230000D01*
X180720000Y-111310000D02*
X180520000Y-111110000D01*
X180720000Y-112175000D02*
X180720000Y-111310000D01*
%TO.N,/RST*%
X185800000Y-108435000D02*
X185800000Y-109530000D01*
X186335000Y-110065000D02*
X187505000Y-110065000D01*
X185800000Y-109530000D02*
X186335000Y-110065000D01*
X187505000Y-110065000D02*
X191655000Y-110065000D01*
%TO.N,/QSPI_IO1*%
X181305451Y-97462990D02*
X177927010Y-97462990D01*
X181800000Y-97957539D02*
X181305451Y-97462990D01*
X181800000Y-101565000D02*
X181800000Y-97957539D01*
X177730000Y-97660000D02*
X177730000Y-98590000D01*
X177927010Y-97462990D02*
X177730000Y-97660000D01*
%TO.N,/QSPI_IO2*%
X181440902Y-97135980D02*
X177494020Y-97135980D01*
X182200000Y-97895078D02*
X181440902Y-97135980D01*
X182200000Y-101565000D02*
X182200000Y-97895078D01*
X177230000Y-97400000D02*
X177230000Y-98590000D01*
X177494020Y-97135980D02*
X177230000Y-97400000D01*
%TO.N,/QSPI_IO0*%
X182600000Y-97832617D02*
X181576353Y-96808970D01*
X181576353Y-96808970D02*
X175141030Y-96808970D01*
X182600000Y-101565000D02*
X182600000Y-97832617D01*
X175141030Y-96808970D02*
X174890000Y-97060000D01*
X174890000Y-97060000D02*
X174890000Y-100970000D01*
X174950000Y-101030000D02*
X176730000Y-101030000D01*
X174890000Y-100970000D02*
X174950000Y-101030000D01*
%TO.N,/SCK*%
X174562990Y-101105451D02*
X175137539Y-101680000D01*
X174562990Y-96924549D02*
X174562990Y-101105451D01*
X175005579Y-96481960D02*
X174562990Y-96924549D01*
X181711804Y-96481960D02*
X175005579Y-96481960D01*
X183000000Y-97770156D02*
X181711804Y-96481960D01*
X183000000Y-101565000D02*
X183000000Y-97770156D01*
X175137539Y-101680000D02*
X176960000Y-101680000D01*
X177230000Y-101410000D02*
X177230000Y-101030000D01*
X176960000Y-101680000D02*
X177230000Y-101410000D01*
%TO.N,/QSPI_IO3*%
X177730000Y-101530000D02*
X177730000Y-101030000D01*
X175002088Y-102007010D02*
X177252990Y-102007010D01*
X174235980Y-101240902D02*
X175002088Y-102007010D01*
X174235980Y-96789098D02*
X174235980Y-101240902D01*
X174870128Y-96154950D02*
X174235980Y-96789098D01*
X177252990Y-102007010D02*
X177730000Y-101530000D01*
X181847255Y-96154950D02*
X174870128Y-96154950D01*
X183400000Y-97707695D02*
X181847255Y-96154950D01*
X183400000Y-101565000D02*
X183400000Y-97707695D01*
%TO.N,Net-(U4-Pad1)*%
X177622500Y-113110000D02*
X176970000Y-113110000D01*
X175970000Y-114110000D02*
X175097500Y-114110000D01*
X176970000Y-113110000D02*
X175970000Y-114110000D01*
%TO.N,Net-(C6-Pad2)*%
X185450990Y-113070000D02*
X185460990Y-113060000D01*
X184700000Y-113070000D02*
X185450990Y-113070000D01*
%TD*%
D32*
%TO.N,+3V3*%
X193106928Y-106240000D02*
X193110000Y-106304250D01*
X193268750Y-106463000D01*
X193611248Y-106463000D01*
X193620518Y-106465812D01*
X193745000Y-106478072D01*
X194242000Y-106478072D01*
X194242000Y-106717000D01*
X194222000Y-106717000D01*
X194222000Y-107416250D01*
X194283250Y-107477500D01*
X194232000Y-107528750D01*
X194232000Y-108353000D01*
X194252000Y-108353000D01*
X194252000Y-108607000D01*
X194232000Y-108607000D01*
X194232000Y-109431250D01*
X194390750Y-109590000D01*
X194555000Y-109593072D01*
X194679482Y-109580812D01*
X194799180Y-109544502D01*
X194909494Y-109485537D01*
X194953649Y-109449300D01*
X195099717Y-109527375D01*
X195261623Y-109576488D01*
X195430000Y-109593072D01*
X195880000Y-109593072D01*
X196048377Y-109576488D01*
X196210283Y-109527375D01*
X196359497Y-109447618D01*
X196477286Y-109350952D01*
X196547911Y-109365000D01*
X196732089Y-109365000D01*
X196912729Y-109329068D01*
X197082889Y-109258586D01*
X197236028Y-109156262D01*
X197340001Y-109052289D01*
X197340001Y-118967711D01*
X197330420Y-119065424D01*
X197311420Y-119128357D01*
X197280554Y-119186406D01*
X197239011Y-119237343D01*
X197188356Y-119279248D01*
X197130529Y-119310515D01*
X197067728Y-119329956D01*
X196972165Y-119340000D01*
X173032279Y-119340000D01*
X172934576Y-119330420D01*
X172871643Y-119311420D01*
X172813594Y-119280554D01*
X172762657Y-119239011D01*
X172720752Y-119188356D01*
X172689485Y-119130529D01*
X172670044Y-119067728D01*
X172660000Y-118972165D01*
X172660000Y-118550000D01*
X181131928Y-118550000D01*
X181144188Y-118674482D01*
X181180498Y-118794180D01*
X181239463Y-118904494D01*
X181318815Y-119001185D01*
X181415506Y-119080537D01*
X181525820Y-119139502D01*
X181645518Y-119175812D01*
X181770000Y-119188072D01*
X182334250Y-119185000D01*
X182493000Y-119026250D01*
X182493000Y-117827000D01*
X181293750Y-117827000D01*
X181135000Y-117985750D01*
X181131928Y-118550000D01*
X172660000Y-118550000D01*
X172660000Y-116850000D01*
X181131928Y-116850000D01*
X181135000Y-117414250D01*
X181293750Y-117573000D01*
X182493000Y-117573000D01*
X182493000Y-116373750D01*
X182334250Y-116215000D01*
X181770000Y-116211928D01*
X181645518Y-116224188D01*
X181525820Y-116260498D01*
X181415506Y-116319463D01*
X181318815Y-116398815D01*
X181239463Y-116495506D01*
X181180498Y-116605820D01*
X181144188Y-116725518D01*
X181131928Y-116850000D01*
X172660000Y-116850000D01*
X172660000Y-114022295D01*
X172700506Y-114055537D01*
X172810820Y-114114502D01*
X172930518Y-114150812D01*
X173055000Y-114163072D01*
X173244250Y-114160000D01*
X173403000Y-114001250D01*
X173403000Y-113202000D01*
X173383000Y-113202000D01*
X173383000Y-112948000D01*
X173403000Y-112948000D01*
X173403000Y-112928000D01*
X173657000Y-112928000D01*
X173657000Y-112948000D01*
X173677000Y-112948000D01*
X173677000Y-113202000D01*
X173657000Y-113202000D01*
X173657000Y-114001250D01*
X173815750Y-114160000D01*
X174005000Y-114163072D01*
X174121928Y-114151556D01*
X174121928Y-114235000D01*
X174134188Y-114359482D01*
X174170498Y-114479180D01*
X174229463Y-114589494D01*
X174308815Y-114686185D01*
X174405506Y-114765537D01*
X174515820Y-114824502D01*
X174635518Y-114860812D01*
X174760000Y-114873072D01*
X175435000Y-114873072D01*
X175559482Y-114860812D01*
X175596928Y-114849453D01*
X175596928Y-114960000D01*
X175609188Y-115084482D01*
X175645498Y-115204180D01*
X175704463Y-115314494D01*
X175783815Y-115411185D01*
X175880506Y-115490537D01*
X175990820Y-115549502D01*
X176110518Y-115585812D01*
X176235000Y-115598072D01*
X176485000Y-115598072D01*
X176609482Y-115585812D01*
X176729180Y-115549502D01*
X176839494Y-115490537D01*
X176936185Y-115411185D01*
X177015537Y-115314494D01*
X177074502Y-115204180D01*
X177110812Y-115084482D01*
X177123072Y-114960000D01*
X177123072Y-114849453D01*
X177160518Y-114860812D01*
X177285000Y-114873072D01*
X177960000Y-114873072D01*
X178084482Y-114860812D01*
X178127233Y-114847844D01*
X178156105Y-114845000D01*
X178264085Y-114834365D01*
X178265375Y-114833974D01*
X178300932Y-115012729D01*
X178371414Y-115182889D01*
X178473738Y-115336028D01*
X178603972Y-115466262D01*
X178757111Y-115568586D01*
X178927271Y-115639068D01*
X179107911Y-115675000D01*
X179292089Y-115675000D01*
X179472729Y-115639068D01*
X179642889Y-115568586D01*
X179796028Y-115466262D01*
X179926262Y-115336028D01*
X180028586Y-115182889D01*
X180099068Y-115012729D01*
X180131069Y-114851851D01*
X180245000Y-114863072D01*
X180434250Y-114860000D01*
X180593000Y-114701250D01*
X180593000Y-113952000D01*
X180847000Y-113952000D01*
X180847000Y-114701250D01*
X181005750Y-114860000D01*
X181195000Y-114863072D01*
X181319482Y-114850812D01*
X181439180Y-114814502D01*
X181549494Y-114755537D01*
X181646185Y-114676185D01*
X181725537Y-114579494D01*
X181784502Y-114469180D01*
X181820812Y-114349482D01*
X181833072Y-114225000D01*
X181830000Y-114110750D01*
X181671250Y-113952000D01*
X180847000Y-113952000D01*
X180593000Y-113952000D01*
X180573000Y-113952000D01*
X180573000Y-113698000D01*
X180593000Y-113698000D01*
X180593000Y-113678000D01*
X180847000Y-113678000D01*
X180847000Y-113698000D01*
X181671250Y-113698000D01*
X181830000Y-113539250D01*
X181833072Y-113425000D01*
X181820812Y-113300518D01*
X181784502Y-113180820D01*
X181725537Y-113070506D01*
X181646185Y-112973815D01*
X181608137Y-112942590D01*
X181691831Y-112840608D01*
X181769278Y-112695716D01*
X181816969Y-112538500D01*
X181833072Y-112375000D01*
X181833072Y-111975000D01*
X181816969Y-111811500D01*
X181769278Y-111654284D01*
X181691831Y-111509392D01*
X181587606Y-111382394D01*
X181460608Y-111278169D01*
X181455133Y-111275242D01*
X181449670Y-111219777D01*
X181871928Y-110797519D01*
X181871928Y-111420000D01*
X181884188Y-111544482D01*
X181920498Y-111664180D01*
X181979463Y-111774494D01*
X182058815Y-111871185D01*
X182155506Y-111950537D01*
X182191918Y-111970000D01*
X182155506Y-111989463D01*
X182058815Y-112068815D01*
X181979463Y-112165506D01*
X181920498Y-112275820D01*
X181884188Y-112395518D01*
X181871928Y-112520000D01*
X181871928Y-113620000D01*
X181884188Y-113744482D01*
X181920498Y-113864180D01*
X181979463Y-113974494D01*
X182058815Y-114071185D01*
X182155506Y-114150537D01*
X182265820Y-114209502D01*
X182385518Y-114245812D01*
X182510000Y-114258072D01*
X183490000Y-114258072D01*
X183614482Y-114245812D01*
X183734180Y-114209502D01*
X183844494Y-114150537D01*
X183850000Y-114146018D01*
X183855506Y-114150537D01*
X183965820Y-114209502D01*
X184085518Y-114245812D01*
X184210000Y-114258072D01*
X185177990Y-114258072D01*
X185177990Y-115302563D01*
X184665808Y-115814746D01*
X184637763Y-115837762D01*
X184545914Y-115949680D01*
X184477664Y-116077367D01*
X184435635Y-116215915D01*
X184421444Y-116360000D01*
X184425001Y-116396115D01*
X184425001Y-116405116D01*
X184213368Y-116546525D01*
X184081513Y-116678380D01*
X184059502Y-116605820D01*
X184000537Y-116495506D01*
X183921185Y-116398815D01*
X183824494Y-116319463D01*
X183714180Y-116260498D01*
X183594482Y-116224188D01*
X183470000Y-116211928D01*
X182905750Y-116215000D01*
X182747000Y-116373750D01*
X182747000Y-117573000D01*
X182767000Y-117573000D01*
X182767000Y-117827000D01*
X182747000Y-117827000D01*
X182747000Y-119026250D01*
X182905750Y-119185000D01*
X183470000Y-119188072D01*
X183594482Y-119175812D01*
X183714180Y-119139502D01*
X183824494Y-119080537D01*
X183921185Y-119001185D01*
X184000537Y-118904494D01*
X184059502Y-118794180D01*
X184081513Y-118721620D01*
X184213368Y-118853475D01*
X184456589Y-119015990D01*
X184726842Y-119127932D01*
X185013740Y-119185000D01*
X185306260Y-119185000D01*
X185593158Y-119127932D01*
X185863411Y-119015990D01*
X186106632Y-118853475D01*
X186313475Y-118646632D01*
X186430000Y-118472240D01*
X186546525Y-118646632D01*
X186753368Y-118853475D01*
X186996589Y-119015990D01*
X187266842Y-119127932D01*
X187553740Y-119185000D01*
X187846260Y-119185000D01*
X188133158Y-119127932D01*
X188403411Y-119015990D01*
X188646632Y-118853475D01*
X188853475Y-118646632D01*
X188970000Y-118472240D01*
X189086525Y-118646632D01*
X189293368Y-118853475D01*
X189536589Y-119015990D01*
X189806842Y-119127932D01*
X190093740Y-119185000D01*
X190386260Y-119185000D01*
X190673158Y-119127932D01*
X190943411Y-119015990D01*
X191186632Y-118853475D01*
X191393475Y-118646632D01*
X191555990Y-118403411D01*
X191667932Y-118133158D01*
X191725000Y-117846260D01*
X191725000Y-117553740D01*
X191667932Y-117266842D01*
X191555990Y-116996589D01*
X191393475Y-116753368D01*
X191186632Y-116546525D01*
X190943411Y-116384010D01*
X190673158Y-116272068D01*
X190386260Y-116215000D01*
X190093740Y-116215000D01*
X189806842Y-116272068D01*
X189536589Y-116384010D01*
X189293368Y-116546525D01*
X189086525Y-116753368D01*
X188970000Y-116927760D01*
X188853475Y-116753368D01*
X188646632Y-116546525D01*
X188403411Y-116384010D01*
X188133158Y-116272068D01*
X187846260Y-116215000D01*
X187553740Y-116215000D01*
X187304103Y-116264656D01*
X186975000Y-115935554D01*
X186975000Y-113177580D01*
X186980000Y-113178072D01*
X188030000Y-113178072D01*
X188154482Y-113165812D01*
X188274180Y-113129502D01*
X188384494Y-113070537D01*
X188481185Y-112991185D01*
X188514985Y-112950000D01*
X190645015Y-112950000D01*
X190678815Y-112991185D01*
X190775506Y-113070537D01*
X190885820Y-113129502D01*
X191005518Y-113165812D01*
X191130000Y-113178072D01*
X192180000Y-113178072D01*
X192304482Y-113165812D01*
X192382704Y-113142084D01*
X192497911Y-113165000D01*
X192682089Y-113165000D01*
X192862729Y-113129068D01*
X193032889Y-113058586D01*
X193186028Y-112956262D01*
X193316262Y-112826028D01*
X193418586Y-112672889D01*
X193489068Y-112502729D01*
X193525000Y-112322089D01*
X193525000Y-112137911D01*
X193489068Y-111957271D01*
X193418586Y-111787111D01*
X193316262Y-111633972D01*
X193186028Y-111503738D01*
X193032889Y-111401414D01*
X192862729Y-111330932D01*
X192682089Y-111295000D01*
X192497911Y-111295000D01*
X192436680Y-111307180D01*
X192424180Y-111300498D01*
X192304482Y-111264188D01*
X192180000Y-111251928D01*
X191130000Y-111251928D01*
X191005518Y-111264188D01*
X190885820Y-111300498D01*
X190775506Y-111359463D01*
X190678815Y-111438815D01*
X190645015Y-111480000D01*
X188514985Y-111480000D01*
X188481185Y-111438815D01*
X188384494Y-111359463D01*
X188274180Y-111300498D01*
X188154482Y-111264188D01*
X188030000Y-111251928D01*
X186980000Y-111251928D01*
X186975000Y-111252420D01*
X186975000Y-111027580D01*
X186980000Y-111028072D01*
X188030000Y-111028072D01*
X188154482Y-111015812D01*
X188274180Y-110979502D01*
X188384494Y-110920537D01*
X188481185Y-110841185D01*
X188514985Y-110800000D01*
X190645015Y-110800000D01*
X190678815Y-110841185D01*
X190775506Y-110920537D01*
X190885820Y-110979502D01*
X191005518Y-111015812D01*
X191130000Y-111028072D01*
X192180000Y-111028072D01*
X192304482Y-111015812D01*
X192424180Y-110979502D01*
X192534494Y-110920537D01*
X192631185Y-110841185D01*
X192710537Y-110744494D01*
X192769502Y-110634180D01*
X192805812Y-110514482D01*
X192818072Y-110390000D01*
X192818072Y-109740000D01*
X192805812Y-109615518D01*
X192769502Y-109495820D01*
X192710537Y-109385506D01*
X192631185Y-109288815D01*
X192534494Y-109209463D01*
X192424180Y-109150498D01*
X192304482Y-109114188D01*
X192180000Y-109101928D01*
X191130000Y-109101928D01*
X191005518Y-109114188D01*
X190885820Y-109150498D01*
X190775506Y-109209463D01*
X190678815Y-109288815D01*
X190645015Y-109330000D01*
X188514985Y-109330000D01*
X188481185Y-109288815D01*
X188384494Y-109209463D01*
X188274180Y-109150498D01*
X188154482Y-109114188D01*
X188030000Y-109101928D01*
X187279911Y-109101928D01*
X187287979Y-109086833D01*
X187325427Y-108963383D01*
X187326252Y-108955000D01*
X193016928Y-108955000D01*
X193029188Y-109079482D01*
X193065498Y-109199180D01*
X193124463Y-109309494D01*
X193203815Y-109406185D01*
X193300506Y-109485537D01*
X193410820Y-109544502D01*
X193530518Y-109580812D01*
X193655000Y-109593072D01*
X193819250Y-109590000D01*
X193978000Y-109431250D01*
X193978000Y-108607000D01*
X193178750Y-108607000D01*
X193020000Y-108765750D01*
X193016928Y-108955000D01*
X187326252Y-108955000D01*
X187338072Y-108835000D01*
X187338072Y-108338072D01*
X187849000Y-108338072D01*
X187861477Y-108336843D01*
X187932382Y-108469497D01*
X188039716Y-108600284D01*
X188170503Y-108707618D01*
X188319717Y-108787375D01*
X188481623Y-108836488D01*
X188650000Y-108853072D01*
X189150000Y-108853072D01*
X189318377Y-108836488D01*
X189480283Y-108787375D01*
X189621566Y-108711857D01*
X189737911Y-108735000D01*
X189922089Y-108735000D01*
X190102729Y-108699068D01*
X190272889Y-108628586D01*
X190426028Y-108526262D01*
X190556262Y-108396028D01*
X190658586Y-108242889D01*
X190729068Y-108072729D01*
X190742540Y-108005000D01*
X193016928Y-108005000D01*
X193020000Y-108194250D01*
X193178750Y-108353000D01*
X193978000Y-108353000D01*
X193978000Y-107528750D01*
X193916750Y-107467500D01*
X193968000Y-107416250D01*
X193968000Y-106717000D01*
X193268750Y-106717000D01*
X193110000Y-106875750D01*
X193106928Y-106940000D01*
X193119188Y-107064482D01*
X193155498Y-107184180D01*
X193214463Y-107294494D01*
X193293815Y-107391185D01*
X193357905Y-107443782D01*
X193300506Y-107474463D01*
X193203815Y-107553815D01*
X193124463Y-107650506D01*
X193065498Y-107760820D01*
X193029188Y-107880518D01*
X193016928Y-108005000D01*
X190742540Y-108005000D01*
X190765000Y-107892089D01*
X190765000Y-107707911D01*
X190729068Y-107527271D01*
X190658586Y-107357111D01*
X190556262Y-107203972D01*
X190426028Y-107073738D01*
X190272889Y-106971414D01*
X190102729Y-106900932D01*
X189974728Y-106875471D01*
X190000812Y-106789482D01*
X190013072Y-106665000D01*
X190010000Y-106500750D01*
X189851252Y-106342002D01*
X190010000Y-106342002D01*
X190010000Y-106225000D01*
X193108405Y-106225000D01*
X193106928Y-106240000D01*
%TA.AperFunction,Conductor*%
D33*
G36*
X193106928Y-106240000D02*
G01*
X193110000Y-106304250D01*
X193268750Y-106463000D01*
X193611248Y-106463000D01*
X193620518Y-106465812D01*
X193745000Y-106478072D01*
X194242000Y-106478072D01*
X194242000Y-106717000D01*
X194222000Y-106717000D01*
X194222000Y-107416250D01*
X194283250Y-107477500D01*
X194232000Y-107528750D01*
X194232000Y-108353000D01*
X194252000Y-108353000D01*
X194252000Y-108607000D01*
X194232000Y-108607000D01*
X194232000Y-109431250D01*
X194390750Y-109590000D01*
X194555000Y-109593072D01*
X194679482Y-109580812D01*
X194799180Y-109544502D01*
X194909494Y-109485537D01*
X194953649Y-109449300D01*
X195099717Y-109527375D01*
X195261623Y-109576488D01*
X195430000Y-109593072D01*
X195880000Y-109593072D01*
X196048377Y-109576488D01*
X196210283Y-109527375D01*
X196359497Y-109447618D01*
X196477286Y-109350952D01*
X196547911Y-109365000D01*
X196732089Y-109365000D01*
X196912729Y-109329068D01*
X197082889Y-109258586D01*
X197236028Y-109156262D01*
X197340001Y-109052289D01*
X197340001Y-118967711D01*
X197330420Y-119065424D01*
X197311420Y-119128357D01*
X197280554Y-119186406D01*
X197239011Y-119237343D01*
X197188356Y-119279248D01*
X197130529Y-119310515D01*
X197067728Y-119329956D01*
X196972165Y-119340000D01*
X173032279Y-119340000D01*
X172934576Y-119330420D01*
X172871643Y-119311420D01*
X172813594Y-119280554D01*
X172762657Y-119239011D01*
X172720752Y-119188356D01*
X172689485Y-119130529D01*
X172670044Y-119067728D01*
X172660000Y-118972165D01*
X172660000Y-118550000D01*
X181131928Y-118550000D01*
X181144188Y-118674482D01*
X181180498Y-118794180D01*
X181239463Y-118904494D01*
X181318815Y-119001185D01*
X181415506Y-119080537D01*
X181525820Y-119139502D01*
X181645518Y-119175812D01*
X181770000Y-119188072D01*
X182334250Y-119185000D01*
X182493000Y-119026250D01*
X182493000Y-117827000D01*
X181293750Y-117827000D01*
X181135000Y-117985750D01*
X181131928Y-118550000D01*
X172660000Y-118550000D01*
X172660000Y-116850000D01*
X181131928Y-116850000D01*
X181135000Y-117414250D01*
X181293750Y-117573000D01*
X182493000Y-117573000D01*
X182493000Y-116373750D01*
X182334250Y-116215000D01*
X181770000Y-116211928D01*
X181645518Y-116224188D01*
X181525820Y-116260498D01*
X181415506Y-116319463D01*
X181318815Y-116398815D01*
X181239463Y-116495506D01*
X181180498Y-116605820D01*
X181144188Y-116725518D01*
X181131928Y-116850000D01*
X172660000Y-116850000D01*
X172660000Y-114022295D01*
X172700506Y-114055537D01*
X172810820Y-114114502D01*
X172930518Y-114150812D01*
X173055000Y-114163072D01*
X173244250Y-114160000D01*
X173403000Y-114001250D01*
X173403000Y-113202000D01*
X173383000Y-113202000D01*
X173383000Y-112948000D01*
X173403000Y-112948000D01*
X173403000Y-112928000D01*
X173657000Y-112928000D01*
X173657000Y-112948000D01*
X173677000Y-112948000D01*
X173677000Y-113202000D01*
X173657000Y-113202000D01*
X173657000Y-114001250D01*
X173815750Y-114160000D01*
X174005000Y-114163072D01*
X174121928Y-114151556D01*
X174121928Y-114235000D01*
X174134188Y-114359482D01*
X174170498Y-114479180D01*
X174229463Y-114589494D01*
X174308815Y-114686185D01*
X174405506Y-114765537D01*
X174515820Y-114824502D01*
X174635518Y-114860812D01*
X174760000Y-114873072D01*
X175435000Y-114873072D01*
X175559482Y-114860812D01*
X175596928Y-114849453D01*
X175596928Y-114960000D01*
X175609188Y-115084482D01*
X175645498Y-115204180D01*
X175704463Y-115314494D01*
X175783815Y-115411185D01*
X175880506Y-115490537D01*
X175990820Y-115549502D01*
X176110518Y-115585812D01*
X176235000Y-115598072D01*
X176485000Y-115598072D01*
X176609482Y-115585812D01*
X176729180Y-115549502D01*
X176839494Y-115490537D01*
X176936185Y-115411185D01*
X177015537Y-115314494D01*
X177074502Y-115204180D01*
X177110812Y-115084482D01*
X177123072Y-114960000D01*
X177123072Y-114849453D01*
X177160518Y-114860812D01*
X177285000Y-114873072D01*
X177960000Y-114873072D01*
X178084482Y-114860812D01*
X178127233Y-114847844D01*
X178156105Y-114845000D01*
X178264085Y-114834365D01*
X178265375Y-114833974D01*
X178300932Y-115012729D01*
X178371414Y-115182889D01*
X178473738Y-115336028D01*
X178603972Y-115466262D01*
X178757111Y-115568586D01*
X178927271Y-115639068D01*
X179107911Y-115675000D01*
X179292089Y-115675000D01*
X179472729Y-115639068D01*
X179642889Y-115568586D01*
X179796028Y-115466262D01*
X179926262Y-115336028D01*
X180028586Y-115182889D01*
X180099068Y-115012729D01*
X180131069Y-114851851D01*
X180245000Y-114863072D01*
X180434250Y-114860000D01*
X180593000Y-114701250D01*
X180593000Y-113952000D01*
X180847000Y-113952000D01*
X180847000Y-114701250D01*
X181005750Y-114860000D01*
X181195000Y-114863072D01*
X181319482Y-114850812D01*
X181439180Y-114814502D01*
X181549494Y-114755537D01*
X181646185Y-114676185D01*
X181725537Y-114579494D01*
X181784502Y-114469180D01*
X181820812Y-114349482D01*
X181833072Y-114225000D01*
X181830000Y-114110750D01*
X181671250Y-113952000D01*
X180847000Y-113952000D01*
X180593000Y-113952000D01*
X180573000Y-113952000D01*
X180573000Y-113698000D01*
X180593000Y-113698000D01*
X180593000Y-113678000D01*
X180847000Y-113678000D01*
X180847000Y-113698000D01*
X181671250Y-113698000D01*
X181830000Y-113539250D01*
X181833072Y-113425000D01*
X181820812Y-113300518D01*
X181784502Y-113180820D01*
X181725537Y-113070506D01*
X181646185Y-112973815D01*
X181608137Y-112942590D01*
X181691831Y-112840608D01*
X181769278Y-112695716D01*
X181816969Y-112538500D01*
X181833072Y-112375000D01*
X181833072Y-111975000D01*
X181816969Y-111811500D01*
X181769278Y-111654284D01*
X181691831Y-111509392D01*
X181587606Y-111382394D01*
X181460608Y-111278169D01*
X181455133Y-111275242D01*
X181449670Y-111219777D01*
X181871928Y-110797519D01*
X181871928Y-111420000D01*
X181884188Y-111544482D01*
X181920498Y-111664180D01*
X181979463Y-111774494D01*
X182058815Y-111871185D01*
X182155506Y-111950537D01*
X182191918Y-111970000D01*
X182155506Y-111989463D01*
X182058815Y-112068815D01*
X181979463Y-112165506D01*
X181920498Y-112275820D01*
X181884188Y-112395518D01*
X181871928Y-112520000D01*
X181871928Y-113620000D01*
X181884188Y-113744482D01*
X181920498Y-113864180D01*
X181979463Y-113974494D01*
X182058815Y-114071185D01*
X182155506Y-114150537D01*
X182265820Y-114209502D01*
X182385518Y-114245812D01*
X182510000Y-114258072D01*
X183490000Y-114258072D01*
X183614482Y-114245812D01*
X183734180Y-114209502D01*
X183844494Y-114150537D01*
X183850000Y-114146018D01*
X183855506Y-114150537D01*
X183965820Y-114209502D01*
X184085518Y-114245812D01*
X184210000Y-114258072D01*
X185177990Y-114258072D01*
X185177990Y-115302563D01*
X184665808Y-115814746D01*
X184637763Y-115837762D01*
X184545914Y-115949680D01*
X184477664Y-116077367D01*
X184435635Y-116215915D01*
X184421444Y-116360000D01*
X184425001Y-116396115D01*
X184425001Y-116405116D01*
X184213368Y-116546525D01*
X184081513Y-116678380D01*
X184059502Y-116605820D01*
X184000537Y-116495506D01*
X183921185Y-116398815D01*
X183824494Y-116319463D01*
X183714180Y-116260498D01*
X183594482Y-116224188D01*
X183470000Y-116211928D01*
X182905750Y-116215000D01*
X182747000Y-116373750D01*
X182747000Y-117573000D01*
X182767000Y-117573000D01*
X182767000Y-117827000D01*
X182747000Y-117827000D01*
X182747000Y-119026250D01*
X182905750Y-119185000D01*
X183470000Y-119188072D01*
X183594482Y-119175812D01*
X183714180Y-119139502D01*
X183824494Y-119080537D01*
X183921185Y-119001185D01*
X184000537Y-118904494D01*
X184059502Y-118794180D01*
X184081513Y-118721620D01*
X184213368Y-118853475D01*
X184456589Y-119015990D01*
X184726842Y-119127932D01*
X185013740Y-119185000D01*
X185306260Y-119185000D01*
X185593158Y-119127932D01*
X185863411Y-119015990D01*
X186106632Y-118853475D01*
X186313475Y-118646632D01*
X186430000Y-118472240D01*
X186546525Y-118646632D01*
X186753368Y-118853475D01*
X186996589Y-119015990D01*
X187266842Y-119127932D01*
X187553740Y-119185000D01*
X187846260Y-119185000D01*
X188133158Y-119127932D01*
X188403411Y-119015990D01*
X188646632Y-118853475D01*
X188853475Y-118646632D01*
X188970000Y-118472240D01*
X189086525Y-118646632D01*
X189293368Y-118853475D01*
X189536589Y-119015990D01*
X189806842Y-119127932D01*
X190093740Y-119185000D01*
X190386260Y-119185000D01*
X190673158Y-119127932D01*
X190943411Y-119015990D01*
X191186632Y-118853475D01*
X191393475Y-118646632D01*
X191555990Y-118403411D01*
X191667932Y-118133158D01*
X191725000Y-117846260D01*
X191725000Y-117553740D01*
X191667932Y-117266842D01*
X191555990Y-116996589D01*
X191393475Y-116753368D01*
X191186632Y-116546525D01*
X190943411Y-116384010D01*
X190673158Y-116272068D01*
X190386260Y-116215000D01*
X190093740Y-116215000D01*
X189806842Y-116272068D01*
X189536589Y-116384010D01*
X189293368Y-116546525D01*
X189086525Y-116753368D01*
X188970000Y-116927760D01*
X188853475Y-116753368D01*
X188646632Y-116546525D01*
X188403411Y-116384010D01*
X188133158Y-116272068D01*
X187846260Y-116215000D01*
X187553740Y-116215000D01*
X187304103Y-116264656D01*
X186975000Y-115935554D01*
X186975000Y-113177580D01*
X186980000Y-113178072D01*
X188030000Y-113178072D01*
X188154482Y-113165812D01*
X188274180Y-113129502D01*
X188384494Y-113070537D01*
X188481185Y-112991185D01*
X188514985Y-112950000D01*
X190645015Y-112950000D01*
X190678815Y-112991185D01*
X190775506Y-113070537D01*
X190885820Y-113129502D01*
X191005518Y-113165812D01*
X191130000Y-113178072D01*
X192180000Y-113178072D01*
X192304482Y-113165812D01*
X192382704Y-113142084D01*
X192497911Y-113165000D01*
X192682089Y-113165000D01*
X192862729Y-113129068D01*
X193032889Y-113058586D01*
X193186028Y-112956262D01*
X193316262Y-112826028D01*
X193418586Y-112672889D01*
X193489068Y-112502729D01*
X193525000Y-112322089D01*
X193525000Y-112137911D01*
X193489068Y-111957271D01*
X193418586Y-111787111D01*
X193316262Y-111633972D01*
X193186028Y-111503738D01*
X193032889Y-111401414D01*
X192862729Y-111330932D01*
X192682089Y-111295000D01*
X192497911Y-111295000D01*
X192436680Y-111307180D01*
X192424180Y-111300498D01*
X192304482Y-111264188D01*
X192180000Y-111251928D01*
X191130000Y-111251928D01*
X191005518Y-111264188D01*
X190885820Y-111300498D01*
X190775506Y-111359463D01*
X190678815Y-111438815D01*
X190645015Y-111480000D01*
X188514985Y-111480000D01*
X188481185Y-111438815D01*
X188384494Y-111359463D01*
X188274180Y-111300498D01*
X188154482Y-111264188D01*
X188030000Y-111251928D01*
X186980000Y-111251928D01*
X186975000Y-111252420D01*
X186975000Y-111027580D01*
X186980000Y-111028072D01*
X188030000Y-111028072D01*
X188154482Y-111015812D01*
X188274180Y-110979502D01*
X188384494Y-110920537D01*
X188481185Y-110841185D01*
X188514985Y-110800000D01*
X190645015Y-110800000D01*
X190678815Y-110841185D01*
X190775506Y-110920537D01*
X190885820Y-110979502D01*
X191005518Y-111015812D01*
X191130000Y-111028072D01*
X192180000Y-111028072D01*
X192304482Y-111015812D01*
X192424180Y-110979502D01*
X192534494Y-110920537D01*
X192631185Y-110841185D01*
X192710537Y-110744494D01*
X192769502Y-110634180D01*
X192805812Y-110514482D01*
X192818072Y-110390000D01*
X192818072Y-109740000D01*
X192805812Y-109615518D01*
X192769502Y-109495820D01*
X192710537Y-109385506D01*
X192631185Y-109288815D01*
X192534494Y-109209463D01*
X192424180Y-109150498D01*
X192304482Y-109114188D01*
X192180000Y-109101928D01*
X191130000Y-109101928D01*
X191005518Y-109114188D01*
X190885820Y-109150498D01*
X190775506Y-109209463D01*
X190678815Y-109288815D01*
X190645015Y-109330000D01*
X188514985Y-109330000D01*
X188481185Y-109288815D01*
X188384494Y-109209463D01*
X188274180Y-109150498D01*
X188154482Y-109114188D01*
X188030000Y-109101928D01*
X187279911Y-109101928D01*
X187287979Y-109086833D01*
X187325427Y-108963383D01*
X187326252Y-108955000D01*
X193016928Y-108955000D01*
X193029188Y-109079482D01*
X193065498Y-109199180D01*
X193124463Y-109309494D01*
X193203815Y-109406185D01*
X193300506Y-109485537D01*
X193410820Y-109544502D01*
X193530518Y-109580812D01*
X193655000Y-109593072D01*
X193819250Y-109590000D01*
X193978000Y-109431250D01*
X193978000Y-108607000D01*
X193178750Y-108607000D01*
X193020000Y-108765750D01*
X193016928Y-108955000D01*
X187326252Y-108955000D01*
X187338072Y-108835000D01*
X187338072Y-108338072D01*
X187849000Y-108338072D01*
X187861477Y-108336843D01*
X187932382Y-108469497D01*
X188039716Y-108600284D01*
X188170503Y-108707618D01*
X188319717Y-108787375D01*
X188481623Y-108836488D01*
X188650000Y-108853072D01*
X189150000Y-108853072D01*
X189318377Y-108836488D01*
X189480283Y-108787375D01*
X189621566Y-108711857D01*
X189737911Y-108735000D01*
X189922089Y-108735000D01*
X190102729Y-108699068D01*
X190272889Y-108628586D01*
X190426028Y-108526262D01*
X190556262Y-108396028D01*
X190658586Y-108242889D01*
X190729068Y-108072729D01*
X190742540Y-108005000D01*
X193016928Y-108005000D01*
X193020000Y-108194250D01*
X193178750Y-108353000D01*
X193978000Y-108353000D01*
X193978000Y-107528750D01*
X193916750Y-107467500D01*
X193968000Y-107416250D01*
X193968000Y-106717000D01*
X193268750Y-106717000D01*
X193110000Y-106875750D01*
X193106928Y-106940000D01*
X193119188Y-107064482D01*
X193155498Y-107184180D01*
X193214463Y-107294494D01*
X193293815Y-107391185D01*
X193357905Y-107443782D01*
X193300506Y-107474463D01*
X193203815Y-107553815D01*
X193124463Y-107650506D01*
X193065498Y-107760820D01*
X193029188Y-107880518D01*
X193016928Y-108005000D01*
X190742540Y-108005000D01*
X190765000Y-107892089D01*
X190765000Y-107707911D01*
X190729068Y-107527271D01*
X190658586Y-107357111D01*
X190556262Y-107203972D01*
X190426028Y-107073738D01*
X190272889Y-106971414D01*
X190102729Y-106900932D01*
X189974728Y-106875471D01*
X190000812Y-106789482D01*
X190013072Y-106665000D01*
X190010000Y-106500750D01*
X189851252Y-106342002D01*
X190010000Y-106342002D01*
X190010000Y-106225000D01*
X193108405Y-106225000D01*
X193106928Y-106240000D01*
G37*
%TD.AperFunction*%
D32*
X179327000Y-112088000D02*
X179347000Y-112088000D01*
X179347000Y-112342000D01*
X179327000Y-112342000D01*
X179327000Y-112362000D01*
X179073000Y-112362000D01*
X179073000Y-112342000D01*
X179053000Y-112342000D01*
X179053000Y-112088000D01*
X179073000Y-112088000D01*
X179073000Y-112068000D01*
X179327000Y-112068000D01*
X179327000Y-112088000D01*
%TA.AperFunction,Conductor*%
D33*
G36*
X179327000Y-112088000D02*
G01*
X179347000Y-112088000D01*
X179347000Y-112342000D01*
X179327000Y-112342000D01*
X179327000Y-112362000D01*
X179073000Y-112362000D01*
X179073000Y-112342000D01*
X179053000Y-112342000D01*
X179053000Y-112088000D01*
X179073000Y-112088000D01*
X179073000Y-112068000D01*
X179327000Y-112068000D01*
X179327000Y-112088000D01*
G37*
%TD.AperFunction*%
D32*
X180184188Y-90675518D02*
X180171928Y-90800000D01*
X180171928Y-92100000D01*
X180184188Y-92224482D01*
X180220498Y-92344180D01*
X180279463Y-92454494D01*
X180358815Y-92551185D01*
X180455506Y-92630537D01*
X180565820Y-92689502D01*
X180685518Y-92725812D01*
X180810000Y-92738072D01*
X181432831Y-92738072D01*
X181358815Y-92798815D01*
X181279463Y-92895506D01*
X181220498Y-93005820D01*
X181184188Y-93125518D01*
X181171928Y-93250000D01*
X181171928Y-94800000D01*
X181184188Y-94924482D01*
X181220498Y-95044180D01*
X181279463Y-95154494D01*
X181358815Y-95251185D01*
X181455506Y-95330537D01*
X181565820Y-95389502D01*
X181666194Y-95419950D01*
X174906233Y-95419950D01*
X174870128Y-95416394D01*
X174726043Y-95430585D01*
X174587494Y-95472613D01*
X174491005Y-95524188D01*
X174459808Y-95540863D01*
X174347890Y-95632712D01*
X174324874Y-95660757D01*
X173741788Y-96243844D01*
X173713742Y-96266861D01*
X173621893Y-96378779D01*
X173553643Y-96506466D01*
X173535805Y-96565270D01*
X173511615Y-96645013D01*
X173497424Y-96789098D01*
X173500980Y-96825203D01*
X173500981Y-101204787D01*
X173497424Y-101240902D01*
X173511615Y-101384987D01*
X173551289Y-101515771D01*
X173553644Y-101523535D01*
X173621894Y-101651222D01*
X173713743Y-101763140D01*
X173741788Y-101786156D01*
X174456834Y-102501203D01*
X174479850Y-102529248D01*
X174591768Y-102621097D01*
X174719455Y-102689347D01*
X174858003Y-102731375D01*
X174965983Y-102742010D01*
X174965992Y-102742010D01*
X175002087Y-102745565D01*
X175038182Y-102742010D01*
X177216885Y-102742010D01*
X177252990Y-102745566D01*
X177289095Y-102742010D01*
X177397075Y-102731375D01*
X177535623Y-102689347D01*
X177663310Y-102621097D01*
X177775228Y-102529248D01*
X177798249Y-102501197D01*
X178025098Y-102274348D01*
X178148750Y-102398000D01*
X178973000Y-102398000D01*
X178973000Y-101598750D01*
X178959740Y-101585490D01*
X179001156Y-101502452D01*
X179034074Y-101381777D01*
X179040000Y-101306750D01*
X178915125Y-101181875D01*
X179010518Y-101210812D01*
X179135000Y-101223072D01*
X179324250Y-101220000D01*
X179483000Y-101061250D01*
X179483000Y-100312000D01*
X179463000Y-100312000D01*
X179463000Y-100058000D01*
X179483000Y-100058000D01*
X179483000Y-100038000D01*
X179737000Y-100038000D01*
X179737000Y-100058000D01*
X179757000Y-100058000D01*
X179757000Y-100312000D01*
X179737000Y-100312000D01*
X179737000Y-101061250D01*
X179895750Y-101220000D01*
X180085000Y-101223072D01*
X180209482Y-101210812D01*
X180329180Y-101174502D01*
X180439494Y-101115537D01*
X180536185Y-101036185D01*
X180615537Y-100939494D01*
X180674502Y-100829180D01*
X180675001Y-100827535D01*
X180675001Y-100894789D01*
X180661444Y-101032436D01*
X180665000Y-101068541D01*
X180665000Y-101133810D01*
X180661928Y-101165000D01*
X180661928Y-101965000D01*
X180671475Y-102061928D01*
X180438000Y-102061928D01*
X180438000Y-101823750D01*
X180279250Y-101665000D01*
X180170395Y-101662434D01*
X180063027Y-101668707D01*
X180026185Y-101623815D01*
X179929494Y-101544463D01*
X179819180Y-101485498D01*
X179699482Y-101449188D01*
X179575000Y-101436928D01*
X179385750Y-101440000D01*
X179227000Y-101598750D01*
X179227000Y-102398000D01*
X179247000Y-102398000D01*
X179247000Y-102652000D01*
X179227000Y-102652000D01*
X179227000Y-102672000D01*
X178973000Y-102672000D01*
X178973000Y-102652000D01*
X178148750Y-102652000D01*
X177990000Y-102810750D01*
X177986928Y-102975000D01*
X177996025Y-103067364D01*
X177827271Y-103100932D01*
X177657111Y-103171414D01*
X177503972Y-103273738D01*
X177373738Y-103403972D01*
X177271414Y-103557111D01*
X177200932Y-103727271D01*
X177165000Y-103907911D01*
X177165000Y-104092089D01*
X177200932Y-104272729D01*
X177271414Y-104442889D01*
X177373738Y-104596028D01*
X177503972Y-104726262D01*
X177657111Y-104828586D01*
X177827271Y-104899068D01*
X178007911Y-104935000D01*
X178192089Y-104935000D01*
X178254665Y-104922553D01*
X178350871Y-105001506D01*
X178270506Y-105044463D01*
X178173815Y-105123815D01*
X178094463Y-105220506D01*
X178035498Y-105330820D01*
X177999188Y-105450518D01*
X177986928Y-105575000D01*
X177990000Y-105739250D01*
X178148750Y-105898000D01*
X178973000Y-105898000D01*
X178973000Y-105878000D01*
X179227000Y-105878000D01*
X179227000Y-105898000D01*
X179247000Y-105898000D01*
X179247000Y-106152000D01*
X179227000Y-106152000D01*
X179227000Y-106172000D01*
X178973000Y-106172000D01*
X178973000Y-106152000D01*
X178148750Y-106152000D01*
X177990000Y-106310750D01*
X177986928Y-106475000D01*
X177999188Y-106599482D01*
X178019063Y-106665000D01*
X178007911Y-106665000D01*
X177827271Y-106700932D01*
X177657111Y-106771414D01*
X177503972Y-106873738D01*
X177373738Y-107003972D01*
X177271414Y-107157111D01*
X177200932Y-107327271D01*
X177165000Y-107507911D01*
X177165000Y-107555635D01*
X177070608Y-107478169D01*
X176925716Y-107400722D01*
X176768500Y-107353031D01*
X176605000Y-107336928D01*
X176205000Y-107336928D01*
X176041500Y-107353031D01*
X175884284Y-107400722D01*
X175739392Y-107478169D01*
X175637410Y-107561863D01*
X175606185Y-107523815D01*
X175509494Y-107444463D01*
X175399180Y-107385498D01*
X175279482Y-107349188D01*
X175155000Y-107336928D01*
X175040750Y-107340000D01*
X174882000Y-107498750D01*
X174882000Y-108323000D01*
X174902000Y-108323000D01*
X174902000Y-108577000D01*
X174882000Y-108577000D01*
X174882000Y-109401250D01*
X175040750Y-109560000D01*
X175155000Y-109563072D01*
X175279482Y-109550812D01*
X175399180Y-109514502D01*
X175455540Y-109484376D01*
X175425000Y-109637911D01*
X175425000Y-109822089D01*
X175460932Y-110002729D01*
X175531414Y-110172889D01*
X175596928Y-110270938D01*
X175596928Y-110370954D01*
X175543323Y-110356190D01*
X175418567Y-110347140D01*
X175383250Y-110350000D01*
X175224500Y-110508750D01*
X175224500Y-110846928D01*
X174970500Y-110846928D01*
X174970500Y-110508750D01*
X174811750Y-110350000D01*
X174776433Y-110347140D01*
X174651677Y-110356190D01*
X174531084Y-110389405D01*
X174440522Y-110434853D01*
X174429068Y-110377271D01*
X174358586Y-110207111D01*
X174256262Y-110053972D01*
X174126028Y-109923738D01*
X173972889Y-109821414D01*
X173802729Y-109750932D01*
X173622089Y-109715000D01*
X173437911Y-109715000D01*
X173257271Y-109750932D01*
X173087111Y-109821414D01*
X172933972Y-109923738D01*
X172803738Y-110053972D01*
X172701414Y-110207111D01*
X172660000Y-110307094D01*
X172660000Y-108925000D01*
X173716928Y-108925000D01*
X173729188Y-109049482D01*
X173765498Y-109169180D01*
X173824463Y-109279494D01*
X173903815Y-109376185D01*
X174000506Y-109455537D01*
X174110820Y-109514502D01*
X174230518Y-109550812D01*
X174355000Y-109563072D01*
X174469250Y-109560000D01*
X174628000Y-109401250D01*
X174628000Y-108577000D01*
X173878750Y-108577000D01*
X173720000Y-108735750D01*
X173716928Y-108925000D01*
X172660000Y-108925000D01*
X172660000Y-107975000D01*
X173716928Y-107975000D01*
X173720000Y-108164250D01*
X173878750Y-108323000D01*
X174628000Y-108323000D01*
X174628000Y-107498750D01*
X174469250Y-107340000D01*
X174355000Y-107336928D01*
X174230518Y-107349188D01*
X174110820Y-107385498D01*
X174000506Y-107444463D01*
X173903815Y-107523815D01*
X173824463Y-107620506D01*
X173765498Y-107730820D01*
X173729188Y-107850518D01*
X173716928Y-107975000D01*
X172660000Y-107975000D01*
X172660000Y-91032279D01*
X172669580Y-90934576D01*
X172688580Y-90871644D01*
X172719445Y-90813595D01*
X172760989Y-90762657D01*
X172811644Y-90720752D01*
X172869471Y-90689485D01*
X172932272Y-90670044D01*
X173027835Y-90660000D01*
X180188895Y-90660000D01*
X180184188Y-90675518D01*
%TA.AperFunction,Conductor*%
D33*
G36*
X180184188Y-90675518D02*
G01*
X180171928Y-90800000D01*
X180171928Y-92100000D01*
X180184188Y-92224482D01*
X180220498Y-92344180D01*
X180279463Y-92454494D01*
X180358815Y-92551185D01*
X180455506Y-92630537D01*
X180565820Y-92689502D01*
X180685518Y-92725812D01*
X180810000Y-92738072D01*
X181432831Y-92738072D01*
X181358815Y-92798815D01*
X181279463Y-92895506D01*
X181220498Y-93005820D01*
X181184188Y-93125518D01*
X181171928Y-93250000D01*
X181171928Y-94800000D01*
X181184188Y-94924482D01*
X181220498Y-95044180D01*
X181279463Y-95154494D01*
X181358815Y-95251185D01*
X181455506Y-95330537D01*
X181565820Y-95389502D01*
X181666194Y-95419950D01*
X174906233Y-95419950D01*
X174870128Y-95416394D01*
X174726043Y-95430585D01*
X174587494Y-95472613D01*
X174491005Y-95524188D01*
X174459808Y-95540863D01*
X174347890Y-95632712D01*
X174324874Y-95660757D01*
X173741788Y-96243844D01*
X173713742Y-96266861D01*
X173621893Y-96378779D01*
X173553643Y-96506466D01*
X173535805Y-96565270D01*
X173511615Y-96645013D01*
X173497424Y-96789098D01*
X173500980Y-96825203D01*
X173500981Y-101204787D01*
X173497424Y-101240902D01*
X173511615Y-101384987D01*
X173551289Y-101515771D01*
X173553644Y-101523535D01*
X173621894Y-101651222D01*
X173713743Y-101763140D01*
X173741788Y-101786156D01*
X174456834Y-102501203D01*
X174479850Y-102529248D01*
X174591768Y-102621097D01*
X174719455Y-102689347D01*
X174858003Y-102731375D01*
X174965983Y-102742010D01*
X174965992Y-102742010D01*
X175002087Y-102745565D01*
X175038182Y-102742010D01*
X177216885Y-102742010D01*
X177252990Y-102745566D01*
X177289095Y-102742010D01*
X177397075Y-102731375D01*
X177535623Y-102689347D01*
X177663310Y-102621097D01*
X177775228Y-102529248D01*
X177798249Y-102501197D01*
X178025098Y-102274348D01*
X178148750Y-102398000D01*
X178973000Y-102398000D01*
X178973000Y-101598750D01*
X178959740Y-101585490D01*
X179001156Y-101502452D01*
X179034074Y-101381777D01*
X179040000Y-101306750D01*
X178915125Y-101181875D01*
X179010518Y-101210812D01*
X179135000Y-101223072D01*
X179324250Y-101220000D01*
X179483000Y-101061250D01*
X179483000Y-100312000D01*
X179463000Y-100312000D01*
X179463000Y-100058000D01*
X179483000Y-100058000D01*
X179483000Y-100038000D01*
X179737000Y-100038000D01*
X179737000Y-100058000D01*
X179757000Y-100058000D01*
X179757000Y-100312000D01*
X179737000Y-100312000D01*
X179737000Y-101061250D01*
X179895750Y-101220000D01*
X180085000Y-101223072D01*
X180209482Y-101210812D01*
X180329180Y-101174502D01*
X180439494Y-101115537D01*
X180536185Y-101036185D01*
X180615537Y-100939494D01*
X180674502Y-100829180D01*
X180675001Y-100827535D01*
X180675001Y-100894789D01*
X180661444Y-101032436D01*
X180665000Y-101068541D01*
X180665000Y-101133810D01*
X180661928Y-101165000D01*
X180661928Y-101965000D01*
X180671475Y-102061928D01*
X180438000Y-102061928D01*
X180438000Y-101823750D01*
X180279250Y-101665000D01*
X180170395Y-101662434D01*
X180063027Y-101668707D01*
X180026185Y-101623815D01*
X179929494Y-101544463D01*
X179819180Y-101485498D01*
X179699482Y-101449188D01*
X179575000Y-101436928D01*
X179385750Y-101440000D01*
X179227000Y-101598750D01*
X179227000Y-102398000D01*
X179247000Y-102398000D01*
X179247000Y-102652000D01*
X179227000Y-102652000D01*
X179227000Y-102672000D01*
X178973000Y-102672000D01*
X178973000Y-102652000D01*
X178148750Y-102652000D01*
X177990000Y-102810750D01*
X177986928Y-102975000D01*
X177996025Y-103067364D01*
X177827271Y-103100932D01*
X177657111Y-103171414D01*
X177503972Y-103273738D01*
X177373738Y-103403972D01*
X177271414Y-103557111D01*
X177200932Y-103727271D01*
X177165000Y-103907911D01*
X177165000Y-104092089D01*
X177200932Y-104272729D01*
X177271414Y-104442889D01*
X177373738Y-104596028D01*
X177503972Y-104726262D01*
X177657111Y-104828586D01*
X177827271Y-104899068D01*
X178007911Y-104935000D01*
X178192089Y-104935000D01*
X178254665Y-104922553D01*
X178350871Y-105001506D01*
X178270506Y-105044463D01*
X178173815Y-105123815D01*
X178094463Y-105220506D01*
X178035498Y-105330820D01*
X177999188Y-105450518D01*
X177986928Y-105575000D01*
X177990000Y-105739250D01*
X178148750Y-105898000D01*
X178973000Y-105898000D01*
X178973000Y-105878000D01*
X179227000Y-105878000D01*
X179227000Y-105898000D01*
X179247000Y-105898000D01*
X179247000Y-106152000D01*
X179227000Y-106152000D01*
X179227000Y-106172000D01*
X178973000Y-106172000D01*
X178973000Y-106152000D01*
X178148750Y-106152000D01*
X177990000Y-106310750D01*
X177986928Y-106475000D01*
X177999188Y-106599482D01*
X178019063Y-106665000D01*
X178007911Y-106665000D01*
X177827271Y-106700932D01*
X177657111Y-106771414D01*
X177503972Y-106873738D01*
X177373738Y-107003972D01*
X177271414Y-107157111D01*
X177200932Y-107327271D01*
X177165000Y-107507911D01*
X177165000Y-107555635D01*
X177070608Y-107478169D01*
X176925716Y-107400722D01*
X176768500Y-107353031D01*
X176605000Y-107336928D01*
X176205000Y-107336928D01*
X176041500Y-107353031D01*
X175884284Y-107400722D01*
X175739392Y-107478169D01*
X175637410Y-107561863D01*
X175606185Y-107523815D01*
X175509494Y-107444463D01*
X175399180Y-107385498D01*
X175279482Y-107349188D01*
X175155000Y-107336928D01*
X175040750Y-107340000D01*
X174882000Y-107498750D01*
X174882000Y-108323000D01*
X174902000Y-108323000D01*
X174902000Y-108577000D01*
X174882000Y-108577000D01*
X174882000Y-109401250D01*
X175040750Y-109560000D01*
X175155000Y-109563072D01*
X175279482Y-109550812D01*
X175399180Y-109514502D01*
X175455540Y-109484376D01*
X175425000Y-109637911D01*
X175425000Y-109822089D01*
X175460932Y-110002729D01*
X175531414Y-110172889D01*
X175596928Y-110270938D01*
X175596928Y-110370954D01*
X175543323Y-110356190D01*
X175418567Y-110347140D01*
X175383250Y-110350000D01*
X175224500Y-110508750D01*
X175224500Y-110846928D01*
X174970500Y-110846928D01*
X174970500Y-110508750D01*
X174811750Y-110350000D01*
X174776433Y-110347140D01*
X174651677Y-110356190D01*
X174531084Y-110389405D01*
X174440522Y-110434853D01*
X174429068Y-110377271D01*
X174358586Y-110207111D01*
X174256262Y-110053972D01*
X174126028Y-109923738D01*
X173972889Y-109821414D01*
X173802729Y-109750932D01*
X173622089Y-109715000D01*
X173437911Y-109715000D01*
X173257271Y-109750932D01*
X173087111Y-109821414D01*
X172933972Y-109923738D01*
X172803738Y-110053972D01*
X172701414Y-110207111D01*
X172660000Y-110307094D01*
X172660000Y-108925000D01*
X173716928Y-108925000D01*
X173729188Y-109049482D01*
X173765498Y-109169180D01*
X173824463Y-109279494D01*
X173903815Y-109376185D01*
X174000506Y-109455537D01*
X174110820Y-109514502D01*
X174230518Y-109550812D01*
X174355000Y-109563072D01*
X174469250Y-109560000D01*
X174628000Y-109401250D01*
X174628000Y-108577000D01*
X173878750Y-108577000D01*
X173720000Y-108735750D01*
X173716928Y-108925000D01*
X172660000Y-108925000D01*
X172660000Y-107975000D01*
X173716928Y-107975000D01*
X173720000Y-108164250D01*
X173878750Y-108323000D01*
X174628000Y-108323000D01*
X174628000Y-107498750D01*
X174469250Y-107340000D01*
X174355000Y-107336928D01*
X174230518Y-107349188D01*
X174110820Y-107385498D01*
X174000506Y-107444463D01*
X173903815Y-107523815D01*
X173824463Y-107620506D01*
X173765498Y-107730820D01*
X173729188Y-107850518D01*
X173716928Y-107975000D01*
X172660000Y-107975000D01*
X172660000Y-91032279D01*
X172669580Y-90934576D01*
X172688580Y-90871644D01*
X172719445Y-90813595D01*
X172760989Y-90762657D01*
X172811644Y-90720752D01*
X172869471Y-90689485D01*
X172932272Y-90670044D01*
X173027835Y-90660000D01*
X180188895Y-90660000D01*
X180184188Y-90675518D01*
G37*
%TD.AperFunction*%
D32*
X181597271Y-105879068D02*
X181777911Y-105915000D01*
X181811928Y-105915000D01*
X181811928Y-106550000D01*
X181824188Y-106674482D01*
X181860498Y-106794180D01*
X181919463Y-106904494D01*
X181998815Y-107001185D01*
X182095506Y-107080537D01*
X182205820Y-107139502D01*
X182325518Y-107175812D01*
X182450000Y-107188072D01*
X184122444Y-107188072D01*
X184105808Y-107204708D01*
X184077763Y-107227724D01*
X183985914Y-107339642D01*
X183961684Y-107384973D01*
X183880000Y-107376928D01*
X183720000Y-107376928D01*
X183600000Y-107388747D01*
X183480000Y-107376928D01*
X183320000Y-107376928D01*
X183200000Y-107388747D01*
X183080000Y-107376928D01*
X182920000Y-107376928D01*
X182800000Y-107388747D01*
X182680000Y-107376928D01*
X182520000Y-107376928D01*
X182400000Y-107388747D01*
X182280000Y-107376928D01*
X182120000Y-107376928D01*
X182000000Y-107388747D01*
X181880000Y-107376928D01*
X181720000Y-107376928D01*
X181613875Y-107387381D01*
X181623072Y-107294000D01*
X181623072Y-107106000D01*
X181612632Y-107000000D01*
X181623072Y-106894000D01*
X181623072Y-106706000D01*
X181612632Y-106600000D01*
X181623072Y-106494000D01*
X181623072Y-106306000D01*
X181612896Y-106202688D01*
X181620000Y-106158750D01*
X181597241Y-106135991D01*
X181574045Y-106059524D01*
X181542228Y-106000000D01*
X181574045Y-105940476D01*
X181593186Y-105877376D01*
X181597271Y-105879068D01*
%TA.AperFunction,Conductor*%
D33*
G36*
X181597271Y-105879068D02*
G01*
X181777911Y-105915000D01*
X181811928Y-105915000D01*
X181811928Y-106550000D01*
X181824188Y-106674482D01*
X181860498Y-106794180D01*
X181919463Y-106904494D01*
X181998815Y-107001185D01*
X182095506Y-107080537D01*
X182205820Y-107139502D01*
X182325518Y-107175812D01*
X182450000Y-107188072D01*
X184122444Y-107188072D01*
X184105808Y-107204708D01*
X184077763Y-107227724D01*
X183985914Y-107339642D01*
X183961684Y-107384973D01*
X183880000Y-107376928D01*
X183720000Y-107376928D01*
X183600000Y-107388747D01*
X183480000Y-107376928D01*
X183320000Y-107376928D01*
X183200000Y-107388747D01*
X183080000Y-107376928D01*
X182920000Y-107376928D01*
X182800000Y-107388747D01*
X182680000Y-107376928D01*
X182520000Y-107376928D01*
X182400000Y-107388747D01*
X182280000Y-107376928D01*
X182120000Y-107376928D01*
X182000000Y-107388747D01*
X181880000Y-107376928D01*
X181720000Y-107376928D01*
X181613875Y-107387381D01*
X181623072Y-107294000D01*
X181623072Y-107106000D01*
X181612632Y-107000000D01*
X181623072Y-106894000D01*
X181623072Y-106706000D01*
X181612632Y-106600000D01*
X181623072Y-106494000D01*
X181623072Y-106306000D01*
X181612896Y-106202688D01*
X181620000Y-106158750D01*
X181597241Y-106135991D01*
X181574045Y-106059524D01*
X181542228Y-106000000D01*
X181574045Y-105940476D01*
X181593186Y-105877376D01*
X181597271Y-105879068D01*
G37*
%TD.AperFunction*%
D32*
X189047000Y-106342000D02*
X189027000Y-106342000D01*
X189027000Y-106362000D01*
X188773000Y-106362000D01*
X188773000Y-106342000D01*
X188753000Y-106342000D01*
X188753000Y-106225000D01*
X189047000Y-106225000D01*
X189047000Y-106342000D01*
%TA.AperFunction,Conductor*%
D33*
G36*
X189047000Y-106342000D02*
G01*
X189027000Y-106342000D01*
X189027000Y-106362000D01*
X188773000Y-106362000D01*
X188773000Y-106342000D01*
X188753000Y-106342000D01*
X188753000Y-106225000D01*
X189047000Y-106225000D01*
X189047000Y-106342000D01*
G37*
%TD.AperFunction*%
D32*
X197065424Y-90669580D02*
X197128356Y-90688580D01*
X197186405Y-90719445D01*
X197237343Y-90760989D01*
X197279248Y-90811644D01*
X197310515Y-90869471D01*
X197329956Y-90932272D01*
X197340000Y-91027835D01*
X197340000Y-104827710D01*
X197246028Y-104733738D01*
X197092889Y-104631414D01*
X196922729Y-104560932D01*
X196742089Y-104525000D01*
X196557911Y-104525000D01*
X196483753Y-104539751D01*
X196399482Y-104514188D01*
X196275000Y-104501928D01*
X195575000Y-104501928D01*
X195450518Y-104514188D01*
X195330820Y-104550498D01*
X195220506Y-104609463D01*
X195123815Y-104688815D01*
X195044463Y-104785506D01*
X195010000Y-104849981D01*
X194975537Y-104785506D01*
X194896185Y-104688815D01*
X194799494Y-104609463D01*
X194689180Y-104550498D01*
X194569482Y-104514188D01*
X194445000Y-104501928D01*
X193745000Y-104501928D01*
X193620518Y-104514188D01*
X193500820Y-104550498D01*
X193390506Y-104609463D01*
X193293815Y-104688815D01*
X193239499Y-104755000D01*
X192703275Y-104755000D01*
X192729068Y-104692729D01*
X192765000Y-104512089D01*
X192765000Y-104327911D01*
X192729068Y-104147271D01*
X192658586Y-103977111D01*
X192556262Y-103823972D01*
X192426028Y-103693738D01*
X192272889Y-103591414D01*
X192102729Y-103520932D01*
X191922089Y-103485000D01*
X191737911Y-103485000D01*
X191697723Y-103492994D01*
X191599497Y-103412382D01*
X191473435Y-103345000D01*
X191522089Y-103345000D01*
X191702729Y-103309068D01*
X191872889Y-103238586D01*
X192026028Y-103136262D01*
X192156262Y-103006028D01*
X192258586Y-102852889D01*
X192329068Y-102682729D01*
X192365000Y-102502089D01*
X192365000Y-102317911D01*
X192329068Y-102137271D01*
X192258586Y-101967111D01*
X192156262Y-101813972D01*
X192026028Y-101683738D01*
X191872889Y-101581414D01*
X191702729Y-101510932D01*
X191522089Y-101475000D01*
X191337911Y-101475000D01*
X191213715Y-101499704D01*
X191119497Y-101422382D01*
X190970283Y-101342625D01*
X190808377Y-101293512D01*
X190640000Y-101276928D01*
X190190000Y-101276928D01*
X190021623Y-101293512D01*
X189859717Y-101342625D01*
X189713649Y-101420700D01*
X189669494Y-101384463D01*
X189559180Y-101325498D01*
X189439482Y-101289188D01*
X189315000Y-101276928D01*
X189150750Y-101280000D01*
X188992000Y-101438750D01*
X188992000Y-102263000D01*
X189012000Y-102263000D01*
X189012000Y-102517000D01*
X188992000Y-102517000D01*
X188992000Y-102537000D01*
X188738000Y-102537000D01*
X188738000Y-102517000D01*
X188718000Y-102517000D01*
X188718000Y-102263000D01*
X188738000Y-102263000D01*
X188738000Y-101438750D01*
X188579250Y-101280000D01*
X188415000Y-101276928D01*
X188290518Y-101289188D01*
X188170820Y-101325498D01*
X188060506Y-101384463D01*
X187963815Y-101463815D01*
X187884463Y-101560506D01*
X187829969Y-101662455D01*
X187829605Y-101662434D01*
X187720750Y-101665000D01*
X187562000Y-101823750D01*
X187562000Y-102061928D01*
X187331587Y-102061928D01*
X187337566Y-101959605D01*
X187335000Y-101850750D01*
X187149250Y-101665000D01*
X187040395Y-101662434D01*
X186915524Y-101669730D01*
X186829990Y-101692000D01*
X186538072Y-101692000D01*
X186538072Y-101438000D01*
X187176250Y-101438000D01*
X187335000Y-101279250D01*
X187337566Y-101170395D01*
X187330270Y-101045524D01*
X187298753Y-100924475D01*
X187244226Y-100811902D01*
X187168784Y-100712129D01*
X187075328Y-100628991D01*
X186967448Y-100565683D01*
X186849290Y-100524638D01*
X186758750Y-100510000D01*
X186652913Y-100615837D01*
X186567448Y-100565683D01*
X186459400Y-100528150D01*
X186450348Y-100519098D01*
X186524197Y-100445250D01*
X186552237Y-100422238D01*
X186575250Y-100394197D01*
X186575253Y-100394194D01*
X186607606Y-100354771D01*
X186625716Y-100349278D01*
X186770608Y-100271831D01*
X186897606Y-100167606D01*
X187001831Y-100040608D01*
X187079278Y-99895716D01*
X187126969Y-99738500D01*
X187143072Y-99575000D01*
X187143072Y-99175000D01*
X187126969Y-99011500D01*
X187079278Y-98854284D01*
X187001831Y-98709392D01*
X186897606Y-98582394D01*
X186858134Y-98550000D01*
X186897606Y-98517606D01*
X187001831Y-98390608D01*
X187063439Y-98275349D01*
X187217271Y-98339068D01*
X187397911Y-98375000D01*
X187582089Y-98375000D01*
X187707162Y-98350121D01*
X187740590Y-98412661D01*
X187823468Y-98513648D01*
X187823471Y-98513651D01*
X187851184Y-98547419D01*
X187884952Y-98575132D01*
X188254864Y-98945044D01*
X188282581Y-98978817D01*
X188417339Y-99089411D01*
X188475000Y-99120231D01*
X188475000Y-99232089D01*
X188510932Y-99412729D01*
X188581414Y-99582889D01*
X188683738Y-99736028D01*
X188813972Y-99866262D01*
X188967111Y-99968586D01*
X189137271Y-100039068D01*
X189317911Y-100075000D01*
X189502089Y-100075000D01*
X189682729Y-100039068D01*
X189852889Y-99968586D01*
X190006028Y-99866262D01*
X190136262Y-99736028D01*
X190238586Y-99582889D01*
X190309068Y-99412729D01*
X190334741Y-99283666D01*
X190414482Y-99275812D01*
X190534180Y-99239502D01*
X190644494Y-99180537D01*
X190741185Y-99101185D01*
X190800000Y-99029518D01*
X190858815Y-99101185D01*
X190955506Y-99180537D01*
X191065820Y-99239502D01*
X191185518Y-99275812D01*
X191310000Y-99288072D01*
X192660000Y-99288072D01*
X192784482Y-99275812D01*
X192904180Y-99239502D01*
X193014494Y-99180537D01*
X193111185Y-99101185D01*
X193181099Y-99015995D01*
X193281623Y-99046488D01*
X193450000Y-99063072D01*
X193950000Y-99063072D01*
X194118377Y-99046488D01*
X194280283Y-98997375D01*
X194429497Y-98917618D01*
X194445359Y-98904601D01*
X194547911Y-98925000D01*
X194732089Y-98925000D01*
X194912729Y-98889068D01*
X195082889Y-98818586D01*
X195236028Y-98716262D01*
X195366262Y-98586028D01*
X195468586Y-98432889D01*
X195539068Y-98262729D01*
X195575000Y-98082089D01*
X195575000Y-97897911D01*
X195539068Y-97717271D01*
X195468586Y-97547111D01*
X195366262Y-97393972D01*
X195236028Y-97263738D01*
X195082889Y-97161414D01*
X194912729Y-97090932D01*
X194781018Y-97064733D01*
X194800812Y-96999482D01*
X194813072Y-96875000D01*
X194810000Y-96710750D01*
X194651250Y-96552000D01*
X193827000Y-96552000D01*
X193827000Y-96572000D01*
X193573000Y-96572000D01*
X193573000Y-96552000D01*
X192748750Y-96552000D01*
X192723750Y-96577000D01*
X192112000Y-96577000D01*
X192112000Y-97226250D01*
X192270750Y-97385000D01*
X192660000Y-97388072D01*
X192670070Y-97387080D01*
X192656788Y-97411928D01*
X191745000Y-97411928D01*
X191745000Y-97339250D01*
X191858000Y-97226250D01*
X191858000Y-96577000D01*
X191838000Y-96577000D01*
X191838000Y-96323000D01*
X191858000Y-96323000D01*
X191858000Y-95673750D01*
X192112000Y-95673750D01*
X192112000Y-96323000D01*
X193136250Y-96323000D01*
X193161250Y-96298000D01*
X193573000Y-96298000D01*
X193573000Y-95498750D01*
X193827000Y-95498750D01*
X193827000Y-96298000D01*
X194651250Y-96298000D01*
X194810000Y-96139250D01*
X194813072Y-95975000D01*
X194800812Y-95850518D01*
X194764502Y-95730820D01*
X194705537Y-95620506D01*
X194626185Y-95523815D01*
X194529494Y-95444463D01*
X194419180Y-95385498D01*
X194299482Y-95349188D01*
X194175000Y-95336928D01*
X193985750Y-95340000D01*
X193827000Y-95498750D01*
X193573000Y-95498750D01*
X193414250Y-95340000D01*
X193225000Y-95336928D01*
X193100518Y-95349188D01*
X192980820Y-95385498D01*
X192870506Y-95444463D01*
X192774552Y-95523210D01*
X192660000Y-95511928D01*
X192270750Y-95515000D01*
X192112000Y-95673750D01*
X191858000Y-95673750D01*
X191699250Y-95515000D01*
X191310000Y-95511928D01*
X191185518Y-95524188D01*
X191065820Y-95560498D01*
X190955506Y-95619463D01*
X190858815Y-95698815D01*
X190800000Y-95770482D01*
X190741185Y-95698815D01*
X190644494Y-95619463D01*
X190534180Y-95560498D01*
X190491737Y-95547623D01*
X190487195Y-95501510D01*
X190452003Y-95385498D01*
X190436589Y-95334686D01*
X190370715Y-95211444D01*
X190354411Y-95180941D01*
X190243817Y-95046183D01*
X190210044Y-95018466D01*
X189926534Y-94734956D01*
X189898817Y-94701183D01*
X189764059Y-94590589D01*
X189610313Y-94508411D01*
X189443490Y-94457805D01*
X189313477Y-94445000D01*
X189313469Y-94445000D01*
X189270000Y-94440719D01*
X189226531Y-94445000D01*
X188848072Y-94445000D01*
X188848072Y-93250000D01*
X188835812Y-93125518D01*
X188799502Y-93005820D01*
X188740537Y-92895506D01*
X188661185Y-92798815D01*
X188587169Y-92738072D01*
X189210000Y-92738072D01*
X189334482Y-92725812D01*
X189454180Y-92689502D01*
X189564494Y-92630537D01*
X189661185Y-92551185D01*
X189740537Y-92454494D01*
X189799502Y-92344180D01*
X189835812Y-92224482D01*
X189848072Y-92100000D01*
X189848072Y-90800000D01*
X189835812Y-90675518D01*
X189831105Y-90660000D01*
X196967721Y-90660000D01*
X197065424Y-90669580D01*
%TA.AperFunction,Conductor*%
D33*
G36*
X197065424Y-90669580D02*
G01*
X197128356Y-90688580D01*
X197186405Y-90719445D01*
X197237343Y-90760989D01*
X197279248Y-90811644D01*
X197310515Y-90869471D01*
X197329956Y-90932272D01*
X197340000Y-91027835D01*
X197340000Y-104827710D01*
X197246028Y-104733738D01*
X197092889Y-104631414D01*
X196922729Y-104560932D01*
X196742089Y-104525000D01*
X196557911Y-104525000D01*
X196483753Y-104539751D01*
X196399482Y-104514188D01*
X196275000Y-104501928D01*
X195575000Y-104501928D01*
X195450518Y-104514188D01*
X195330820Y-104550498D01*
X195220506Y-104609463D01*
X195123815Y-104688815D01*
X195044463Y-104785506D01*
X195010000Y-104849981D01*
X194975537Y-104785506D01*
X194896185Y-104688815D01*
X194799494Y-104609463D01*
X194689180Y-104550498D01*
X194569482Y-104514188D01*
X194445000Y-104501928D01*
X193745000Y-104501928D01*
X193620518Y-104514188D01*
X193500820Y-104550498D01*
X193390506Y-104609463D01*
X193293815Y-104688815D01*
X193239499Y-104755000D01*
X192703275Y-104755000D01*
X192729068Y-104692729D01*
X192765000Y-104512089D01*
X192765000Y-104327911D01*
X192729068Y-104147271D01*
X192658586Y-103977111D01*
X192556262Y-103823972D01*
X192426028Y-103693738D01*
X192272889Y-103591414D01*
X192102729Y-103520932D01*
X191922089Y-103485000D01*
X191737911Y-103485000D01*
X191697723Y-103492994D01*
X191599497Y-103412382D01*
X191473435Y-103345000D01*
X191522089Y-103345000D01*
X191702729Y-103309068D01*
X191872889Y-103238586D01*
X192026028Y-103136262D01*
X192156262Y-103006028D01*
X192258586Y-102852889D01*
X192329068Y-102682729D01*
X192365000Y-102502089D01*
X192365000Y-102317911D01*
X192329068Y-102137271D01*
X192258586Y-101967111D01*
X192156262Y-101813972D01*
X192026028Y-101683738D01*
X191872889Y-101581414D01*
X191702729Y-101510932D01*
X191522089Y-101475000D01*
X191337911Y-101475000D01*
X191213715Y-101499704D01*
X191119497Y-101422382D01*
X190970283Y-101342625D01*
X190808377Y-101293512D01*
X190640000Y-101276928D01*
X190190000Y-101276928D01*
X190021623Y-101293512D01*
X189859717Y-101342625D01*
X189713649Y-101420700D01*
X189669494Y-101384463D01*
X189559180Y-101325498D01*
X189439482Y-101289188D01*
X189315000Y-101276928D01*
X189150750Y-101280000D01*
X188992000Y-101438750D01*
X188992000Y-102263000D01*
X189012000Y-102263000D01*
X189012000Y-102517000D01*
X188992000Y-102517000D01*
X188992000Y-102537000D01*
X188738000Y-102537000D01*
X188738000Y-102517000D01*
X188718000Y-102517000D01*
X188718000Y-102263000D01*
X188738000Y-102263000D01*
X188738000Y-101438750D01*
X188579250Y-101280000D01*
X188415000Y-101276928D01*
X188290518Y-101289188D01*
X188170820Y-101325498D01*
X188060506Y-101384463D01*
X187963815Y-101463815D01*
X187884463Y-101560506D01*
X187829969Y-101662455D01*
X187829605Y-101662434D01*
X187720750Y-101665000D01*
X187562000Y-101823750D01*
X187562000Y-102061928D01*
X187331587Y-102061928D01*
X187337566Y-101959605D01*
X187335000Y-101850750D01*
X187149250Y-101665000D01*
X187040395Y-101662434D01*
X186915524Y-101669730D01*
X186829990Y-101692000D01*
X186538072Y-101692000D01*
X186538072Y-101438000D01*
X187176250Y-101438000D01*
X187335000Y-101279250D01*
X187337566Y-101170395D01*
X187330270Y-101045524D01*
X187298753Y-100924475D01*
X187244226Y-100811902D01*
X187168784Y-100712129D01*
X187075328Y-100628991D01*
X186967448Y-100565683D01*
X186849290Y-100524638D01*
X186758750Y-100510000D01*
X186652913Y-100615837D01*
X186567448Y-100565683D01*
X186459400Y-100528150D01*
X186450348Y-100519098D01*
X186524197Y-100445250D01*
X186552237Y-100422238D01*
X186575250Y-100394197D01*
X186575253Y-100394194D01*
X186607606Y-100354771D01*
X186625716Y-100349278D01*
X186770608Y-100271831D01*
X186897606Y-100167606D01*
X187001831Y-100040608D01*
X187079278Y-99895716D01*
X187126969Y-99738500D01*
X187143072Y-99575000D01*
X187143072Y-99175000D01*
X187126969Y-99011500D01*
X187079278Y-98854284D01*
X187001831Y-98709392D01*
X186897606Y-98582394D01*
X186858134Y-98550000D01*
X186897606Y-98517606D01*
X187001831Y-98390608D01*
X187063439Y-98275349D01*
X187217271Y-98339068D01*
X187397911Y-98375000D01*
X187582089Y-98375000D01*
X187707162Y-98350121D01*
X187740590Y-98412661D01*
X187823468Y-98513648D01*
X187823471Y-98513651D01*
X187851184Y-98547419D01*
X187884952Y-98575132D01*
X188254864Y-98945044D01*
X188282581Y-98978817D01*
X188417339Y-99089411D01*
X188475000Y-99120231D01*
X188475000Y-99232089D01*
X188510932Y-99412729D01*
X188581414Y-99582889D01*
X188683738Y-99736028D01*
X188813972Y-99866262D01*
X188967111Y-99968586D01*
X189137271Y-100039068D01*
X189317911Y-100075000D01*
X189502089Y-100075000D01*
X189682729Y-100039068D01*
X189852889Y-99968586D01*
X190006028Y-99866262D01*
X190136262Y-99736028D01*
X190238586Y-99582889D01*
X190309068Y-99412729D01*
X190334741Y-99283666D01*
X190414482Y-99275812D01*
X190534180Y-99239502D01*
X190644494Y-99180537D01*
X190741185Y-99101185D01*
X190800000Y-99029518D01*
X190858815Y-99101185D01*
X190955506Y-99180537D01*
X191065820Y-99239502D01*
X191185518Y-99275812D01*
X191310000Y-99288072D01*
X192660000Y-99288072D01*
X192784482Y-99275812D01*
X192904180Y-99239502D01*
X193014494Y-99180537D01*
X193111185Y-99101185D01*
X193181099Y-99015995D01*
X193281623Y-99046488D01*
X193450000Y-99063072D01*
X193950000Y-99063072D01*
X194118377Y-99046488D01*
X194280283Y-98997375D01*
X194429497Y-98917618D01*
X194445359Y-98904601D01*
X194547911Y-98925000D01*
X194732089Y-98925000D01*
X194912729Y-98889068D01*
X195082889Y-98818586D01*
X195236028Y-98716262D01*
X195366262Y-98586028D01*
X195468586Y-98432889D01*
X195539068Y-98262729D01*
X195575000Y-98082089D01*
X195575000Y-97897911D01*
X195539068Y-97717271D01*
X195468586Y-97547111D01*
X195366262Y-97393972D01*
X195236028Y-97263738D01*
X195082889Y-97161414D01*
X194912729Y-97090932D01*
X194781018Y-97064733D01*
X194800812Y-96999482D01*
X194813072Y-96875000D01*
X194810000Y-96710750D01*
X194651250Y-96552000D01*
X193827000Y-96552000D01*
X193827000Y-96572000D01*
X193573000Y-96572000D01*
X193573000Y-96552000D01*
X192748750Y-96552000D01*
X192723750Y-96577000D01*
X192112000Y-96577000D01*
X192112000Y-97226250D01*
X192270750Y-97385000D01*
X192660000Y-97388072D01*
X192670070Y-97387080D01*
X192656788Y-97411928D01*
X191745000Y-97411928D01*
X191745000Y-97339250D01*
X191858000Y-97226250D01*
X191858000Y-96577000D01*
X191838000Y-96577000D01*
X191838000Y-96323000D01*
X191858000Y-96323000D01*
X191858000Y-95673750D01*
X192112000Y-95673750D01*
X192112000Y-96323000D01*
X193136250Y-96323000D01*
X193161250Y-96298000D01*
X193573000Y-96298000D01*
X193573000Y-95498750D01*
X193827000Y-95498750D01*
X193827000Y-96298000D01*
X194651250Y-96298000D01*
X194810000Y-96139250D01*
X194813072Y-95975000D01*
X194800812Y-95850518D01*
X194764502Y-95730820D01*
X194705537Y-95620506D01*
X194626185Y-95523815D01*
X194529494Y-95444463D01*
X194419180Y-95385498D01*
X194299482Y-95349188D01*
X194175000Y-95336928D01*
X193985750Y-95340000D01*
X193827000Y-95498750D01*
X193573000Y-95498750D01*
X193414250Y-95340000D01*
X193225000Y-95336928D01*
X193100518Y-95349188D01*
X192980820Y-95385498D01*
X192870506Y-95444463D01*
X192774552Y-95523210D01*
X192660000Y-95511928D01*
X192270750Y-95515000D01*
X192112000Y-95673750D01*
X191858000Y-95673750D01*
X191699250Y-95515000D01*
X191310000Y-95511928D01*
X191185518Y-95524188D01*
X191065820Y-95560498D01*
X190955506Y-95619463D01*
X190858815Y-95698815D01*
X190800000Y-95770482D01*
X190741185Y-95698815D01*
X190644494Y-95619463D01*
X190534180Y-95560498D01*
X190491737Y-95547623D01*
X190487195Y-95501510D01*
X190452003Y-95385498D01*
X190436589Y-95334686D01*
X190370715Y-95211444D01*
X190354411Y-95180941D01*
X190243817Y-95046183D01*
X190210044Y-95018466D01*
X189926534Y-94734956D01*
X189898817Y-94701183D01*
X189764059Y-94590589D01*
X189610313Y-94508411D01*
X189443490Y-94457805D01*
X189313477Y-94445000D01*
X189313469Y-94445000D01*
X189270000Y-94440719D01*
X189226531Y-94445000D01*
X188848072Y-94445000D01*
X188848072Y-93250000D01*
X188835812Y-93125518D01*
X188799502Y-93005820D01*
X188740537Y-92895506D01*
X188661185Y-92798815D01*
X188587169Y-92738072D01*
X189210000Y-92738072D01*
X189334482Y-92725812D01*
X189454180Y-92689502D01*
X189564494Y-92630537D01*
X189661185Y-92551185D01*
X189740537Y-92454494D01*
X189799502Y-92344180D01*
X189835812Y-92224482D01*
X189848072Y-92100000D01*
X189848072Y-90800000D01*
X189835812Y-90675518D01*
X189831105Y-90660000D01*
X196967721Y-90660000D01*
X197065424Y-90669580D01*
G37*
%TD.AperFunction*%
D32*
X189472000Y-104253000D02*
X189492000Y-104253000D01*
X189492000Y-104507000D01*
X189472000Y-104507000D01*
X189472000Y-104527000D01*
X189218000Y-104527000D01*
X189218000Y-104507000D01*
X189198000Y-104507000D01*
X189198000Y-104253000D01*
X189218000Y-104253000D01*
X189218000Y-104233000D01*
X189472000Y-104233000D01*
X189472000Y-104253000D01*
%TA.AperFunction,Conductor*%
D33*
G36*
X189472000Y-104253000D02*
G01*
X189492000Y-104253000D01*
X189492000Y-104507000D01*
X189472000Y-104507000D01*
X189472000Y-104527000D01*
X189218000Y-104527000D01*
X189218000Y-104507000D01*
X189198000Y-104507000D01*
X189198000Y-104253000D01*
X189218000Y-104253000D01*
X189218000Y-104233000D01*
X189472000Y-104233000D01*
X189472000Y-104253000D01*
G37*
%TD.AperFunction*%
%TD*%
M02*
