%TF.GenerationSoftware,KiCad,Pcbnew,(5.1.10)-1*%
%TF.CreationDate,2021-10-26T10:29:25+05:30*%
%TF.ProjectId,RP2040+BMI,52503230-3430-42b4-924d-492e6b696361,rev?*%
%TF.SameCoordinates,Original*%
%TF.FileFunction,Copper,L2,Bot*%
%TF.FilePolarity,Positive*%
%FSLAX46Y46*%
G04 Gerber Fmt 4.6, Leading zero omitted, Abs format (unit mm)*
G04 Created by KiCad (PCBNEW (5.1.10)-1) date 2021-10-26 10:29:25*
%MOMM*%
%LPD*%
G01*
G04 APERTURE LIST*
%TA.AperFunction,ComponentPad*%
%ADD10O,1.700000X1.700000*%
%TD*%
%TA.AperFunction,ComponentPad*%
%ADD11R,1.700000X1.700000*%
%TD*%
%TA.AperFunction,ViaPad*%
%ADD12C,0.600000*%
%TD*%
%TA.AperFunction,ViaPad*%
%ADD13C,0.450000*%
%TD*%
%TA.AperFunction,Conductor*%
%ADD14C,0.200000*%
%TD*%
%TA.AperFunction,Conductor*%
%ADD15C,0.300000*%
%TD*%
%TA.AperFunction,Conductor*%
%ADD16C,0.500000*%
%TD*%
%TA.AperFunction,Conductor*%
%ADD17C,0.254000*%
%TD*%
%TA.AperFunction,Conductor*%
%ADD18C,0.100000*%
%TD*%
G04 APERTURE END LIST*
%TO.P,R2,2*%
%TO.N,Net-(R2-Pad2)*%
%TA.AperFunction,SMDPad,CuDef*%
G36*
G01*
X184845000Y-110255000D02*
X184295000Y-110255000D01*
G75*
G02*
X184095000Y-110055000I0J200000D01*
G01*
X184095000Y-109655000D01*
G75*
G02*
X184295000Y-109455000I200000J0D01*
G01*
X184845000Y-109455000D01*
G75*
G02*
X185045000Y-109655000I0J-200000D01*
G01*
X185045000Y-110055000D01*
G75*
G02*
X184845000Y-110255000I-200000J0D01*
G01*
G37*
%TD.AperFunction*%
%TO.P,R2,1*%
%TO.N,Net-(C6-Pad2)*%
%TA.AperFunction,SMDPad,CuDef*%
G36*
G01*
X184845000Y-111905000D02*
X184295000Y-111905000D01*
G75*
G02*
X184095000Y-111705000I0J200000D01*
G01*
X184095000Y-111305000D01*
G75*
G02*
X184295000Y-111105000I200000J0D01*
G01*
X184845000Y-111105000D01*
G75*
G02*
X185045000Y-111305000I0J-200000D01*
G01*
X185045000Y-111705000D01*
G75*
G02*
X184845000Y-111905000I-200000J0D01*
G01*
G37*
%TD.AperFunction*%
%TD*%
D10*
%TO.P,J2,4*%
%TO.N,GND*%
X190240000Y-117700000D03*
%TO.P,J2,3*%
%TO.N,/SWD*%
X187700000Y-117700000D03*
%TO.P,J2,2*%
%TO.N,/SWCLK*%
X185160000Y-117700000D03*
D11*
%TO.P,J2,1*%
%TO.N,+3V3*%
X182620000Y-117700000D03*
%TD*%
%TO.P,C19,2*%
%TO.N,GND*%
%TA.AperFunction,SMDPad,CuDef*%
G36*
G01*
X177175000Y-99650000D02*
X177175000Y-100150000D01*
G75*
G02*
X176950000Y-100375000I-225000J0D01*
G01*
X176500000Y-100375000D01*
G75*
G02*
X176275000Y-100150000I0J225000D01*
G01*
X176275000Y-99650000D01*
G75*
G02*
X176500000Y-99425000I225000J0D01*
G01*
X176950000Y-99425000D01*
G75*
G02*
X177175000Y-99650000I0J-225000D01*
G01*
G37*
%TD.AperFunction*%
%TO.P,C19,1*%
%TO.N,+3V3*%
%TA.AperFunction,SMDPad,CuDef*%
G36*
G01*
X178725000Y-99650000D02*
X178725000Y-100150000D01*
G75*
G02*
X178500000Y-100375000I-225000J0D01*
G01*
X178050000Y-100375000D01*
G75*
G02*
X177825000Y-100150000I0J225000D01*
G01*
X177825000Y-99650000D01*
G75*
G02*
X178050000Y-99425000I225000J0D01*
G01*
X178500000Y-99425000D01*
G75*
G02*
X178725000Y-99650000I0J-225000D01*
G01*
G37*
%TD.AperFunction*%
%TD*%
%TO.P,C18,2*%
%TO.N,GND*%
%TA.AperFunction,SMDPad,CuDef*%
G36*
G01*
X186815000Y-107350000D02*
X186815000Y-106850000D01*
G75*
G02*
X187040000Y-106625000I225000J0D01*
G01*
X187490000Y-106625000D01*
G75*
G02*
X187715000Y-106850000I0J-225000D01*
G01*
X187715000Y-107350000D01*
G75*
G02*
X187490000Y-107575000I-225000J0D01*
G01*
X187040000Y-107575000D01*
G75*
G02*
X186815000Y-107350000I0J225000D01*
G01*
G37*
%TD.AperFunction*%
%TO.P,C18,1*%
%TO.N,+1V1*%
%TA.AperFunction,SMDPad,CuDef*%
G36*
G01*
X185265000Y-107350000D02*
X185265000Y-106850000D01*
G75*
G02*
X185490000Y-106625000I225000J0D01*
G01*
X185940000Y-106625000D01*
G75*
G02*
X186165000Y-106850000I0J-225000D01*
G01*
X186165000Y-107350000D01*
G75*
G02*
X185940000Y-107575000I-225000J0D01*
G01*
X185490000Y-107575000D01*
G75*
G02*
X185265000Y-107350000I0J225000D01*
G01*
G37*
%TD.AperFunction*%
%TD*%
%TO.P,C15,2*%
%TO.N,GND*%
%TA.AperFunction,SMDPad,CuDef*%
G36*
G01*
X182850000Y-104325000D02*
X183350000Y-104325000D01*
G75*
G02*
X183575000Y-104550000I0J-225000D01*
G01*
X183575000Y-105000000D01*
G75*
G02*
X183350000Y-105225000I-225000J0D01*
G01*
X182850000Y-105225000D01*
G75*
G02*
X182625000Y-105000000I0J225000D01*
G01*
X182625000Y-104550000D01*
G75*
G02*
X182850000Y-104325000I225000J0D01*
G01*
G37*
%TD.AperFunction*%
%TO.P,C15,1*%
%TO.N,+1V1*%
%TA.AperFunction,SMDPad,CuDef*%
G36*
G01*
X182850000Y-102775000D02*
X183350000Y-102775000D01*
G75*
G02*
X183575000Y-103000000I0J-225000D01*
G01*
X183575000Y-103450000D01*
G75*
G02*
X183350000Y-103675000I-225000J0D01*
G01*
X182850000Y-103675000D01*
G75*
G02*
X182625000Y-103450000I0J225000D01*
G01*
X182625000Y-103000000D01*
G75*
G02*
X182850000Y-102775000I225000J0D01*
G01*
G37*
%TD.AperFunction*%
%TD*%
%TO.P,C11,2*%
%TO.N,GND*%
%TA.AperFunction,SMDPad,CuDef*%
G36*
G01*
X182445000Y-106860000D02*
X182445000Y-107360000D01*
G75*
G02*
X182220000Y-107585000I-225000J0D01*
G01*
X181770000Y-107585000D01*
G75*
G02*
X181545000Y-107360000I0J225000D01*
G01*
X181545000Y-106860000D01*
G75*
G02*
X181770000Y-106635000I225000J0D01*
G01*
X182220000Y-106635000D01*
G75*
G02*
X182445000Y-106860000I0J-225000D01*
G01*
G37*
%TD.AperFunction*%
%TO.P,C11,1*%
%TO.N,+3V3*%
%TA.AperFunction,SMDPad,CuDef*%
G36*
G01*
X183995000Y-106860000D02*
X183995000Y-107360000D01*
G75*
G02*
X183770000Y-107585000I-225000J0D01*
G01*
X183320000Y-107585000D01*
G75*
G02*
X183095000Y-107360000I0J225000D01*
G01*
X183095000Y-106860000D01*
G75*
G02*
X183320000Y-106635000I225000J0D01*
G01*
X183770000Y-106635000D01*
G75*
G02*
X183995000Y-106860000I0J-225000D01*
G01*
G37*
%TD.AperFunction*%
%TD*%
%TO.P,C9,2*%
%TO.N,GND*%
%TA.AperFunction,SMDPad,CuDef*%
G36*
G01*
X186250000Y-98775000D02*
X185750000Y-98775000D01*
G75*
G02*
X185525000Y-98550000I0J225000D01*
G01*
X185525000Y-98100000D01*
G75*
G02*
X185750000Y-97875000I225000J0D01*
G01*
X186250000Y-97875000D01*
G75*
G02*
X186475000Y-98100000I0J-225000D01*
G01*
X186475000Y-98550000D01*
G75*
G02*
X186250000Y-98775000I-225000J0D01*
G01*
G37*
%TD.AperFunction*%
%TO.P,C9,1*%
%TO.N,+3V3*%
%TA.AperFunction,SMDPad,CuDef*%
G36*
G01*
X186250000Y-100325000D02*
X185750000Y-100325000D01*
G75*
G02*
X185525000Y-100100000I0J225000D01*
G01*
X185525000Y-99650000D01*
G75*
G02*
X185750000Y-99425000I225000J0D01*
G01*
X186250000Y-99425000D01*
G75*
G02*
X186475000Y-99650000I0J-225000D01*
G01*
X186475000Y-100100000D01*
G75*
G02*
X186250000Y-100325000I-225000J0D01*
G01*
G37*
%TD.AperFunction*%
%TD*%
%TO.P,C8,2*%
%TO.N,GND*%
%TA.AperFunction,SMDPad,CuDef*%
G36*
G01*
X185840000Y-104325000D02*
X186340000Y-104325000D01*
G75*
G02*
X186565000Y-104550000I0J-225000D01*
G01*
X186565000Y-105000000D01*
G75*
G02*
X186340000Y-105225000I-225000J0D01*
G01*
X185840000Y-105225000D01*
G75*
G02*
X185615000Y-105000000I0J225000D01*
G01*
X185615000Y-104550000D01*
G75*
G02*
X185840000Y-104325000I225000J0D01*
G01*
G37*
%TD.AperFunction*%
%TO.P,C8,1*%
%TO.N,+1V1*%
%TA.AperFunction,SMDPad,CuDef*%
G36*
G01*
X185840000Y-102775000D02*
X186340000Y-102775000D01*
G75*
G02*
X186565000Y-103000000I0J-225000D01*
G01*
X186565000Y-103450000D01*
G75*
G02*
X186340000Y-103675000I-225000J0D01*
G01*
X185840000Y-103675000D01*
G75*
G02*
X185615000Y-103450000I0J225000D01*
G01*
X185615000Y-103000000D01*
G75*
G02*
X185840000Y-102775000I225000J0D01*
G01*
G37*
%TD.AperFunction*%
%TD*%
%TO.P,C7,2*%
%TO.N,GND*%
%TA.AperFunction,SMDPad,CuDef*%
G36*
G01*
X187770000Y-98725000D02*
X187270000Y-98725000D01*
G75*
G02*
X187045000Y-98500000I0J225000D01*
G01*
X187045000Y-98050000D01*
G75*
G02*
X187270000Y-97825000I225000J0D01*
G01*
X187770000Y-97825000D01*
G75*
G02*
X187995000Y-98050000I0J-225000D01*
G01*
X187995000Y-98500000D01*
G75*
G02*
X187770000Y-98725000I-225000J0D01*
G01*
G37*
%TD.AperFunction*%
%TO.P,C7,1*%
%TO.N,+3V3*%
%TA.AperFunction,SMDPad,CuDef*%
G36*
G01*
X187770000Y-100275000D02*
X187270000Y-100275000D01*
G75*
G02*
X187045000Y-100050000I0J225000D01*
G01*
X187045000Y-99600000D01*
G75*
G02*
X187270000Y-99375000I225000J0D01*
G01*
X187770000Y-99375000D01*
G75*
G02*
X187995000Y-99600000I0J-225000D01*
G01*
X187995000Y-100050000D01*
G75*
G02*
X187770000Y-100275000I-225000J0D01*
G01*
G37*
%TD.AperFunction*%
%TD*%
%TO.P,C6,2*%
%TO.N,Net-(C6-Pad2)*%
%TA.AperFunction,SMDPad,CuDef*%
G36*
G01*
X184940000Y-114225000D02*
X184440000Y-114225000D01*
G75*
G02*
X184215000Y-114000000I0J225000D01*
G01*
X184215000Y-113550000D01*
G75*
G02*
X184440000Y-113325000I225000J0D01*
G01*
X184940000Y-113325000D01*
G75*
G02*
X185165000Y-113550000I0J-225000D01*
G01*
X185165000Y-114000000D01*
G75*
G02*
X184940000Y-114225000I-225000J0D01*
G01*
G37*
%TD.AperFunction*%
%TO.P,C6,1*%
%TO.N,GND*%
%TA.AperFunction,SMDPad,CuDef*%
G36*
G01*
X184940000Y-115775000D02*
X184440000Y-115775000D01*
G75*
G02*
X184215000Y-115550000I0J225000D01*
G01*
X184215000Y-115100000D01*
G75*
G02*
X184440000Y-114875000I225000J0D01*
G01*
X184940000Y-114875000D01*
G75*
G02*
X185165000Y-115100000I0J-225000D01*
G01*
X185165000Y-115550000D01*
G75*
G02*
X184940000Y-115775000I-225000J0D01*
G01*
G37*
%TD.AperFunction*%
%TD*%
%TO.P,C5,2*%
%TO.N,GND*%
%TA.AperFunction,SMDPad,CuDef*%
G36*
G01*
X182930000Y-114855000D02*
X183430000Y-114855000D01*
G75*
G02*
X183655000Y-115080000I0J-225000D01*
G01*
X183655000Y-115530000D01*
G75*
G02*
X183430000Y-115755000I-225000J0D01*
G01*
X182930000Y-115755000D01*
G75*
G02*
X182705000Y-115530000I0J225000D01*
G01*
X182705000Y-115080000D01*
G75*
G02*
X182930000Y-114855000I225000J0D01*
G01*
G37*
%TD.AperFunction*%
%TO.P,C5,1*%
%TO.N,Net-(C5-Pad1)*%
%TA.AperFunction,SMDPad,CuDef*%
G36*
G01*
X182930000Y-113305000D02*
X183430000Y-113305000D01*
G75*
G02*
X183655000Y-113530000I0J-225000D01*
G01*
X183655000Y-113980000D01*
G75*
G02*
X183430000Y-114205000I-225000J0D01*
G01*
X182930000Y-114205000D01*
G75*
G02*
X182705000Y-113980000I0J225000D01*
G01*
X182705000Y-113530000D01*
G75*
G02*
X182930000Y-113305000I225000J0D01*
G01*
G37*
%TD.AperFunction*%
%TD*%
%TO.P,C3,2*%
%TO.N,GND*%
%TA.AperFunction,SMDPad,CuDef*%
G36*
G01*
X189150000Y-97725000D02*
X189650000Y-97725000D01*
G75*
G02*
X189875000Y-97950000I0J-225000D01*
G01*
X189875000Y-98400000D01*
G75*
G02*
X189650000Y-98625000I-225000J0D01*
G01*
X189150000Y-98625000D01*
G75*
G02*
X188925000Y-98400000I0J225000D01*
G01*
X188925000Y-97950000D01*
G75*
G02*
X189150000Y-97725000I225000J0D01*
G01*
G37*
%TD.AperFunction*%
%TO.P,C3,1*%
%TO.N,+5V*%
%TA.AperFunction,SMDPad,CuDef*%
G36*
G01*
X189150000Y-96175000D02*
X189650000Y-96175000D01*
G75*
G02*
X189875000Y-96400000I0J-225000D01*
G01*
X189875000Y-96850000D01*
G75*
G02*
X189650000Y-97075000I-225000J0D01*
G01*
X189150000Y-97075000D01*
G75*
G02*
X188925000Y-96850000I0J225000D01*
G01*
X188925000Y-96400000D01*
G75*
G02*
X189150000Y-96175000I225000J0D01*
G01*
G37*
%TD.AperFunction*%
%TD*%
%TO.P,C2,2*%
%TO.N,GND*%
%TA.AperFunction,SMDPad,CuDef*%
G36*
G01*
X184350000Y-104325000D02*
X184850000Y-104325000D01*
G75*
G02*
X185075000Y-104550000I0J-225000D01*
G01*
X185075000Y-105000000D01*
G75*
G02*
X184850000Y-105225000I-225000J0D01*
G01*
X184350000Y-105225000D01*
G75*
G02*
X184125000Y-105000000I0J225000D01*
G01*
X184125000Y-104550000D01*
G75*
G02*
X184350000Y-104325000I225000J0D01*
G01*
G37*
%TD.AperFunction*%
%TO.P,C2,1*%
%TO.N,+3V3*%
%TA.AperFunction,SMDPad,CuDef*%
G36*
G01*
X184350000Y-102775000D02*
X184850000Y-102775000D01*
G75*
G02*
X185075000Y-103000000I0J-225000D01*
G01*
X185075000Y-103450000D01*
G75*
G02*
X184850000Y-103675000I-225000J0D01*
G01*
X184350000Y-103675000D01*
G75*
G02*
X184125000Y-103450000I0J225000D01*
G01*
X184125000Y-103000000D01*
G75*
G02*
X184350000Y-102775000I225000J0D01*
G01*
G37*
%TD.AperFunction*%
%TD*%
D12*
%TO.N,GND*%
X176100000Y-98570000D03*
X187490000Y-97440000D03*
X183740000Y-95260000D03*
X191430000Y-102410000D03*
X194640000Y-97990000D03*
X189410000Y-99140000D03*
X190810000Y-97370000D03*
X178100000Y-104000000D03*
X178100000Y-107600000D03*
X173530000Y-110650000D03*
X179200000Y-114740000D03*
D13*
X175790000Y-112600000D03*
X176960000Y-111630000D03*
D12*
X181870000Y-104980000D03*
X189830000Y-107800000D03*
X191830000Y-104420000D03*
X192590000Y-112230000D03*
X196650000Y-105460000D03*
X196640000Y-108430000D03*
D13*
X182610000Y-109250000D03*
D12*
%TO.N,+3V3*%
X184600000Y-102500000D03*
X186052646Y-100622646D03*
X186900000Y-100770000D03*
X194670000Y-96450000D03*
X179000000Y-101100000D03*
X178200000Y-102500000D03*
X178100000Y-106000000D03*
X173520000Y-113890000D03*
X175110000Y-110510000D03*
X184370000Y-107200000D03*
D13*
X188580000Y-104350000D03*
X189770000Y-106170000D03*
D12*
%TO.N,+5V*%
X188480000Y-95330000D03*
D13*
%TO.N,Net-(C5-Pad1)*%
X183000000Y-109820000D03*
D12*
%TO.N,+1V1*%
X183200000Y-102500000D03*
X185830000Y-102440000D03*
D13*
X185021902Y-107211436D03*
D12*
%TO.N,Net-(R2-Pad2)*%
X183770000Y-109510000D03*
%TO.N,/SCL*%
X181927000Y-109690000D03*
X176360000Y-109730000D03*
D13*
%TO.N,Net-(C6-Pad2)*%
X185460990Y-113060000D03*
%TD*%
D14*
%TO.N,GND*%
X186010000Y-98275000D02*
X187520000Y-98275000D01*
X187520000Y-97470000D02*
X187490000Y-97440000D01*
X187520000Y-98275000D02*
X187520000Y-97470000D01*
D15*
X189400000Y-99130000D02*
X189410000Y-99140000D01*
X189400000Y-98175000D02*
X189400000Y-99130000D01*
D14*
X181995000Y-105105000D02*
X181870000Y-104980000D01*
X181995000Y-107110000D02*
X181995000Y-105105000D01*
X181995000Y-108635000D02*
X182610000Y-109250000D01*
X181995000Y-107110000D02*
X181995000Y-108635000D01*
%TO.N,+3V3*%
X184600000Y-103225000D02*
X184600000Y-102500000D01*
X186010000Y-100580000D02*
X186052646Y-100622646D01*
X186010000Y-99825000D02*
X186010000Y-100580000D01*
X187520000Y-100150000D02*
X186900000Y-100770000D01*
X187520000Y-99825000D02*
X187520000Y-100150000D01*
X179000000Y-101100000D02*
X178400000Y-101100000D01*
X178275000Y-100975000D02*
X178275000Y-99900000D01*
X178400000Y-101100000D02*
X178275000Y-100975000D01*
X183635000Y-107200000D02*
X183545000Y-107110000D01*
X184370000Y-107200000D02*
X183635000Y-107200000D01*
X188580000Y-104980000D02*
X189770000Y-106170000D01*
X188580000Y-104350000D02*
X188580000Y-104980000D01*
X186052646Y-100622646D02*
X184767354Y-100622646D01*
X184600000Y-100790000D02*
X184600000Y-102500000D01*
X184767354Y-100622646D02*
X184600000Y-100790000D01*
X184370000Y-107200000D02*
X184370000Y-108340000D01*
X184370000Y-108340000D02*
X184570000Y-108540000D01*
X184570000Y-108540000D02*
X187990000Y-108540000D01*
X187990000Y-108540000D02*
X188710000Y-107820000D01*
X188710000Y-107820000D02*
X188710000Y-106650000D01*
X189190000Y-106170000D02*
X189770000Y-106170000D01*
X188710000Y-106650000D02*
X189190000Y-106170000D01*
X175110000Y-110510000D02*
X175110000Y-113650000D01*
X174870000Y-113890000D02*
X173520000Y-113890000D01*
X175110000Y-113650000D02*
X174870000Y-113890000D01*
D16*
%TO.N,+5V*%
X189400000Y-96625000D02*
X189400000Y-95690000D01*
X189040000Y-95330000D02*
X188480000Y-95330000D01*
X189400000Y-95690000D02*
X189040000Y-95330000D01*
D14*
%TO.N,Net-(C5-Pad1)*%
X183180000Y-110000000D02*
X183000000Y-109820000D01*
X183180000Y-113755000D02*
X183180000Y-110000000D01*
%TO.N,+1V1*%
X183100000Y-102600000D02*
X183200000Y-102500000D01*
X183100000Y-103225000D02*
X183100000Y-102600000D01*
X186090000Y-102700000D02*
X185830000Y-102440000D01*
X186090000Y-103225000D02*
X186090000Y-102700000D01*
X185603564Y-107211436D02*
X185715000Y-107100000D01*
X185021902Y-107211436D02*
X185603564Y-107211436D01*
%TO.N,Net-(R2-Pad2)*%
X184115000Y-109855000D02*
X183770000Y-109510000D01*
X184570000Y-109855000D02*
X184115000Y-109855000D01*
%TO.N,/SCL*%
X176400000Y-109690000D02*
X176360000Y-109730000D01*
X181927000Y-109690000D02*
X176400000Y-109690000D01*
%TO.N,Net-(C6-Pad2)*%
X184570000Y-113655000D02*
X184690000Y-113775000D01*
X184670000Y-113060000D02*
X184570000Y-112960000D01*
X185460990Y-113060000D02*
X184670000Y-113060000D01*
X184570000Y-112960000D02*
X184570000Y-113655000D01*
X184570000Y-111505000D02*
X184570000Y-112960000D01*
%TD*%
D17*
%TO.N,GND*%
X197065424Y-90669580D02*
X197128356Y-90688580D01*
X197186405Y-90719445D01*
X197237343Y-90760989D01*
X197279248Y-90811644D01*
X197310515Y-90869471D01*
X197329956Y-90932272D01*
X197340000Y-91027835D01*
X197340001Y-118967711D01*
X197330420Y-119065424D01*
X197311420Y-119128357D01*
X197280554Y-119186406D01*
X197239011Y-119237343D01*
X197188356Y-119279248D01*
X197130529Y-119310515D01*
X197067728Y-119329956D01*
X196972165Y-119340000D01*
X173032279Y-119340000D01*
X172934576Y-119330420D01*
X172871643Y-119311420D01*
X172813594Y-119280554D01*
X172762657Y-119239011D01*
X172720752Y-119188356D01*
X172689485Y-119130529D01*
X172670044Y-119067728D01*
X172660000Y-118972165D01*
X172660000Y-116850000D01*
X181131928Y-116850000D01*
X181131928Y-118550000D01*
X181144188Y-118674482D01*
X181180498Y-118794180D01*
X181239463Y-118904494D01*
X181318815Y-119001185D01*
X181415506Y-119080537D01*
X181525820Y-119139502D01*
X181645518Y-119175812D01*
X181770000Y-119188072D01*
X183470000Y-119188072D01*
X183594482Y-119175812D01*
X183714180Y-119139502D01*
X183824494Y-119080537D01*
X183921185Y-119001185D01*
X184000537Y-118904494D01*
X184059502Y-118794180D01*
X184081513Y-118721620D01*
X184213368Y-118853475D01*
X184456589Y-119015990D01*
X184726842Y-119127932D01*
X185013740Y-119185000D01*
X185306260Y-119185000D01*
X185593158Y-119127932D01*
X185863411Y-119015990D01*
X186106632Y-118853475D01*
X186313475Y-118646632D01*
X186430000Y-118472240D01*
X186546525Y-118646632D01*
X186753368Y-118853475D01*
X186996589Y-119015990D01*
X187266842Y-119127932D01*
X187553740Y-119185000D01*
X187846260Y-119185000D01*
X188133158Y-119127932D01*
X188403411Y-119015990D01*
X188646632Y-118853475D01*
X188853475Y-118646632D01*
X188975195Y-118464466D01*
X189044822Y-118581355D01*
X189239731Y-118797588D01*
X189473080Y-118971641D01*
X189735901Y-119096825D01*
X189883110Y-119141476D01*
X190113000Y-119020155D01*
X190113000Y-117827000D01*
X190367000Y-117827000D01*
X190367000Y-119020155D01*
X190596890Y-119141476D01*
X190744099Y-119096825D01*
X191006920Y-118971641D01*
X191240269Y-118797588D01*
X191435178Y-118581355D01*
X191584157Y-118331252D01*
X191681481Y-118056891D01*
X191560814Y-117827000D01*
X190367000Y-117827000D01*
X190113000Y-117827000D01*
X190093000Y-117827000D01*
X190093000Y-117573000D01*
X190113000Y-117573000D01*
X190113000Y-116379845D01*
X190367000Y-116379845D01*
X190367000Y-117573000D01*
X191560814Y-117573000D01*
X191681481Y-117343109D01*
X191584157Y-117068748D01*
X191435178Y-116818645D01*
X191240269Y-116602412D01*
X191006920Y-116428359D01*
X190744099Y-116303175D01*
X190596890Y-116258524D01*
X190367000Y-116379845D01*
X190113000Y-116379845D01*
X189883110Y-116258524D01*
X189735901Y-116303175D01*
X189473080Y-116428359D01*
X189239731Y-116602412D01*
X189044822Y-116818645D01*
X188975195Y-116935534D01*
X188853475Y-116753368D01*
X188646632Y-116546525D01*
X188403411Y-116384010D01*
X188133158Y-116272068D01*
X187846260Y-116215000D01*
X187553740Y-116215000D01*
X187266842Y-116272068D01*
X186996589Y-116384010D01*
X186753368Y-116546525D01*
X186546525Y-116753368D01*
X186430000Y-116927760D01*
X186313475Y-116753368D01*
X186106632Y-116546525D01*
X185863411Y-116384010D01*
X185593158Y-116272068D01*
X185566691Y-116266803D01*
X185616185Y-116226185D01*
X185695537Y-116129494D01*
X185754502Y-116019180D01*
X185790812Y-115899482D01*
X185803072Y-115775000D01*
X185800000Y-115610750D01*
X185641250Y-115452000D01*
X184817000Y-115452000D01*
X184817000Y-115472000D01*
X184563000Y-115472000D01*
X184563000Y-115452000D01*
X184151250Y-115452000D01*
X184131250Y-115432000D01*
X183307000Y-115432000D01*
X183307000Y-115452000D01*
X183053000Y-115452000D01*
X183053000Y-115432000D01*
X182228750Y-115432000D01*
X182070000Y-115590750D01*
X182066928Y-115755000D01*
X182079188Y-115879482D01*
X182115498Y-115999180D01*
X182174463Y-116109494D01*
X182253815Y-116206185D01*
X182260813Y-116211928D01*
X181770000Y-116211928D01*
X181645518Y-116224188D01*
X181525820Y-116260498D01*
X181415506Y-116319463D01*
X181318815Y-116398815D01*
X181239463Y-116495506D01*
X181180498Y-116605820D01*
X181144188Y-116725518D01*
X181131928Y-116850000D01*
X172660000Y-116850000D01*
X172660000Y-114257048D01*
X172691414Y-114332889D01*
X172793738Y-114486028D01*
X172923972Y-114616262D01*
X173077111Y-114718586D01*
X173247271Y-114789068D01*
X173427911Y-114825000D01*
X173612089Y-114825000D01*
X173792729Y-114789068D01*
X173962889Y-114718586D01*
X174102951Y-114625000D01*
X174833895Y-114625000D01*
X174870000Y-114628556D01*
X174906105Y-114625000D01*
X175014085Y-114614365D01*
X175152633Y-114572337D01*
X175280320Y-114504087D01*
X175392238Y-114412238D01*
X175415259Y-114384187D01*
X175604187Y-114195259D01*
X175632238Y-114172238D01*
X175724087Y-114060320D01*
X175792337Y-113932633D01*
X175834365Y-113794085D01*
X175845000Y-113686105D01*
X175845000Y-113686096D01*
X175848555Y-113650001D01*
X175845000Y-113613906D01*
X175845000Y-111092951D01*
X175938586Y-110952889D01*
X176009068Y-110782729D01*
X176043260Y-110610838D01*
X176087271Y-110629068D01*
X176267911Y-110665000D01*
X176452089Y-110665000D01*
X176632729Y-110629068D01*
X176802889Y-110558586D01*
X176956028Y-110456262D01*
X176987290Y-110425000D01*
X181344049Y-110425000D01*
X181484111Y-110518586D01*
X181654271Y-110589068D01*
X181834911Y-110625000D01*
X182019089Y-110625000D01*
X182199729Y-110589068D01*
X182369889Y-110518586D01*
X182437312Y-110473535D01*
X182445001Y-110481224D01*
X182445000Y-112816898D01*
X182319716Y-112919716D01*
X182212382Y-113050503D01*
X182132625Y-113199717D01*
X182083512Y-113361623D01*
X182066928Y-113530000D01*
X182066928Y-113980000D01*
X182083512Y-114148377D01*
X182132625Y-114310283D01*
X182210700Y-114456351D01*
X182174463Y-114500506D01*
X182115498Y-114610820D01*
X182079188Y-114730518D01*
X182066928Y-114855000D01*
X182070000Y-115019250D01*
X182228750Y-115178000D01*
X183053000Y-115178000D01*
X183053000Y-115158000D01*
X183307000Y-115158000D01*
X183307000Y-115178000D01*
X183718750Y-115178000D01*
X183738750Y-115198000D01*
X184563000Y-115198000D01*
X184563000Y-115178000D01*
X184817000Y-115178000D01*
X184817000Y-115198000D01*
X185641250Y-115198000D01*
X185800000Y-115039250D01*
X185803072Y-114875000D01*
X185790812Y-114750518D01*
X185754502Y-114630820D01*
X185695537Y-114520506D01*
X185659300Y-114476351D01*
X185737375Y-114330283D01*
X185786488Y-114168377D01*
X185803072Y-114000000D01*
X185803072Y-113849162D01*
X185868353Y-113822122D01*
X186009208Y-113728005D01*
X186128995Y-113608218D01*
X186223112Y-113467363D01*
X186287941Y-113310853D01*
X186320990Y-113144703D01*
X186320990Y-112975297D01*
X186287941Y-112809147D01*
X186223112Y-112652637D01*
X186128995Y-112511782D01*
X186009208Y-112391995D01*
X185868353Y-112297878D01*
X185711843Y-112233049D01*
X185545693Y-112200000D01*
X185517710Y-112200000D01*
X185541831Y-112170608D01*
X185619278Y-112025716D01*
X185666969Y-111868500D01*
X185683072Y-111705000D01*
X185683072Y-111305000D01*
X185666969Y-111141500D01*
X185619278Y-110984284D01*
X185541831Y-110839392D01*
X185437606Y-110712394D01*
X185398134Y-110680000D01*
X185437606Y-110647606D01*
X185541831Y-110520608D01*
X185619278Y-110375716D01*
X185666969Y-110218500D01*
X185683072Y-110055000D01*
X185683072Y-109655000D01*
X185666969Y-109491500D01*
X185619278Y-109334284D01*
X185587590Y-109275000D01*
X187953895Y-109275000D01*
X187990000Y-109278556D01*
X188026105Y-109275000D01*
X188134085Y-109264365D01*
X188272633Y-109222337D01*
X188400320Y-109154087D01*
X188512238Y-109062238D01*
X188535258Y-109034188D01*
X189204197Y-108365250D01*
X189232237Y-108342238D01*
X189255250Y-108314197D01*
X189255253Y-108314194D01*
X189324087Y-108230320D01*
X189339859Y-108200812D01*
X189392337Y-108102633D01*
X189434365Y-107964085D01*
X189445000Y-107856105D01*
X189445000Y-107856104D01*
X189448556Y-107820000D01*
X189445000Y-107783895D01*
X189445000Y-106966238D01*
X189519147Y-106996951D01*
X189685297Y-107030000D01*
X189854703Y-107030000D01*
X190020853Y-106996951D01*
X190177363Y-106932122D01*
X190318218Y-106838005D01*
X190438005Y-106718218D01*
X190532122Y-106577363D01*
X190596951Y-106420853D01*
X190630000Y-106254703D01*
X190630000Y-106085297D01*
X190596951Y-105919147D01*
X190532122Y-105762637D01*
X190438005Y-105621782D01*
X190318218Y-105501995D01*
X190177363Y-105407878D01*
X190020853Y-105343049D01*
X189972972Y-105333525D01*
X189358140Y-104718693D01*
X189406951Y-104600853D01*
X189440000Y-104434703D01*
X189440000Y-104265297D01*
X189406951Y-104099147D01*
X189342122Y-103942637D01*
X189248005Y-103801782D01*
X189128218Y-103681995D01*
X188987363Y-103587878D01*
X188830853Y-103523049D01*
X188664703Y-103490000D01*
X188495297Y-103490000D01*
X188329147Y-103523049D01*
X188172637Y-103587878D01*
X188031782Y-103681995D01*
X187911995Y-103801782D01*
X187817878Y-103942637D01*
X187753049Y-104099147D01*
X187720000Y-104265297D01*
X187720000Y-104434703D01*
X187753049Y-104600853D01*
X187817878Y-104757363D01*
X187845000Y-104797954D01*
X187845000Y-104943895D01*
X187841444Y-104980000D01*
X187845000Y-105016105D01*
X187855635Y-105124085D01*
X187897663Y-105262633D01*
X187965914Y-105390320D01*
X188057763Y-105502238D01*
X188085808Y-105525254D01*
X188440554Y-105880000D01*
X188215808Y-106104746D01*
X188187763Y-106127762D01*
X188156495Y-106165862D01*
X188069494Y-106094463D01*
X187959180Y-106035498D01*
X187839482Y-105999188D01*
X187715000Y-105986928D01*
X187550750Y-105990000D01*
X187392000Y-106148750D01*
X187392000Y-106973000D01*
X187412000Y-106973000D01*
X187412000Y-107227000D01*
X187392000Y-107227000D01*
X187392000Y-107247000D01*
X187138000Y-107247000D01*
X187138000Y-107227000D01*
X187118000Y-107227000D01*
X187118000Y-106973000D01*
X187138000Y-106973000D01*
X187138000Y-106148750D01*
X186979250Y-105990000D01*
X186815000Y-105986928D01*
X186690518Y-105999188D01*
X186570820Y-106035498D01*
X186460506Y-106094463D01*
X186416351Y-106130700D01*
X186270283Y-106052625D01*
X186108377Y-106003512D01*
X185940000Y-105986928D01*
X185490000Y-105986928D01*
X185321623Y-106003512D01*
X185159717Y-106052625D01*
X185010503Y-106132382D01*
X184879716Y-106239716D01*
X184782100Y-106358661D01*
X184642729Y-106300932D01*
X184462089Y-106265000D01*
X184392827Y-106265000D01*
X184380284Y-106249716D01*
X184249497Y-106142382D01*
X184100283Y-106062625D01*
X183938377Y-106013512D01*
X183770000Y-105996928D01*
X183320000Y-105996928D01*
X183151623Y-106013512D01*
X182989717Y-106062625D01*
X182843649Y-106140700D01*
X182799494Y-106104463D01*
X182689180Y-106045498D01*
X182569482Y-106009188D01*
X182445000Y-105996928D01*
X182280750Y-106000000D01*
X182122000Y-106158750D01*
X182122000Y-106983000D01*
X182142000Y-106983000D01*
X182142000Y-107237000D01*
X182122000Y-107237000D01*
X182122000Y-108061250D01*
X182280750Y-108220000D01*
X182445000Y-108223072D01*
X182569482Y-108210812D01*
X182689180Y-108174502D01*
X182799494Y-108115537D01*
X182843649Y-108079300D01*
X182989717Y-108157375D01*
X183151623Y-108206488D01*
X183320000Y-108223072D01*
X183635001Y-108223072D01*
X183635001Y-108303885D01*
X183631444Y-108340000D01*
X183645635Y-108484085D01*
X183673482Y-108575881D01*
X183497271Y-108610932D01*
X183327111Y-108681414D01*
X183173972Y-108783738D01*
X183043738Y-108913972D01*
X183012983Y-108960000D01*
X182915297Y-108960000D01*
X182749147Y-108993049D01*
X182609983Y-109050693D01*
X182523028Y-108963738D01*
X182369889Y-108861414D01*
X182199729Y-108790932D01*
X182019089Y-108755000D01*
X181834911Y-108755000D01*
X181654271Y-108790932D01*
X181484111Y-108861414D01*
X181344049Y-108955000D01*
X176883086Y-108955000D01*
X176802889Y-108901414D01*
X176632729Y-108830932D01*
X176452089Y-108795000D01*
X176267911Y-108795000D01*
X176087271Y-108830932D01*
X175917111Y-108901414D01*
X175763972Y-109003738D01*
X175633738Y-109133972D01*
X175531414Y-109287111D01*
X175460932Y-109457271D01*
X175426740Y-109629162D01*
X175382729Y-109610932D01*
X175202089Y-109575000D01*
X175017911Y-109575000D01*
X174837271Y-109610932D01*
X174667111Y-109681414D01*
X174513972Y-109783738D01*
X174383738Y-109913972D01*
X174281414Y-110067111D01*
X174210932Y-110237271D01*
X174175000Y-110417911D01*
X174175000Y-110602089D01*
X174210932Y-110782729D01*
X174281414Y-110952889D01*
X174375000Y-111092951D01*
X174375001Y-113155000D01*
X174102951Y-113155000D01*
X173962889Y-113061414D01*
X173792729Y-112990932D01*
X173612089Y-112955000D01*
X173427911Y-112955000D01*
X173247271Y-112990932D01*
X173077111Y-113061414D01*
X172923972Y-113163738D01*
X172793738Y-113293972D01*
X172691414Y-113447111D01*
X172660000Y-113522952D01*
X172660000Y-107585000D01*
X180906928Y-107585000D01*
X180919188Y-107709482D01*
X180955498Y-107829180D01*
X181014463Y-107939494D01*
X181093815Y-108036185D01*
X181190506Y-108115537D01*
X181300820Y-108174502D01*
X181420518Y-108210812D01*
X181545000Y-108223072D01*
X181709250Y-108220000D01*
X181868000Y-108061250D01*
X181868000Y-107237000D01*
X181068750Y-107237000D01*
X180910000Y-107395750D01*
X180906928Y-107585000D01*
X172660000Y-107585000D01*
X172660000Y-105907911D01*
X177165000Y-105907911D01*
X177165000Y-106092089D01*
X177200932Y-106272729D01*
X177271414Y-106442889D01*
X177373738Y-106596028D01*
X177503972Y-106726262D01*
X177657111Y-106828586D01*
X177827271Y-106899068D01*
X178007911Y-106935000D01*
X178192089Y-106935000D01*
X178372729Y-106899068D01*
X178542889Y-106828586D01*
X178696028Y-106726262D01*
X178787290Y-106635000D01*
X180906928Y-106635000D01*
X180910000Y-106824250D01*
X181068750Y-106983000D01*
X181868000Y-106983000D01*
X181868000Y-106158750D01*
X181709250Y-106000000D01*
X181545000Y-105996928D01*
X181420518Y-106009188D01*
X181300820Y-106045498D01*
X181190506Y-106104463D01*
X181093815Y-106183815D01*
X181014463Y-106280506D01*
X180955498Y-106390820D01*
X180919188Y-106510518D01*
X180906928Y-106635000D01*
X178787290Y-106635000D01*
X178826262Y-106596028D01*
X178928586Y-106442889D01*
X178999068Y-106272729D01*
X179035000Y-106092089D01*
X179035000Y-105907911D01*
X178999068Y-105727271D01*
X178928586Y-105557111D01*
X178826262Y-105403972D01*
X178696028Y-105273738D01*
X178623087Y-105225000D01*
X181986928Y-105225000D01*
X181999188Y-105349482D01*
X182035498Y-105469180D01*
X182094463Y-105579494D01*
X182173815Y-105676185D01*
X182270506Y-105755537D01*
X182380820Y-105814502D01*
X182500518Y-105850812D01*
X182625000Y-105863072D01*
X182814250Y-105860000D01*
X182973000Y-105701250D01*
X182973000Y-104902000D01*
X183227000Y-104902000D01*
X183227000Y-105701250D01*
X183385750Y-105860000D01*
X183575000Y-105863072D01*
X183699482Y-105850812D01*
X183819180Y-105814502D01*
X183850000Y-105798028D01*
X183880820Y-105814502D01*
X184000518Y-105850812D01*
X184125000Y-105863072D01*
X184314250Y-105860000D01*
X184473000Y-105701250D01*
X184473000Y-104902000D01*
X184727000Y-104902000D01*
X184727000Y-105701250D01*
X184885750Y-105860000D01*
X185075000Y-105863072D01*
X185199482Y-105850812D01*
X185319180Y-105814502D01*
X185345000Y-105800701D01*
X185370820Y-105814502D01*
X185490518Y-105850812D01*
X185615000Y-105863072D01*
X185804250Y-105860000D01*
X185963000Y-105701250D01*
X185963000Y-104902000D01*
X186217000Y-104902000D01*
X186217000Y-105701250D01*
X186375750Y-105860000D01*
X186565000Y-105863072D01*
X186689482Y-105850812D01*
X186809180Y-105814502D01*
X186919494Y-105755537D01*
X187016185Y-105676185D01*
X187095537Y-105579494D01*
X187154502Y-105469180D01*
X187190812Y-105349482D01*
X187203072Y-105225000D01*
X187200000Y-105060750D01*
X187041250Y-104902000D01*
X186217000Y-104902000D01*
X185963000Y-104902000D01*
X184727000Y-104902000D01*
X184473000Y-104902000D01*
X183227000Y-104902000D01*
X182973000Y-104902000D01*
X182148750Y-104902000D01*
X181990000Y-105060750D01*
X181986928Y-105225000D01*
X178623087Y-105225000D01*
X178542889Y-105171414D01*
X178372729Y-105100932D01*
X178192089Y-105065000D01*
X178007911Y-105065000D01*
X177827271Y-105100932D01*
X177657111Y-105171414D01*
X177503972Y-105273738D01*
X177373738Y-105403972D01*
X177271414Y-105557111D01*
X177200932Y-105727271D01*
X177165000Y-105907911D01*
X172660000Y-105907911D01*
X172660000Y-100375000D01*
X175636928Y-100375000D01*
X175649188Y-100499482D01*
X175685498Y-100619180D01*
X175744463Y-100729494D01*
X175823815Y-100826185D01*
X175920506Y-100905537D01*
X176030820Y-100964502D01*
X176150518Y-101000812D01*
X176275000Y-101013072D01*
X176439250Y-101010000D01*
X176598000Y-100851250D01*
X176598000Y-100027000D01*
X175798750Y-100027000D01*
X175640000Y-100185750D01*
X175636928Y-100375000D01*
X172660000Y-100375000D01*
X172660000Y-99425000D01*
X175636928Y-99425000D01*
X175640000Y-99614250D01*
X175798750Y-99773000D01*
X176598000Y-99773000D01*
X176598000Y-98948750D01*
X176852000Y-98948750D01*
X176852000Y-99773000D01*
X176872000Y-99773000D01*
X176872000Y-100027000D01*
X176852000Y-100027000D01*
X176852000Y-100851250D01*
X177010750Y-101010000D01*
X177175000Y-101013072D01*
X177299482Y-101000812D01*
X177419180Y-100964502D01*
X177529494Y-100905537D01*
X177540000Y-100896915D01*
X177540000Y-100938894D01*
X177536444Y-100975000D01*
X177540000Y-101011104D01*
X177550635Y-101119084D01*
X177592663Y-101257632D01*
X177660913Y-101385319D01*
X177752762Y-101497237D01*
X177780808Y-101520254D01*
X177854741Y-101594187D01*
X177877273Y-101621642D01*
X177757111Y-101671414D01*
X177603972Y-101773738D01*
X177473738Y-101903972D01*
X177371414Y-102057111D01*
X177300932Y-102227271D01*
X177265000Y-102407911D01*
X177265000Y-102592089D01*
X177300932Y-102772729D01*
X177371414Y-102942889D01*
X177473738Y-103096028D01*
X177603972Y-103226262D01*
X177757111Y-103328586D01*
X177927271Y-103399068D01*
X178107911Y-103435000D01*
X178292089Y-103435000D01*
X178472729Y-103399068D01*
X178642889Y-103328586D01*
X178796028Y-103226262D01*
X178926262Y-103096028D01*
X178990425Y-103000000D01*
X181986928Y-103000000D01*
X181986928Y-103450000D01*
X182003512Y-103618377D01*
X182052625Y-103780283D01*
X182130700Y-103926351D01*
X182094463Y-103970506D01*
X182035498Y-104080820D01*
X181999188Y-104200518D01*
X181986928Y-104325000D01*
X181990000Y-104489250D01*
X182148750Y-104648000D01*
X182973000Y-104648000D01*
X182973000Y-104628000D01*
X183227000Y-104628000D01*
X183227000Y-104648000D01*
X184473000Y-104648000D01*
X184473000Y-104628000D01*
X184727000Y-104628000D01*
X184727000Y-104648000D01*
X185963000Y-104648000D01*
X185963000Y-104628000D01*
X186217000Y-104628000D01*
X186217000Y-104648000D01*
X187041250Y-104648000D01*
X187200000Y-104489250D01*
X187203072Y-104325000D01*
X187190812Y-104200518D01*
X187154502Y-104080820D01*
X187095537Y-103970506D01*
X187059300Y-103926351D01*
X187137375Y-103780283D01*
X187186488Y-103618377D01*
X187203072Y-103450000D01*
X187203072Y-103000000D01*
X187186488Y-102831623D01*
X187137375Y-102669717D01*
X187057618Y-102520503D01*
X186950284Y-102389716D01*
X186819497Y-102282382D01*
X186743931Y-102241991D01*
X186729068Y-102167271D01*
X186658586Y-101997111D01*
X186556262Y-101843972D01*
X186426028Y-101713738D01*
X186272889Y-101611414D01*
X186143080Y-101557646D01*
X186144735Y-101557646D01*
X186325375Y-101521714D01*
X186335677Y-101517447D01*
X186457111Y-101598586D01*
X186627271Y-101669068D01*
X186807911Y-101705000D01*
X186992089Y-101705000D01*
X187172729Y-101669068D01*
X187342889Y-101598586D01*
X187496028Y-101496262D01*
X187626262Y-101366028D01*
X187728586Y-101212889D01*
X187799068Y-101042729D01*
X187825955Y-100907561D01*
X187938377Y-100896488D01*
X188100283Y-100847375D01*
X188249497Y-100767618D01*
X188380284Y-100660284D01*
X188487618Y-100529497D01*
X188567375Y-100380283D01*
X188616488Y-100218377D01*
X188633072Y-100050000D01*
X188633072Y-99600000D01*
X188616488Y-99431623D01*
X188567375Y-99269717D01*
X188489300Y-99123649D01*
X188506344Y-99102881D01*
X188570506Y-99155537D01*
X188680820Y-99214502D01*
X188800518Y-99250812D01*
X188925000Y-99263072D01*
X189114250Y-99260000D01*
X189273000Y-99101250D01*
X189273000Y-98302000D01*
X189527000Y-98302000D01*
X189527000Y-99101250D01*
X189685750Y-99260000D01*
X189875000Y-99263072D01*
X189999482Y-99250812D01*
X190119180Y-99214502D01*
X190229494Y-99155537D01*
X190326185Y-99076185D01*
X190405537Y-98979494D01*
X190464502Y-98869180D01*
X190500812Y-98749482D01*
X190513072Y-98625000D01*
X190510000Y-98460750D01*
X190351250Y-98302000D01*
X189527000Y-98302000D01*
X189273000Y-98302000D01*
X188448750Y-98302000D01*
X188348750Y-98402000D01*
X187647000Y-98402000D01*
X187647000Y-98422000D01*
X187393000Y-98422000D01*
X187393000Y-98402000D01*
X186568750Y-98402000D01*
X186518750Y-98452000D01*
X186127000Y-98452000D01*
X186127000Y-98472000D01*
X185873000Y-98472000D01*
X185873000Y-98452000D01*
X185048750Y-98452000D01*
X184890000Y-98610750D01*
X184886928Y-98775000D01*
X184899188Y-98899482D01*
X184935498Y-99019180D01*
X184994463Y-99129494D01*
X185030700Y-99173649D01*
X184952625Y-99319717D01*
X184903512Y-99481623D01*
X184886928Y-99650000D01*
X184886928Y-99887646D01*
X184803448Y-99887646D01*
X184767353Y-99884091D01*
X184731258Y-99887646D01*
X184731249Y-99887646D01*
X184623269Y-99898281D01*
X184484721Y-99940309D01*
X184357034Y-100008559D01*
X184245116Y-100100408D01*
X184222095Y-100128459D01*
X184105808Y-100244746D01*
X184077762Y-100267763D01*
X183985913Y-100379681D01*
X183917663Y-100507368D01*
X183888384Y-100603887D01*
X183875635Y-100645915D01*
X183861444Y-100790000D01*
X183865000Y-100826105D01*
X183865001Y-101842711D01*
X183796028Y-101773738D01*
X183642889Y-101671414D01*
X183472729Y-101600932D01*
X183292089Y-101565000D01*
X183107911Y-101565000D01*
X182927271Y-101600932D01*
X182757111Y-101671414D01*
X182603972Y-101773738D01*
X182473738Y-101903972D01*
X182371414Y-102057111D01*
X182300932Y-102227271D01*
X182274258Y-102361368D01*
X182239716Y-102389716D01*
X182132382Y-102520503D01*
X182052625Y-102669717D01*
X182003512Y-102831623D01*
X181986928Y-103000000D01*
X178990425Y-103000000D01*
X179028586Y-102942889D01*
X179099068Y-102772729D01*
X179135000Y-102592089D01*
X179135000Y-102407911D01*
X179099068Y-102227271D01*
X179028586Y-102057111D01*
X179013812Y-102035000D01*
X179092089Y-102035000D01*
X179272729Y-101999068D01*
X179442889Y-101928586D01*
X179596028Y-101826262D01*
X179726262Y-101696028D01*
X179828586Y-101542889D01*
X179899068Y-101372729D01*
X179935000Y-101192089D01*
X179935000Y-101007911D01*
X179899068Y-100827271D01*
X179828586Y-100657111D01*
X179726262Y-100503972D01*
X179596028Y-100373738D01*
X179442889Y-100271414D01*
X179354711Y-100234890D01*
X179363072Y-100150000D01*
X179363072Y-99650000D01*
X179346488Y-99481623D01*
X179297375Y-99319717D01*
X179217618Y-99170503D01*
X179110284Y-99039716D01*
X178979497Y-98932382D01*
X178830283Y-98852625D01*
X178668377Y-98803512D01*
X178500000Y-98786928D01*
X178050000Y-98786928D01*
X177881623Y-98803512D01*
X177719717Y-98852625D01*
X177573649Y-98930700D01*
X177529494Y-98894463D01*
X177419180Y-98835498D01*
X177299482Y-98799188D01*
X177175000Y-98786928D01*
X177010750Y-98790000D01*
X176852000Y-98948750D01*
X176598000Y-98948750D01*
X176439250Y-98790000D01*
X176275000Y-98786928D01*
X176150518Y-98799188D01*
X176030820Y-98835498D01*
X175920506Y-98894463D01*
X175823815Y-98973815D01*
X175744463Y-99070506D01*
X175685498Y-99180820D01*
X175649188Y-99300518D01*
X175636928Y-99425000D01*
X172660000Y-99425000D01*
X172660000Y-97875000D01*
X184886928Y-97875000D01*
X184890000Y-98039250D01*
X185048750Y-98198000D01*
X185873000Y-98198000D01*
X185873000Y-97398750D01*
X186127000Y-97398750D01*
X186127000Y-98198000D01*
X186951250Y-98198000D01*
X187001250Y-98148000D01*
X187393000Y-98148000D01*
X187393000Y-97348750D01*
X187234250Y-97190000D01*
X187045000Y-97186928D01*
X186920518Y-97199188D01*
X186800820Y-97235498D01*
X186711587Y-97283195D01*
X186599482Y-97249188D01*
X186475000Y-97236928D01*
X186285750Y-97240000D01*
X186127000Y-97398750D01*
X185873000Y-97398750D01*
X185714250Y-97240000D01*
X185525000Y-97236928D01*
X185400518Y-97249188D01*
X185280820Y-97285498D01*
X185170506Y-97344463D01*
X185073815Y-97423815D01*
X184994463Y-97520506D01*
X184935498Y-97630820D01*
X184899188Y-97750518D01*
X184886928Y-97875000D01*
X172660000Y-97875000D01*
X172660000Y-95237911D01*
X187545000Y-95237911D01*
X187545000Y-95422089D01*
X187580932Y-95602729D01*
X187651414Y-95772889D01*
X187753738Y-95926028D01*
X187883972Y-96056262D01*
X188037111Y-96158586D01*
X188207271Y-96229068D01*
X188301910Y-96247893D01*
X188286928Y-96400000D01*
X188286928Y-96850000D01*
X188303512Y-97018377D01*
X188352625Y-97180283D01*
X188430700Y-97326351D01*
X188413656Y-97347119D01*
X188349494Y-97294463D01*
X188239180Y-97235498D01*
X188119482Y-97199188D01*
X187995000Y-97186928D01*
X187805750Y-97190000D01*
X187647000Y-97348750D01*
X187647000Y-98148000D01*
X188471250Y-98148000D01*
X188571250Y-98048000D01*
X189273000Y-98048000D01*
X189273000Y-98028000D01*
X189527000Y-98028000D01*
X189527000Y-98048000D01*
X190351250Y-98048000D01*
X190510000Y-97889250D01*
X190513072Y-97725000D01*
X190500812Y-97600518D01*
X190464502Y-97480820D01*
X190405537Y-97370506D01*
X190369300Y-97326351D01*
X190447375Y-97180283D01*
X190496488Y-97018377D01*
X190513072Y-96850000D01*
X190513072Y-96400000D01*
X190508927Y-96357911D01*
X193735000Y-96357911D01*
X193735000Y-96542089D01*
X193770932Y-96722729D01*
X193841414Y-96892889D01*
X193943738Y-97046028D01*
X194073972Y-97176262D01*
X194227111Y-97278586D01*
X194397271Y-97349068D01*
X194577911Y-97385000D01*
X194762089Y-97385000D01*
X194942729Y-97349068D01*
X195112889Y-97278586D01*
X195266028Y-97176262D01*
X195396262Y-97046028D01*
X195498586Y-96892889D01*
X195569068Y-96722729D01*
X195605000Y-96542089D01*
X195605000Y-96357911D01*
X195569068Y-96177271D01*
X195498586Y-96007111D01*
X195396262Y-95853972D01*
X195266028Y-95723738D01*
X195112889Y-95621414D01*
X194942729Y-95550932D01*
X194762089Y-95515000D01*
X194577911Y-95515000D01*
X194397271Y-95550932D01*
X194227111Y-95621414D01*
X194073972Y-95723738D01*
X193943738Y-95853972D01*
X193841414Y-96007111D01*
X193770932Y-96177271D01*
X193735000Y-96357911D01*
X190508927Y-96357911D01*
X190496488Y-96231623D01*
X190447375Y-96069717D01*
X190367618Y-95920503D01*
X190285000Y-95819833D01*
X190285000Y-95733469D01*
X190289281Y-95690000D01*
X190285000Y-95646531D01*
X190285000Y-95646523D01*
X190272195Y-95516510D01*
X190221589Y-95349687D01*
X190139411Y-95195941D01*
X190028817Y-95061183D01*
X189995044Y-95033466D01*
X189696534Y-94734956D01*
X189668817Y-94701183D01*
X189534059Y-94590589D01*
X189380313Y-94508411D01*
X189213490Y-94457805D01*
X189083477Y-94445000D01*
X189083469Y-94445000D01*
X189040000Y-94440719D01*
X188996531Y-94445000D01*
X188786692Y-94445000D01*
X188752729Y-94430932D01*
X188572089Y-94395000D01*
X188387911Y-94395000D01*
X188207271Y-94430932D01*
X188037111Y-94501414D01*
X187883972Y-94603738D01*
X187753738Y-94733972D01*
X187651414Y-94887111D01*
X187580932Y-95057271D01*
X187545000Y-95237911D01*
X172660000Y-95237911D01*
X172660000Y-91032279D01*
X172669580Y-90934576D01*
X172688580Y-90871644D01*
X172719445Y-90813595D01*
X172760989Y-90762657D01*
X172811644Y-90720752D01*
X172869471Y-90689485D01*
X172932272Y-90670044D01*
X173027835Y-90660000D01*
X196967721Y-90660000D01*
X197065424Y-90669580D01*
%TA.AperFunction,Conductor*%
D18*
G36*
X197065424Y-90669580D02*
G01*
X197128356Y-90688580D01*
X197186405Y-90719445D01*
X197237343Y-90760989D01*
X197279248Y-90811644D01*
X197310515Y-90869471D01*
X197329956Y-90932272D01*
X197340000Y-91027835D01*
X197340001Y-118967711D01*
X197330420Y-119065424D01*
X197311420Y-119128357D01*
X197280554Y-119186406D01*
X197239011Y-119237343D01*
X197188356Y-119279248D01*
X197130529Y-119310515D01*
X197067728Y-119329956D01*
X196972165Y-119340000D01*
X173032279Y-119340000D01*
X172934576Y-119330420D01*
X172871643Y-119311420D01*
X172813594Y-119280554D01*
X172762657Y-119239011D01*
X172720752Y-119188356D01*
X172689485Y-119130529D01*
X172670044Y-119067728D01*
X172660000Y-118972165D01*
X172660000Y-116850000D01*
X181131928Y-116850000D01*
X181131928Y-118550000D01*
X181144188Y-118674482D01*
X181180498Y-118794180D01*
X181239463Y-118904494D01*
X181318815Y-119001185D01*
X181415506Y-119080537D01*
X181525820Y-119139502D01*
X181645518Y-119175812D01*
X181770000Y-119188072D01*
X183470000Y-119188072D01*
X183594482Y-119175812D01*
X183714180Y-119139502D01*
X183824494Y-119080537D01*
X183921185Y-119001185D01*
X184000537Y-118904494D01*
X184059502Y-118794180D01*
X184081513Y-118721620D01*
X184213368Y-118853475D01*
X184456589Y-119015990D01*
X184726842Y-119127932D01*
X185013740Y-119185000D01*
X185306260Y-119185000D01*
X185593158Y-119127932D01*
X185863411Y-119015990D01*
X186106632Y-118853475D01*
X186313475Y-118646632D01*
X186430000Y-118472240D01*
X186546525Y-118646632D01*
X186753368Y-118853475D01*
X186996589Y-119015990D01*
X187266842Y-119127932D01*
X187553740Y-119185000D01*
X187846260Y-119185000D01*
X188133158Y-119127932D01*
X188403411Y-119015990D01*
X188646632Y-118853475D01*
X188853475Y-118646632D01*
X188975195Y-118464466D01*
X189044822Y-118581355D01*
X189239731Y-118797588D01*
X189473080Y-118971641D01*
X189735901Y-119096825D01*
X189883110Y-119141476D01*
X190113000Y-119020155D01*
X190113000Y-117827000D01*
X190367000Y-117827000D01*
X190367000Y-119020155D01*
X190596890Y-119141476D01*
X190744099Y-119096825D01*
X191006920Y-118971641D01*
X191240269Y-118797588D01*
X191435178Y-118581355D01*
X191584157Y-118331252D01*
X191681481Y-118056891D01*
X191560814Y-117827000D01*
X190367000Y-117827000D01*
X190113000Y-117827000D01*
X190093000Y-117827000D01*
X190093000Y-117573000D01*
X190113000Y-117573000D01*
X190113000Y-116379845D01*
X190367000Y-116379845D01*
X190367000Y-117573000D01*
X191560814Y-117573000D01*
X191681481Y-117343109D01*
X191584157Y-117068748D01*
X191435178Y-116818645D01*
X191240269Y-116602412D01*
X191006920Y-116428359D01*
X190744099Y-116303175D01*
X190596890Y-116258524D01*
X190367000Y-116379845D01*
X190113000Y-116379845D01*
X189883110Y-116258524D01*
X189735901Y-116303175D01*
X189473080Y-116428359D01*
X189239731Y-116602412D01*
X189044822Y-116818645D01*
X188975195Y-116935534D01*
X188853475Y-116753368D01*
X188646632Y-116546525D01*
X188403411Y-116384010D01*
X188133158Y-116272068D01*
X187846260Y-116215000D01*
X187553740Y-116215000D01*
X187266842Y-116272068D01*
X186996589Y-116384010D01*
X186753368Y-116546525D01*
X186546525Y-116753368D01*
X186430000Y-116927760D01*
X186313475Y-116753368D01*
X186106632Y-116546525D01*
X185863411Y-116384010D01*
X185593158Y-116272068D01*
X185566691Y-116266803D01*
X185616185Y-116226185D01*
X185695537Y-116129494D01*
X185754502Y-116019180D01*
X185790812Y-115899482D01*
X185803072Y-115775000D01*
X185800000Y-115610750D01*
X185641250Y-115452000D01*
X184817000Y-115452000D01*
X184817000Y-115472000D01*
X184563000Y-115472000D01*
X184563000Y-115452000D01*
X184151250Y-115452000D01*
X184131250Y-115432000D01*
X183307000Y-115432000D01*
X183307000Y-115452000D01*
X183053000Y-115452000D01*
X183053000Y-115432000D01*
X182228750Y-115432000D01*
X182070000Y-115590750D01*
X182066928Y-115755000D01*
X182079188Y-115879482D01*
X182115498Y-115999180D01*
X182174463Y-116109494D01*
X182253815Y-116206185D01*
X182260813Y-116211928D01*
X181770000Y-116211928D01*
X181645518Y-116224188D01*
X181525820Y-116260498D01*
X181415506Y-116319463D01*
X181318815Y-116398815D01*
X181239463Y-116495506D01*
X181180498Y-116605820D01*
X181144188Y-116725518D01*
X181131928Y-116850000D01*
X172660000Y-116850000D01*
X172660000Y-114257048D01*
X172691414Y-114332889D01*
X172793738Y-114486028D01*
X172923972Y-114616262D01*
X173077111Y-114718586D01*
X173247271Y-114789068D01*
X173427911Y-114825000D01*
X173612089Y-114825000D01*
X173792729Y-114789068D01*
X173962889Y-114718586D01*
X174102951Y-114625000D01*
X174833895Y-114625000D01*
X174870000Y-114628556D01*
X174906105Y-114625000D01*
X175014085Y-114614365D01*
X175152633Y-114572337D01*
X175280320Y-114504087D01*
X175392238Y-114412238D01*
X175415259Y-114384187D01*
X175604187Y-114195259D01*
X175632238Y-114172238D01*
X175724087Y-114060320D01*
X175792337Y-113932633D01*
X175834365Y-113794085D01*
X175845000Y-113686105D01*
X175845000Y-113686096D01*
X175848555Y-113650001D01*
X175845000Y-113613906D01*
X175845000Y-111092951D01*
X175938586Y-110952889D01*
X176009068Y-110782729D01*
X176043260Y-110610838D01*
X176087271Y-110629068D01*
X176267911Y-110665000D01*
X176452089Y-110665000D01*
X176632729Y-110629068D01*
X176802889Y-110558586D01*
X176956028Y-110456262D01*
X176987290Y-110425000D01*
X181344049Y-110425000D01*
X181484111Y-110518586D01*
X181654271Y-110589068D01*
X181834911Y-110625000D01*
X182019089Y-110625000D01*
X182199729Y-110589068D01*
X182369889Y-110518586D01*
X182437312Y-110473535D01*
X182445001Y-110481224D01*
X182445000Y-112816898D01*
X182319716Y-112919716D01*
X182212382Y-113050503D01*
X182132625Y-113199717D01*
X182083512Y-113361623D01*
X182066928Y-113530000D01*
X182066928Y-113980000D01*
X182083512Y-114148377D01*
X182132625Y-114310283D01*
X182210700Y-114456351D01*
X182174463Y-114500506D01*
X182115498Y-114610820D01*
X182079188Y-114730518D01*
X182066928Y-114855000D01*
X182070000Y-115019250D01*
X182228750Y-115178000D01*
X183053000Y-115178000D01*
X183053000Y-115158000D01*
X183307000Y-115158000D01*
X183307000Y-115178000D01*
X183718750Y-115178000D01*
X183738750Y-115198000D01*
X184563000Y-115198000D01*
X184563000Y-115178000D01*
X184817000Y-115178000D01*
X184817000Y-115198000D01*
X185641250Y-115198000D01*
X185800000Y-115039250D01*
X185803072Y-114875000D01*
X185790812Y-114750518D01*
X185754502Y-114630820D01*
X185695537Y-114520506D01*
X185659300Y-114476351D01*
X185737375Y-114330283D01*
X185786488Y-114168377D01*
X185803072Y-114000000D01*
X185803072Y-113849162D01*
X185868353Y-113822122D01*
X186009208Y-113728005D01*
X186128995Y-113608218D01*
X186223112Y-113467363D01*
X186287941Y-113310853D01*
X186320990Y-113144703D01*
X186320990Y-112975297D01*
X186287941Y-112809147D01*
X186223112Y-112652637D01*
X186128995Y-112511782D01*
X186009208Y-112391995D01*
X185868353Y-112297878D01*
X185711843Y-112233049D01*
X185545693Y-112200000D01*
X185517710Y-112200000D01*
X185541831Y-112170608D01*
X185619278Y-112025716D01*
X185666969Y-111868500D01*
X185683072Y-111705000D01*
X185683072Y-111305000D01*
X185666969Y-111141500D01*
X185619278Y-110984284D01*
X185541831Y-110839392D01*
X185437606Y-110712394D01*
X185398134Y-110680000D01*
X185437606Y-110647606D01*
X185541831Y-110520608D01*
X185619278Y-110375716D01*
X185666969Y-110218500D01*
X185683072Y-110055000D01*
X185683072Y-109655000D01*
X185666969Y-109491500D01*
X185619278Y-109334284D01*
X185587590Y-109275000D01*
X187953895Y-109275000D01*
X187990000Y-109278556D01*
X188026105Y-109275000D01*
X188134085Y-109264365D01*
X188272633Y-109222337D01*
X188400320Y-109154087D01*
X188512238Y-109062238D01*
X188535258Y-109034188D01*
X189204197Y-108365250D01*
X189232237Y-108342238D01*
X189255250Y-108314197D01*
X189255253Y-108314194D01*
X189324087Y-108230320D01*
X189339859Y-108200812D01*
X189392337Y-108102633D01*
X189434365Y-107964085D01*
X189445000Y-107856105D01*
X189445000Y-107856104D01*
X189448556Y-107820000D01*
X189445000Y-107783895D01*
X189445000Y-106966238D01*
X189519147Y-106996951D01*
X189685297Y-107030000D01*
X189854703Y-107030000D01*
X190020853Y-106996951D01*
X190177363Y-106932122D01*
X190318218Y-106838005D01*
X190438005Y-106718218D01*
X190532122Y-106577363D01*
X190596951Y-106420853D01*
X190630000Y-106254703D01*
X190630000Y-106085297D01*
X190596951Y-105919147D01*
X190532122Y-105762637D01*
X190438005Y-105621782D01*
X190318218Y-105501995D01*
X190177363Y-105407878D01*
X190020853Y-105343049D01*
X189972972Y-105333525D01*
X189358140Y-104718693D01*
X189406951Y-104600853D01*
X189440000Y-104434703D01*
X189440000Y-104265297D01*
X189406951Y-104099147D01*
X189342122Y-103942637D01*
X189248005Y-103801782D01*
X189128218Y-103681995D01*
X188987363Y-103587878D01*
X188830853Y-103523049D01*
X188664703Y-103490000D01*
X188495297Y-103490000D01*
X188329147Y-103523049D01*
X188172637Y-103587878D01*
X188031782Y-103681995D01*
X187911995Y-103801782D01*
X187817878Y-103942637D01*
X187753049Y-104099147D01*
X187720000Y-104265297D01*
X187720000Y-104434703D01*
X187753049Y-104600853D01*
X187817878Y-104757363D01*
X187845000Y-104797954D01*
X187845000Y-104943895D01*
X187841444Y-104980000D01*
X187845000Y-105016105D01*
X187855635Y-105124085D01*
X187897663Y-105262633D01*
X187965914Y-105390320D01*
X188057763Y-105502238D01*
X188085808Y-105525254D01*
X188440554Y-105880000D01*
X188215808Y-106104746D01*
X188187763Y-106127762D01*
X188156495Y-106165862D01*
X188069494Y-106094463D01*
X187959180Y-106035498D01*
X187839482Y-105999188D01*
X187715000Y-105986928D01*
X187550750Y-105990000D01*
X187392000Y-106148750D01*
X187392000Y-106973000D01*
X187412000Y-106973000D01*
X187412000Y-107227000D01*
X187392000Y-107227000D01*
X187392000Y-107247000D01*
X187138000Y-107247000D01*
X187138000Y-107227000D01*
X187118000Y-107227000D01*
X187118000Y-106973000D01*
X187138000Y-106973000D01*
X187138000Y-106148750D01*
X186979250Y-105990000D01*
X186815000Y-105986928D01*
X186690518Y-105999188D01*
X186570820Y-106035498D01*
X186460506Y-106094463D01*
X186416351Y-106130700D01*
X186270283Y-106052625D01*
X186108377Y-106003512D01*
X185940000Y-105986928D01*
X185490000Y-105986928D01*
X185321623Y-106003512D01*
X185159717Y-106052625D01*
X185010503Y-106132382D01*
X184879716Y-106239716D01*
X184782100Y-106358661D01*
X184642729Y-106300932D01*
X184462089Y-106265000D01*
X184392827Y-106265000D01*
X184380284Y-106249716D01*
X184249497Y-106142382D01*
X184100283Y-106062625D01*
X183938377Y-106013512D01*
X183770000Y-105996928D01*
X183320000Y-105996928D01*
X183151623Y-106013512D01*
X182989717Y-106062625D01*
X182843649Y-106140700D01*
X182799494Y-106104463D01*
X182689180Y-106045498D01*
X182569482Y-106009188D01*
X182445000Y-105996928D01*
X182280750Y-106000000D01*
X182122000Y-106158750D01*
X182122000Y-106983000D01*
X182142000Y-106983000D01*
X182142000Y-107237000D01*
X182122000Y-107237000D01*
X182122000Y-108061250D01*
X182280750Y-108220000D01*
X182445000Y-108223072D01*
X182569482Y-108210812D01*
X182689180Y-108174502D01*
X182799494Y-108115537D01*
X182843649Y-108079300D01*
X182989717Y-108157375D01*
X183151623Y-108206488D01*
X183320000Y-108223072D01*
X183635001Y-108223072D01*
X183635001Y-108303885D01*
X183631444Y-108340000D01*
X183645635Y-108484085D01*
X183673482Y-108575881D01*
X183497271Y-108610932D01*
X183327111Y-108681414D01*
X183173972Y-108783738D01*
X183043738Y-108913972D01*
X183012983Y-108960000D01*
X182915297Y-108960000D01*
X182749147Y-108993049D01*
X182609983Y-109050693D01*
X182523028Y-108963738D01*
X182369889Y-108861414D01*
X182199729Y-108790932D01*
X182019089Y-108755000D01*
X181834911Y-108755000D01*
X181654271Y-108790932D01*
X181484111Y-108861414D01*
X181344049Y-108955000D01*
X176883086Y-108955000D01*
X176802889Y-108901414D01*
X176632729Y-108830932D01*
X176452089Y-108795000D01*
X176267911Y-108795000D01*
X176087271Y-108830932D01*
X175917111Y-108901414D01*
X175763972Y-109003738D01*
X175633738Y-109133972D01*
X175531414Y-109287111D01*
X175460932Y-109457271D01*
X175426740Y-109629162D01*
X175382729Y-109610932D01*
X175202089Y-109575000D01*
X175017911Y-109575000D01*
X174837271Y-109610932D01*
X174667111Y-109681414D01*
X174513972Y-109783738D01*
X174383738Y-109913972D01*
X174281414Y-110067111D01*
X174210932Y-110237271D01*
X174175000Y-110417911D01*
X174175000Y-110602089D01*
X174210932Y-110782729D01*
X174281414Y-110952889D01*
X174375000Y-111092951D01*
X174375001Y-113155000D01*
X174102951Y-113155000D01*
X173962889Y-113061414D01*
X173792729Y-112990932D01*
X173612089Y-112955000D01*
X173427911Y-112955000D01*
X173247271Y-112990932D01*
X173077111Y-113061414D01*
X172923972Y-113163738D01*
X172793738Y-113293972D01*
X172691414Y-113447111D01*
X172660000Y-113522952D01*
X172660000Y-107585000D01*
X180906928Y-107585000D01*
X180919188Y-107709482D01*
X180955498Y-107829180D01*
X181014463Y-107939494D01*
X181093815Y-108036185D01*
X181190506Y-108115537D01*
X181300820Y-108174502D01*
X181420518Y-108210812D01*
X181545000Y-108223072D01*
X181709250Y-108220000D01*
X181868000Y-108061250D01*
X181868000Y-107237000D01*
X181068750Y-107237000D01*
X180910000Y-107395750D01*
X180906928Y-107585000D01*
X172660000Y-107585000D01*
X172660000Y-105907911D01*
X177165000Y-105907911D01*
X177165000Y-106092089D01*
X177200932Y-106272729D01*
X177271414Y-106442889D01*
X177373738Y-106596028D01*
X177503972Y-106726262D01*
X177657111Y-106828586D01*
X177827271Y-106899068D01*
X178007911Y-106935000D01*
X178192089Y-106935000D01*
X178372729Y-106899068D01*
X178542889Y-106828586D01*
X178696028Y-106726262D01*
X178787290Y-106635000D01*
X180906928Y-106635000D01*
X180910000Y-106824250D01*
X181068750Y-106983000D01*
X181868000Y-106983000D01*
X181868000Y-106158750D01*
X181709250Y-106000000D01*
X181545000Y-105996928D01*
X181420518Y-106009188D01*
X181300820Y-106045498D01*
X181190506Y-106104463D01*
X181093815Y-106183815D01*
X181014463Y-106280506D01*
X180955498Y-106390820D01*
X180919188Y-106510518D01*
X180906928Y-106635000D01*
X178787290Y-106635000D01*
X178826262Y-106596028D01*
X178928586Y-106442889D01*
X178999068Y-106272729D01*
X179035000Y-106092089D01*
X179035000Y-105907911D01*
X178999068Y-105727271D01*
X178928586Y-105557111D01*
X178826262Y-105403972D01*
X178696028Y-105273738D01*
X178623087Y-105225000D01*
X181986928Y-105225000D01*
X181999188Y-105349482D01*
X182035498Y-105469180D01*
X182094463Y-105579494D01*
X182173815Y-105676185D01*
X182270506Y-105755537D01*
X182380820Y-105814502D01*
X182500518Y-105850812D01*
X182625000Y-105863072D01*
X182814250Y-105860000D01*
X182973000Y-105701250D01*
X182973000Y-104902000D01*
X183227000Y-104902000D01*
X183227000Y-105701250D01*
X183385750Y-105860000D01*
X183575000Y-105863072D01*
X183699482Y-105850812D01*
X183819180Y-105814502D01*
X183850000Y-105798028D01*
X183880820Y-105814502D01*
X184000518Y-105850812D01*
X184125000Y-105863072D01*
X184314250Y-105860000D01*
X184473000Y-105701250D01*
X184473000Y-104902000D01*
X184727000Y-104902000D01*
X184727000Y-105701250D01*
X184885750Y-105860000D01*
X185075000Y-105863072D01*
X185199482Y-105850812D01*
X185319180Y-105814502D01*
X185345000Y-105800701D01*
X185370820Y-105814502D01*
X185490518Y-105850812D01*
X185615000Y-105863072D01*
X185804250Y-105860000D01*
X185963000Y-105701250D01*
X185963000Y-104902000D01*
X186217000Y-104902000D01*
X186217000Y-105701250D01*
X186375750Y-105860000D01*
X186565000Y-105863072D01*
X186689482Y-105850812D01*
X186809180Y-105814502D01*
X186919494Y-105755537D01*
X187016185Y-105676185D01*
X187095537Y-105579494D01*
X187154502Y-105469180D01*
X187190812Y-105349482D01*
X187203072Y-105225000D01*
X187200000Y-105060750D01*
X187041250Y-104902000D01*
X186217000Y-104902000D01*
X185963000Y-104902000D01*
X184727000Y-104902000D01*
X184473000Y-104902000D01*
X183227000Y-104902000D01*
X182973000Y-104902000D01*
X182148750Y-104902000D01*
X181990000Y-105060750D01*
X181986928Y-105225000D01*
X178623087Y-105225000D01*
X178542889Y-105171414D01*
X178372729Y-105100932D01*
X178192089Y-105065000D01*
X178007911Y-105065000D01*
X177827271Y-105100932D01*
X177657111Y-105171414D01*
X177503972Y-105273738D01*
X177373738Y-105403972D01*
X177271414Y-105557111D01*
X177200932Y-105727271D01*
X177165000Y-105907911D01*
X172660000Y-105907911D01*
X172660000Y-100375000D01*
X175636928Y-100375000D01*
X175649188Y-100499482D01*
X175685498Y-100619180D01*
X175744463Y-100729494D01*
X175823815Y-100826185D01*
X175920506Y-100905537D01*
X176030820Y-100964502D01*
X176150518Y-101000812D01*
X176275000Y-101013072D01*
X176439250Y-101010000D01*
X176598000Y-100851250D01*
X176598000Y-100027000D01*
X175798750Y-100027000D01*
X175640000Y-100185750D01*
X175636928Y-100375000D01*
X172660000Y-100375000D01*
X172660000Y-99425000D01*
X175636928Y-99425000D01*
X175640000Y-99614250D01*
X175798750Y-99773000D01*
X176598000Y-99773000D01*
X176598000Y-98948750D01*
X176852000Y-98948750D01*
X176852000Y-99773000D01*
X176872000Y-99773000D01*
X176872000Y-100027000D01*
X176852000Y-100027000D01*
X176852000Y-100851250D01*
X177010750Y-101010000D01*
X177175000Y-101013072D01*
X177299482Y-101000812D01*
X177419180Y-100964502D01*
X177529494Y-100905537D01*
X177540000Y-100896915D01*
X177540000Y-100938894D01*
X177536444Y-100975000D01*
X177540000Y-101011104D01*
X177550635Y-101119084D01*
X177592663Y-101257632D01*
X177660913Y-101385319D01*
X177752762Y-101497237D01*
X177780808Y-101520254D01*
X177854741Y-101594187D01*
X177877273Y-101621642D01*
X177757111Y-101671414D01*
X177603972Y-101773738D01*
X177473738Y-101903972D01*
X177371414Y-102057111D01*
X177300932Y-102227271D01*
X177265000Y-102407911D01*
X177265000Y-102592089D01*
X177300932Y-102772729D01*
X177371414Y-102942889D01*
X177473738Y-103096028D01*
X177603972Y-103226262D01*
X177757111Y-103328586D01*
X177927271Y-103399068D01*
X178107911Y-103435000D01*
X178292089Y-103435000D01*
X178472729Y-103399068D01*
X178642889Y-103328586D01*
X178796028Y-103226262D01*
X178926262Y-103096028D01*
X178990425Y-103000000D01*
X181986928Y-103000000D01*
X181986928Y-103450000D01*
X182003512Y-103618377D01*
X182052625Y-103780283D01*
X182130700Y-103926351D01*
X182094463Y-103970506D01*
X182035498Y-104080820D01*
X181999188Y-104200518D01*
X181986928Y-104325000D01*
X181990000Y-104489250D01*
X182148750Y-104648000D01*
X182973000Y-104648000D01*
X182973000Y-104628000D01*
X183227000Y-104628000D01*
X183227000Y-104648000D01*
X184473000Y-104648000D01*
X184473000Y-104628000D01*
X184727000Y-104628000D01*
X184727000Y-104648000D01*
X185963000Y-104648000D01*
X185963000Y-104628000D01*
X186217000Y-104628000D01*
X186217000Y-104648000D01*
X187041250Y-104648000D01*
X187200000Y-104489250D01*
X187203072Y-104325000D01*
X187190812Y-104200518D01*
X187154502Y-104080820D01*
X187095537Y-103970506D01*
X187059300Y-103926351D01*
X187137375Y-103780283D01*
X187186488Y-103618377D01*
X187203072Y-103450000D01*
X187203072Y-103000000D01*
X187186488Y-102831623D01*
X187137375Y-102669717D01*
X187057618Y-102520503D01*
X186950284Y-102389716D01*
X186819497Y-102282382D01*
X186743931Y-102241991D01*
X186729068Y-102167271D01*
X186658586Y-101997111D01*
X186556262Y-101843972D01*
X186426028Y-101713738D01*
X186272889Y-101611414D01*
X186143080Y-101557646D01*
X186144735Y-101557646D01*
X186325375Y-101521714D01*
X186335677Y-101517447D01*
X186457111Y-101598586D01*
X186627271Y-101669068D01*
X186807911Y-101705000D01*
X186992089Y-101705000D01*
X187172729Y-101669068D01*
X187342889Y-101598586D01*
X187496028Y-101496262D01*
X187626262Y-101366028D01*
X187728586Y-101212889D01*
X187799068Y-101042729D01*
X187825955Y-100907561D01*
X187938377Y-100896488D01*
X188100283Y-100847375D01*
X188249497Y-100767618D01*
X188380284Y-100660284D01*
X188487618Y-100529497D01*
X188567375Y-100380283D01*
X188616488Y-100218377D01*
X188633072Y-100050000D01*
X188633072Y-99600000D01*
X188616488Y-99431623D01*
X188567375Y-99269717D01*
X188489300Y-99123649D01*
X188506344Y-99102881D01*
X188570506Y-99155537D01*
X188680820Y-99214502D01*
X188800518Y-99250812D01*
X188925000Y-99263072D01*
X189114250Y-99260000D01*
X189273000Y-99101250D01*
X189273000Y-98302000D01*
X189527000Y-98302000D01*
X189527000Y-99101250D01*
X189685750Y-99260000D01*
X189875000Y-99263072D01*
X189999482Y-99250812D01*
X190119180Y-99214502D01*
X190229494Y-99155537D01*
X190326185Y-99076185D01*
X190405537Y-98979494D01*
X190464502Y-98869180D01*
X190500812Y-98749482D01*
X190513072Y-98625000D01*
X190510000Y-98460750D01*
X190351250Y-98302000D01*
X189527000Y-98302000D01*
X189273000Y-98302000D01*
X188448750Y-98302000D01*
X188348750Y-98402000D01*
X187647000Y-98402000D01*
X187647000Y-98422000D01*
X187393000Y-98422000D01*
X187393000Y-98402000D01*
X186568750Y-98402000D01*
X186518750Y-98452000D01*
X186127000Y-98452000D01*
X186127000Y-98472000D01*
X185873000Y-98472000D01*
X185873000Y-98452000D01*
X185048750Y-98452000D01*
X184890000Y-98610750D01*
X184886928Y-98775000D01*
X184899188Y-98899482D01*
X184935498Y-99019180D01*
X184994463Y-99129494D01*
X185030700Y-99173649D01*
X184952625Y-99319717D01*
X184903512Y-99481623D01*
X184886928Y-99650000D01*
X184886928Y-99887646D01*
X184803448Y-99887646D01*
X184767353Y-99884091D01*
X184731258Y-99887646D01*
X184731249Y-99887646D01*
X184623269Y-99898281D01*
X184484721Y-99940309D01*
X184357034Y-100008559D01*
X184245116Y-100100408D01*
X184222095Y-100128459D01*
X184105808Y-100244746D01*
X184077762Y-100267763D01*
X183985913Y-100379681D01*
X183917663Y-100507368D01*
X183888384Y-100603887D01*
X183875635Y-100645915D01*
X183861444Y-100790000D01*
X183865000Y-100826105D01*
X183865001Y-101842711D01*
X183796028Y-101773738D01*
X183642889Y-101671414D01*
X183472729Y-101600932D01*
X183292089Y-101565000D01*
X183107911Y-101565000D01*
X182927271Y-101600932D01*
X182757111Y-101671414D01*
X182603972Y-101773738D01*
X182473738Y-101903972D01*
X182371414Y-102057111D01*
X182300932Y-102227271D01*
X182274258Y-102361368D01*
X182239716Y-102389716D01*
X182132382Y-102520503D01*
X182052625Y-102669717D01*
X182003512Y-102831623D01*
X181986928Y-103000000D01*
X178990425Y-103000000D01*
X179028586Y-102942889D01*
X179099068Y-102772729D01*
X179135000Y-102592089D01*
X179135000Y-102407911D01*
X179099068Y-102227271D01*
X179028586Y-102057111D01*
X179013812Y-102035000D01*
X179092089Y-102035000D01*
X179272729Y-101999068D01*
X179442889Y-101928586D01*
X179596028Y-101826262D01*
X179726262Y-101696028D01*
X179828586Y-101542889D01*
X179899068Y-101372729D01*
X179935000Y-101192089D01*
X179935000Y-101007911D01*
X179899068Y-100827271D01*
X179828586Y-100657111D01*
X179726262Y-100503972D01*
X179596028Y-100373738D01*
X179442889Y-100271414D01*
X179354711Y-100234890D01*
X179363072Y-100150000D01*
X179363072Y-99650000D01*
X179346488Y-99481623D01*
X179297375Y-99319717D01*
X179217618Y-99170503D01*
X179110284Y-99039716D01*
X178979497Y-98932382D01*
X178830283Y-98852625D01*
X178668377Y-98803512D01*
X178500000Y-98786928D01*
X178050000Y-98786928D01*
X177881623Y-98803512D01*
X177719717Y-98852625D01*
X177573649Y-98930700D01*
X177529494Y-98894463D01*
X177419180Y-98835498D01*
X177299482Y-98799188D01*
X177175000Y-98786928D01*
X177010750Y-98790000D01*
X176852000Y-98948750D01*
X176598000Y-98948750D01*
X176439250Y-98790000D01*
X176275000Y-98786928D01*
X176150518Y-98799188D01*
X176030820Y-98835498D01*
X175920506Y-98894463D01*
X175823815Y-98973815D01*
X175744463Y-99070506D01*
X175685498Y-99180820D01*
X175649188Y-99300518D01*
X175636928Y-99425000D01*
X172660000Y-99425000D01*
X172660000Y-97875000D01*
X184886928Y-97875000D01*
X184890000Y-98039250D01*
X185048750Y-98198000D01*
X185873000Y-98198000D01*
X185873000Y-97398750D01*
X186127000Y-97398750D01*
X186127000Y-98198000D01*
X186951250Y-98198000D01*
X187001250Y-98148000D01*
X187393000Y-98148000D01*
X187393000Y-97348750D01*
X187234250Y-97190000D01*
X187045000Y-97186928D01*
X186920518Y-97199188D01*
X186800820Y-97235498D01*
X186711587Y-97283195D01*
X186599482Y-97249188D01*
X186475000Y-97236928D01*
X186285750Y-97240000D01*
X186127000Y-97398750D01*
X185873000Y-97398750D01*
X185714250Y-97240000D01*
X185525000Y-97236928D01*
X185400518Y-97249188D01*
X185280820Y-97285498D01*
X185170506Y-97344463D01*
X185073815Y-97423815D01*
X184994463Y-97520506D01*
X184935498Y-97630820D01*
X184899188Y-97750518D01*
X184886928Y-97875000D01*
X172660000Y-97875000D01*
X172660000Y-95237911D01*
X187545000Y-95237911D01*
X187545000Y-95422089D01*
X187580932Y-95602729D01*
X187651414Y-95772889D01*
X187753738Y-95926028D01*
X187883972Y-96056262D01*
X188037111Y-96158586D01*
X188207271Y-96229068D01*
X188301910Y-96247893D01*
X188286928Y-96400000D01*
X188286928Y-96850000D01*
X188303512Y-97018377D01*
X188352625Y-97180283D01*
X188430700Y-97326351D01*
X188413656Y-97347119D01*
X188349494Y-97294463D01*
X188239180Y-97235498D01*
X188119482Y-97199188D01*
X187995000Y-97186928D01*
X187805750Y-97190000D01*
X187647000Y-97348750D01*
X187647000Y-98148000D01*
X188471250Y-98148000D01*
X188571250Y-98048000D01*
X189273000Y-98048000D01*
X189273000Y-98028000D01*
X189527000Y-98028000D01*
X189527000Y-98048000D01*
X190351250Y-98048000D01*
X190510000Y-97889250D01*
X190513072Y-97725000D01*
X190500812Y-97600518D01*
X190464502Y-97480820D01*
X190405537Y-97370506D01*
X190369300Y-97326351D01*
X190447375Y-97180283D01*
X190496488Y-97018377D01*
X190513072Y-96850000D01*
X190513072Y-96400000D01*
X190508927Y-96357911D01*
X193735000Y-96357911D01*
X193735000Y-96542089D01*
X193770932Y-96722729D01*
X193841414Y-96892889D01*
X193943738Y-97046028D01*
X194073972Y-97176262D01*
X194227111Y-97278586D01*
X194397271Y-97349068D01*
X194577911Y-97385000D01*
X194762089Y-97385000D01*
X194942729Y-97349068D01*
X195112889Y-97278586D01*
X195266028Y-97176262D01*
X195396262Y-97046028D01*
X195498586Y-96892889D01*
X195569068Y-96722729D01*
X195605000Y-96542089D01*
X195605000Y-96357911D01*
X195569068Y-96177271D01*
X195498586Y-96007111D01*
X195396262Y-95853972D01*
X195266028Y-95723738D01*
X195112889Y-95621414D01*
X194942729Y-95550932D01*
X194762089Y-95515000D01*
X194577911Y-95515000D01*
X194397271Y-95550932D01*
X194227111Y-95621414D01*
X194073972Y-95723738D01*
X193943738Y-95853972D01*
X193841414Y-96007111D01*
X193770932Y-96177271D01*
X193735000Y-96357911D01*
X190508927Y-96357911D01*
X190496488Y-96231623D01*
X190447375Y-96069717D01*
X190367618Y-95920503D01*
X190285000Y-95819833D01*
X190285000Y-95733469D01*
X190289281Y-95690000D01*
X190285000Y-95646531D01*
X190285000Y-95646523D01*
X190272195Y-95516510D01*
X190221589Y-95349687D01*
X190139411Y-95195941D01*
X190028817Y-95061183D01*
X189995044Y-95033466D01*
X189696534Y-94734956D01*
X189668817Y-94701183D01*
X189534059Y-94590589D01*
X189380313Y-94508411D01*
X189213490Y-94457805D01*
X189083477Y-94445000D01*
X189083469Y-94445000D01*
X189040000Y-94440719D01*
X188996531Y-94445000D01*
X188786692Y-94445000D01*
X188752729Y-94430932D01*
X188572089Y-94395000D01*
X188387911Y-94395000D01*
X188207271Y-94430932D01*
X188037111Y-94501414D01*
X187883972Y-94603738D01*
X187753738Y-94733972D01*
X187651414Y-94887111D01*
X187580932Y-95057271D01*
X187545000Y-95237911D01*
X172660000Y-95237911D01*
X172660000Y-91032279D01*
X172669580Y-90934576D01*
X172688580Y-90871644D01*
X172719445Y-90813595D01*
X172760989Y-90762657D01*
X172811644Y-90720752D01*
X172869471Y-90689485D01*
X172932272Y-90670044D01*
X173027835Y-90660000D01*
X196967721Y-90660000D01*
X197065424Y-90669580D01*
G37*
%TD.AperFunction*%
%TD*%
M02*
