M48
; DRILL file {KiCad (5.1.10)-1} date 10/26/21 10:29:24
; FORMAT={3:3/ absolute / metric / suppress leading zeros}
; #@! TF.CreationDate,2021-10-26T10:29:24+05:30
; #@! TF.GenerationSoftware,Kicad,Pcbnew,(5.1.10)-1
FMAT,2
METRIC,TZ
T1C0.200
T2C0.300
T3C1.000
%
G90
G05
T1
X175790Y-112600
X176960Y-111630
X182610Y-109250
X183000Y-109820
X185022Y-107211
X185461Y-113060
X188580Y-104350
X189770Y-106170
T2
X173520Y-113890
X173530Y-110650
X175110Y-110510
X176100Y-98570
X176360Y-109730
X178100Y-104000
X178100Y-106000
X178100Y-107600
X178200Y-102500
X179000Y-101100
X179200Y-114740
X181870Y-104980
X181927Y-109690
X183200Y-102500
X183740Y-95260
X183770Y-109510
X184370Y-107200
X184600Y-102500
X185830Y-102440
X186053Y-100623
X186900Y-100770
X187490Y-97440
X188480Y-95330
X189410Y-99140
X189830Y-107800
X190810Y-97370
X191430Y-102410
X191830Y-104420
X192590Y-112230
X194640Y-97990
X194670Y-96450
X196640Y-108430
X196650Y-105460
T3
X182620Y-117700
X185160Y-117700
X187700Y-117700
X190240Y-117700
T0
M30
